STARTFONT 2.1
COMMENT
COMMENT Converted from OpenType font "nanum.ttf" by "otf2bdf 3.0".
COMMENT
FONT -FreeType-NanumGothic-Medium-R-Normal--10-70-100-100-P-83-ISO10646-1
SIZE 7 100 100
FONTBOUNDINGBOX 10 10 0 -2
STARTPROPERTIES 19
FOUNDRY "FreeType"
FAMILY_NAME "NanumGothic"
WEIGHT_NAME "Medium"
SLANT "R"
SETWIDTH_NAME "Normal"
ADD_STYLE_NAME ""
PIXEL_SIZE 10
POINT_SIZE 70
RESOLUTION_X 100
RESOLUTION_Y 100
SPACING "P"
AVERAGE_WIDTH 83
CHARSET_REGISTRY "ISO10646"
CHARSET_ENCODING "1"
FONT_ASCENT 9
FONT_DESCENT 2
COPYRIGHT "Copyright © 2011 NHN Corporation. All rights reserved. Font designed by Sandoll Communications Inc."
_OTF_FONTFILE "nanum.ttf"
_OTF_PSNAME "NanumGothic"
ENDPROPERTIES
CHARS 17666
STARTCHAR 0000
ENCODING 0
SWIDTH 308 0
DWIDTH 3 0
BBX 0 0 0 0
BITMAP
ENDCHAR
STARTCHAR 0001
ENCODING 1
SWIDTH 308 0
DWIDTH 3 0
BBX 0 0 0 0
BITMAP
ENDCHAR
STARTCHAR 0002
ENCODING 2
SWIDTH 308 0
DWIDTH 3 0
BBX 0 0 0 0
BITMAP
ENDCHAR
STARTCHAR 0003
ENCODING 3
SWIDTH 308 0
DWIDTH 3 0
BBX 0 0 0 0
BITMAP
ENDCHAR
STARTCHAR 0004
ENCODING 4
SWIDTH 308 0
DWIDTH 3 0
BBX 0 0 0 0
BITMAP
ENDCHAR
STARTCHAR 0005
ENCODING 5
SWIDTH 308 0
DWIDTH 3 0
BBX 0 0 0 0
BITMAP
ENDCHAR
STARTCHAR 0006
ENCODING 6
SWIDTH 308 0
DWIDTH 3 0
BBX 0 0 0 0
BITMAP
ENDCHAR
STARTCHAR 0007
ENCODING 7
SWIDTH 308 0
DWIDTH 3 0
BBX 0 0 0 0
BITMAP
ENDCHAR
STARTCHAR 0008
ENCODING 8
SWIDTH 308 0
DWIDTH 3 0
BBX 0 0 0 0
BITMAP
ENDCHAR
STARTCHAR 0009
ENCODING 9
SWIDTH 308 0
DWIDTH 3 0
BBX 0 0 0 0
BITMAP
ENDCHAR
STARTCHAR 000A
ENCODING 10
SWIDTH 308 0
DWIDTH 3 0
BBX 0 0 0 0
BITMAP
ENDCHAR
STARTCHAR 000B
ENCODING 11
SWIDTH 308 0
DWIDTH 3 0
BBX 0 0 0 0
BITMAP
ENDCHAR
STARTCHAR 000C
ENCODING 12
SWIDTH 308 0
DWIDTH 3 0
BBX 0 0 0 0
BITMAP
ENDCHAR
STARTCHAR 000D
ENCODING 13
SWIDTH 308 0
DWIDTH 3 0
BBX 0 0 0 0
BITMAP
ENDCHAR
STARTCHAR 000E
ENCODING 14
SWIDTH 308 0
DWIDTH 3 0
BBX 0 0 0 0
BITMAP
ENDCHAR
STARTCHAR 000F
ENCODING 15
SWIDTH 308 0
DWIDTH 3 0
BBX 0 0 0 0
BITMAP
ENDCHAR
STARTCHAR 0010
ENCODING 16
SWIDTH 308 0
DWIDTH 3 0
BBX 0 0 0 0
BITMAP
ENDCHAR
STARTCHAR 0011
ENCODING 17
SWIDTH 308 0
DWIDTH 3 0
BBX 0 0 0 0
BITMAP
ENDCHAR
STARTCHAR 0012
ENCODING 18
SWIDTH 308 0
DWIDTH 3 0
BBX 0 0 0 0
BITMAP
ENDCHAR
STARTCHAR 0013
ENCODING 19
SWIDTH 308 0
DWIDTH 3 0
BBX 0 0 0 0
BITMAP
ENDCHAR
STARTCHAR 0014
ENCODING 20
SWIDTH 308 0
DWIDTH 3 0
BBX 0 0 0 0
BITMAP
ENDCHAR
STARTCHAR 0015
ENCODING 21
SWIDTH 308 0
DWIDTH 3 0
BBX 0 0 0 0
BITMAP
ENDCHAR
STARTCHAR 0016
ENCODING 22
SWIDTH 308 0
DWIDTH 3 0
BBX 0 0 0 0
BITMAP
ENDCHAR
STARTCHAR 0017
ENCODING 23
SWIDTH 308 0
DWIDTH 3 0
BBX 0 0 0 0
BITMAP
ENDCHAR
STARTCHAR 0018
ENCODING 24
SWIDTH 308 0
DWIDTH 3 0
BBX 0 0 0 0
BITMAP
ENDCHAR
STARTCHAR 0019
ENCODING 25
SWIDTH 308 0
DWIDTH 3 0
BBX 0 0 0 0
BITMAP
ENDCHAR
STARTCHAR 001A
ENCODING 26
SWIDTH 308 0
DWIDTH 3 0
BBX 0 0 0 0
BITMAP
ENDCHAR
STARTCHAR 001B
ENCODING 27
SWIDTH 308 0
DWIDTH 3 0
BBX 0 0 0 0
BITMAP
ENDCHAR
STARTCHAR 001C
ENCODING 28
SWIDTH 308 0
DWIDTH 3 0
BBX 0 0 0 0
BITMAP
ENDCHAR
STARTCHAR 001D
ENCODING 29
SWIDTH 308 0
DWIDTH 3 0
BBX 0 0 0 0
BITMAP
ENDCHAR
STARTCHAR 001E
ENCODING 30
SWIDTH 308 0
DWIDTH 3 0
BBX 0 0 0 0
BITMAP
ENDCHAR
STARTCHAR 001F
ENCODING 31
SWIDTH 308 0
DWIDTH 3 0
BBX 0 0 0 0
BITMAP
ENDCHAR
STARTCHAR 0020
ENCODING 32
SWIDTH 308 0
DWIDTH 3 0
BBX 0 0 0 0
BITMAP
ENDCHAR
STARTCHAR 0021
ENCODING 33
SWIDTH 411 0
DWIDTH 4 0
BBX 1 7 2 0
BITMAP
80
80
80
80
80
00
80
ENDCHAR
STARTCHAR 0022
ENCODING 34
SWIDTH 411 0
DWIDTH 4 0
BBX 2 2 1 5
BITMAP
C0
C0
ENDCHAR
STARTCHAR 0023
ENCODING 35
SWIDTH 617 0
DWIDTH 6 0
BBX 6 7 0 0
BITMAP
28
28
7C
28
F8
50
50
ENDCHAR
STARTCHAR 0024
ENCODING 36
SWIDTH 617 0
DWIDTH 6 0
BBX 4 9 1 -1
BITMAP
20
70
A0
A0
60
30
30
E0
20
ENDCHAR
STARTCHAR 0025
ENCODING 37
SWIDTH 1131 0
DWIDTH 11 0
BBX 9 7 1 0
BITMAP
6200
9400
9400
6B00
1480
1480
2300
ENDCHAR
STARTCHAR 0026
ENCODING 38
SWIDTH 720 0
DWIDTH 7 0
BBX 6 7 1 0
BITMAP
70
90
60
A4
94
88
F4
ENDCHAR
STARTCHAR 0027
ENCODING 39
SWIDTH 308 0
DWIDTH 3 0
BBX 1 2 1 5
BITMAP
80
80
ENDCHAR
STARTCHAR 0028
ENCODING 40
SWIDTH 411 0
DWIDTH 4 0
BBX 2 10 1 -2
BITMAP
40
40
80
80
80
80
80
80
40
40
ENDCHAR
STARTCHAR 0029
ENCODING 41
SWIDTH 411 0
DWIDTH 4 0
BBX 3 10 0 -2
BITMAP
80
40
40
20
20
20
20
40
40
80
ENDCHAR
STARTCHAR 002A
ENCODING 42
SWIDTH 617 0
DWIDTH 6 0
BBX 4 3 1 2
BITMAP
20
F0
60
ENDCHAR
STARTCHAR 002B
ENCODING 43
SWIDTH 720 0
DWIDTH 7 0
BBX 5 5 1 1
BITMAP
20
20
F8
20
20
ENDCHAR
STARTCHAR 002C
ENCODING 44
SWIDTH 308 0
DWIDTH 3 0
BBX 1 2 1 -2
BITMAP
80
80
ENDCHAR
STARTCHAR 002D
ENCODING 45
SWIDTH 411 0
DWIDTH 4 0
BBX 2 1 1 3
BITMAP
C0
ENDCHAR
STARTCHAR 002E
ENCODING 46
SWIDTH 308 0
DWIDTH 3 0
BBX 1 1 1 0
BITMAP
80
ENDCHAR
STARTCHAR 002F
ENCODING 47
SWIDTH 411 0
DWIDTH 4 0
BBX 4 7 0 0
BITMAP
10
20
20
40
40
40
80
ENDCHAR
STARTCHAR 0030
ENCODING 48
SWIDTH 617 0
DWIDTH 6 0
BBX 5 7 1 0
BITMAP
F0
90
88
88
88
90
60
ENDCHAR
STARTCHAR 0031
ENCODING 49
SWIDTH 617 0
DWIDTH 6 0
BBX 3 7 1 0
BITMAP
60
A0
20
20
20
20
20
ENDCHAR
STARTCHAR 0032
ENCODING 50
SWIDTH 617 0
DWIDTH 6 0
BBX 4 7 1 0
BITMAP
E0
10
10
20
40
80
F0
ENDCHAR
STARTCHAR 0033
ENCODING 51
SWIDTH 617 0
DWIDTH 6 0
BBX 4 7 1 0
BITMAP
F0
10
10
60
10
10
E0
ENDCHAR
STARTCHAR 0034
ENCODING 52
SWIDTH 617 0
DWIDTH 6 0
BBX 6 7 0 0
BITMAP
18
28
48
48
FC
08
08
ENDCHAR
STARTCHAR 0035
ENCODING 53
SWIDTH 617 0
DWIDTH 6 0
BBX 4 7 1 0
BITMAP
F0
80
80
F0
10
10
F0
ENDCHAR
STARTCHAR 0036
ENCODING 54
SWIDTH 617 0
DWIDTH 6 0
BBX 5 7 1 0
BITMAP
70
80
80
F0
88
88
70
ENDCHAR
STARTCHAR 0037
ENCODING 55
SWIDTH 617 0
DWIDTH 6 0
BBX 4 7 1 0
BITMAP
F0
10
10
20
20
40
40
ENDCHAR
STARTCHAR 0038
ENCODING 56
SWIDTH 617 0
DWIDTH 6 0
BBX 5 7 1 0
BITMAP
F0
90
90
60
98
88
F0
ENDCHAR
STARTCHAR 0039
ENCODING 57
SWIDTH 617 0
DWIDTH 6 0
BBX 4 7 1 0
BITMAP
F0
90
90
F0
10
10
E0
ENDCHAR
STARTCHAR 003A
ENCODING 58
SWIDTH 308 0
DWIDTH 3 0
BBX 1 6 1 0
BITMAP
80
00
00
00
00
80
ENDCHAR
STARTCHAR 003B
ENCODING 59
SWIDTH 308 0
DWIDTH 3 0
BBX 1 7 1 -1
BITMAP
80
00
00
00
00
80
80
ENDCHAR
STARTCHAR 003C
ENCODING 60
SWIDTH 514 0
DWIDTH 5 0
BBX 4 10 1 -2
BITMAP
10
20
20
40
80
80
40
20
20
10
ENDCHAR
STARTCHAR 003D
ENCODING 61
SWIDTH 720 0
DWIDTH 7 0
BBX 5 3 1 2
BITMAP
F8
00
F8
ENDCHAR
STARTCHAR 003E
ENCODING 62
SWIDTH 514 0
DWIDTH 5 0
BBX 4 10 1 -2
BITMAP
80
80
40
20
10
10
20
40
80
80
ENDCHAR
STARTCHAR 003F
ENCODING 63
SWIDTH 514 0
DWIDTH 5 0
BBX 4 7 1 0
BITMAP
E0
10
10
20
40
00
40
ENDCHAR
STARTCHAR 0040
ENCODING 64
SWIDTH 925 0
DWIDTH 9 0
BBX 7 7 1 0
BITMAP
7C
86
BA
CA
CA
BE
78
ENDCHAR
STARTCHAR 0041
ENCODING 65
SWIDTH 720 0
DWIDTH 7 0
BBX 7 7 0 0
BITMAP
10
28
28
24
7C
42
82
ENDCHAR
STARTCHAR 0042
ENCODING 66
SWIDTH 617 0
DWIDTH 6 0
BBX 4 7 1 0
BITMAP
F0
90
90
E0
90
90
F0
ENDCHAR
STARTCHAR 0043
ENCODING 67
SWIDTH 720 0
DWIDTH 7 0
BBX 5 7 1 0
BITMAP
78
80
80
80
80
80
78
ENDCHAR
STARTCHAR 0044
ENCODING 68
SWIDTH 720 0
DWIDTH 7 0
BBX 6 7 1 0
BITMAP
F0
88
84
84
88
88
F0
ENDCHAR
STARTCHAR 0045
ENCODING 69
SWIDTH 617 0
DWIDTH 6 0
BBX 4 7 1 0
BITMAP
F0
80
80
F0
80
80
F0
ENDCHAR
STARTCHAR 0046
ENCODING 70
SWIDTH 514 0
DWIDTH 5 0
BBX 4 7 1 0
BITMAP
F0
80
80
F0
80
80
80
ENDCHAR
STARTCHAR 0047
ENCODING 71
SWIDTH 822 0
DWIDTH 8 0
BBX 6 7 1 0
BITMAP
7C
C0
80
9C
84
C4
3C
ENDCHAR
STARTCHAR 0048
ENCODING 72
SWIDTH 720 0
DWIDTH 7 0
BBX 5 7 1 0
BITMAP
88
88
88
F8
88
88
88
ENDCHAR
STARTCHAR 0049
ENCODING 73
SWIDTH 205 0
DWIDTH 2 0
BBX 1 7 1 0
BITMAP
80
80
80
80
80
80
80
ENDCHAR
STARTCHAR 004A
ENCODING 74
SWIDTH 411 0
DWIDTH 4 0
BBX 3 7 0 0
BITMAP
20
20
20
20
20
20
C0
ENDCHAR
STARTCHAR 004B
ENCODING 75
SWIDTH 617 0
DWIDTH 6 0
BBX 5 7 1 0
BITMAP
88
90
A0
E0
A0
90
88
ENDCHAR
STARTCHAR 004C
ENCODING 76
SWIDTH 514 0
DWIDTH 5 0
BBX 4 7 1 0
BITMAP
80
80
80
80
80
80
F0
ENDCHAR
STARTCHAR 004D
ENCODING 77
SWIDTH 1028 0
DWIDTH 10 0
BBX 8 7 1 0
BITMAP
83
C3
C5
A5
A9
99
91
ENDCHAR
STARTCHAR 004E
ENCODING 78
SWIDTH 720 0
DWIDTH 7 0
BBX 5 7 1 0
BITMAP
88
C8
A8
A8
98
98
88
ENDCHAR
STARTCHAR 004F
ENCODING 79
SWIDTH 822 0
DWIDTH 8 0
BBX 6 7 1 0
BITMAP
78
84
84
84
84
84
78
ENDCHAR
STARTCHAR 0050
ENCODING 80
SWIDTH 617 0
DWIDTH 6 0
BBX 4 7 1 0
BITMAP
F0
90
90
F0
80
80
80
ENDCHAR
STARTCHAR 0051
ENCODING 81
SWIDTH 822 0
DWIDTH 8 0
BBX 6 9 1 -2
BITMAP
78
8C
84
84
84
84
8C
78
08
ENDCHAR
STARTCHAR 0052
ENCODING 82
SWIDTH 617 0
DWIDTH 6 0
BBX 5 7 1 0
BITMAP
F0
90
90
F0
90
90
88
ENDCHAR
STARTCHAR 0053
ENCODING 83
SWIDTH 514 0
DWIDTH 5 0
BBX 4 7 1 0
BITMAP
F0
80
80
60
10
10
E0
ENDCHAR
STARTCHAR 0054
ENCODING 84
SWIDTH 514 0
DWIDTH 5 0
BBX 5 7 0 0
BITMAP
F8
20
20
20
20
20
20
ENDCHAR
STARTCHAR 0055
ENCODING 85
SWIDTH 720 0
DWIDTH 7 0
BBX 5 7 1 0
BITMAP
88
88
88
88
88
88
70
ENDCHAR
STARTCHAR 0056
ENCODING 86
SWIDTH 720 0
DWIDTH 7 0
BBX 6 7 0 0
BITMAP
80
44
44
48
28
30
10
ENDCHAR
STARTCHAR 0057
ENCODING 87
SWIDTH 1028 0
DWIDTH 10 0
BBX 10 7 0 0
BITMAP
8440
4C40
4A80
5280
5280
3280
2100
ENDCHAR
STARTCHAR 0058
ENCODING 88
SWIDTH 720 0
DWIDTH 7 0
BBX 6 7 0 0
BITMAP
44
28
28
10
28
44
84
ENDCHAR
STARTCHAR 0059
ENCODING 89
SWIDTH 720 0
DWIDTH 7 0
BBX 6 7 0 0
BITMAP
84
44
28
10
10
10
10
ENDCHAR
STARTCHAR 005A
ENCODING 90
SWIDTH 514 0
DWIDTH 5 0
BBX 5 7 0 0
BITMAP
F8
08
10
20
40
40
F8
ENDCHAR
STARTCHAR 005B
ENCODING 91
SWIDTH 411 0
DWIDTH 4 0
BBX 2 10 1 -2
BITMAP
C0
80
80
80
80
80
80
80
80
C0
ENDCHAR
STARTCHAR 005C
ENCODING 92
SWIDTH 1028 0
DWIDTH 10 0
BBX 8 7 1 0
BITMAP
91
9A
FF
6A
6A
64
24
ENDCHAR
STARTCHAR 005D
ENCODING 93
SWIDTH 411 0
DWIDTH 4 0
BBX 1 10 1 -2
BITMAP
80
80
80
80
80
80
80
80
80
80
ENDCHAR
STARTCHAR 005E
ENCODING 94
SWIDTH 720 0
DWIDTH 7 0
BBX 5 5 1 2
BITMAP
20
50
50
90
88
ENDCHAR
STARTCHAR 005F
ENCODING 95
SWIDTH 514 0
DWIDTH 5 0
BBX 5 1 0 -2
BITMAP
F8
ENDCHAR
STARTCHAR 0060
ENCODING 96
SWIDTH 205 0
DWIDTH 2 0
BBX 1 1 1 6
BITMAP
80
ENDCHAR
STARTCHAR 0061
ENCODING 97
SWIDTH 514 0
DWIDTH 5 0
BBX 4 5 1 0
BITMAP
E0
10
F0
90
F0
ENDCHAR
STARTCHAR 0062
ENCODING 98
SWIDTH 617 0
DWIDTH 6 0
BBX 5 8 1 0
BITMAP
80
80
F0
90
88
88
90
F0
ENDCHAR
STARTCHAR 0063
ENCODING 99
SWIDTH 514 0
DWIDTH 5 0
BBX 4 5 1 0
BITMAP
70
80
80
80
F0
ENDCHAR
STARTCHAR 0064
ENCODING 100
SWIDTH 617 0
DWIDTH 6 0
BBX 4 8 1 0
BITMAP
10
10
F0
90
90
90
90
70
ENDCHAR
STARTCHAR 0065
ENCODING 101
SWIDTH 514 0
DWIDTH 5 0
BBX 4 5 1 0
BITMAP
E0
90
F0
80
F0
ENDCHAR
STARTCHAR 0066
ENCODING 102
SWIDTH 411 0
DWIDTH 4 0
BBX 3 8 0 0
BITMAP
20
40
E0
40
40
40
40
40
ENDCHAR
STARTCHAR 0067
ENCODING 103
SWIDTH 617 0
DWIDTH 6 0
BBX 4 7 1 -2
BITMAP
F0
90
90
90
F0
10
E0
ENDCHAR
STARTCHAR 0068
ENCODING 104
SWIDTH 617 0
DWIDTH 6 0
BBX 4 8 1 0
BITMAP
80
80
F0
90
90
90
90
90
ENDCHAR
STARTCHAR 0069
ENCODING 105
SWIDTH 205 0
DWIDTH 2 0
BBX 1 8 1 0
BITMAP
80
00
80
80
80
80
80
80
ENDCHAR
STARTCHAR 006A
ENCODING 106
SWIDTH 308 0
DWIDTH 3 0
BBX 2 10 0 -2
BITMAP
40
00
00
40
40
40
40
40
40
C0
ENDCHAR
STARTCHAR 006B
ENCODING 107
SWIDTH 514 0
DWIDTH 5 0
BBX 4 8 1 0
BITMAP
80
80
80
A0
C0
C0
A0
90
ENDCHAR
STARTCHAR 006C
ENCODING 108
SWIDTH 205 0
DWIDTH 2 0
BBX 1 8 1 0
BITMAP
80
80
80
80
80
80
80
80
ENDCHAR
STARTCHAR 006D
ENCODING 109
SWIDTH 925 0
DWIDTH 9 0
BBX 7 5 1 0
BITMAP
EE
92
92
92
92
ENDCHAR
STARTCHAR 006E
ENCODING 110
SWIDTH 617 0
DWIDTH 6 0
BBX 4 5 1 0
BITMAP
F0
90
90
90
90
ENDCHAR
STARTCHAR 006F
ENCODING 111
SWIDTH 617 0
DWIDTH 6 0
BBX 5 5 1 0
BITMAP
F0
90
88
90
F0
ENDCHAR
STARTCHAR 0070
ENCODING 112
SWIDTH 617 0
DWIDTH 6 0
BBX 4 7 1 -2
BITMAP
70
90
90
90
90
E0
80
ENDCHAR
STARTCHAR 0071
ENCODING 113
SWIDTH 617 0
DWIDTH 6 0
BBX 4 7 1 -2
BITMAP
F0
90
90
90
90
70
10
ENDCHAR
STARTCHAR 0072
ENCODING 114
SWIDTH 411 0
DWIDTH 4 0
BBX 3 5 1 0
BITMAP
E0
80
80
80
80
ENDCHAR
STARTCHAR 0073
ENCODING 115
SWIDTH 411 0
DWIDTH 4 0
BBX 4 5 0 0
BITMAP
70
80
60
10
F0
ENDCHAR
STARTCHAR 0074
ENCODING 116
SWIDTH 411 0
DWIDTH 4 0
BBX 4 6 0 0
BITMAP
40
E0
40
40
40
30
ENDCHAR
STARTCHAR 0075
ENCODING 117
SWIDTH 617 0
DWIDTH 6 0
BBX 4 5 1 0
BITMAP
90
90
90
90
F0
ENDCHAR
STARTCHAR 0076
ENCODING 118
SWIDTH 514 0
DWIDTH 5 0
BBX 5 5 0 0
BITMAP
88
50
50
50
20
ENDCHAR
STARTCHAR 0077
ENCODING 119
SWIDTH 822 0
DWIDTH 8 0
BBX 8 5 0 0
BITMAP
89
59
55
66
22
ENDCHAR
STARTCHAR 0078
ENCODING 120
SWIDTH 514 0
DWIDTH 5 0
BBX 4 5 1 0
BITMAP
A0
A0
40
A0
90
ENDCHAR
STARTCHAR 0079
ENCODING 121
SWIDTH 514 0
DWIDTH 5 0
BBX 4 7 0 -2
BITMAP
90
50
50
60
20
20
C0
ENDCHAR
STARTCHAR 007A
ENCODING 122
SWIDTH 514 0
DWIDTH 5 0
BBX 5 5 0 0
BITMAP
78
10
20
40
F8
ENDCHAR
STARTCHAR 007B
ENCODING 123
SWIDTH 308 0
DWIDTH 3 0
BBX 2 10 1 -2
BITMAP
40
80
80
80
80
80
80
80
80
40
ENDCHAR
STARTCHAR 007C
ENCODING 124
SWIDTH 205 0
DWIDTH 2 0
BBX 1 10 1 -2
BITMAP
80
80
80
80
80
80
80
80
80
80
ENDCHAR
STARTCHAR 007D
ENCODING 125
SWIDTH 308 0
DWIDTH 3 0
BBX 2 10 0 -2
BITMAP
C0
40
40
40
40
40
40
40
40
C0
ENDCHAR
STARTCHAR 007E
ENCODING 126
SWIDTH 720 0
DWIDTH 7 0
BBX 5 2 1 2
BITMAP
08
F0
ENDCHAR
STARTCHAR 00A0
ENCODING 160
SWIDTH 308 0
DWIDTH 3 0
BBX 0 0 0 0
BITMAP
ENDCHAR
STARTCHAR 00A1
ENCODING 161
SWIDTH 308 0
DWIDTH 3 0
BBX 1 7 1 0
BITMAP
80
00
80
80
80
80
80
ENDCHAR
STARTCHAR 00A2
ENCODING 162
SWIDTH 925 0
DWIDTH 9 0
BBX 5 8 2 -1
BITMAP
08
70
88
90
A0
A8
78
40
ENDCHAR
STARTCHAR 00A3
ENCODING 163
SWIDTH 925 0
DWIDTH 9 0
BBX 5 7 2 0
BITMAP
30
48
40
F8
20
E8
D8
ENDCHAR
STARTCHAR 00A4
ENCODING 164
SWIDTH 822 0
DWIDTH 8 0
BBX 7 7 1 -1
BITMAP
FA
84
82
82
84
FC
02
ENDCHAR
STARTCHAR 00A5
ENCODING 165
SWIDTH 925 0
DWIDTH 9 0
BBX 5 7 2 0
BITMAP
88
88
50
F8
F8
20
20
ENDCHAR
STARTCHAR 00A7
ENCODING 167
SWIDTH 308 0
DWIDTH 3 0
BBX 3 8 0 -1
BITMAP
E0
80
40
A0
60
20
20
60
ENDCHAR
STARTCHAR 00A8
ENCODING 168
SWIDTH 514 0
DWIDTH 5 0
BBX 4 1 1 6
BITMAP
B0
ENDCHAR
STARTCHAR 00A9
ENCODING 169
SWIDTH 925 0
DWIDTH 9 0
BBX 8 7 0 0
BITMAP
3E
5D
A5
A1
A5
5D
3E
ENDCHAR
STARTCHAR 00AA
ENCODING 170
SWIDTH 514 0
DWIDTH 5 0
BBX 3 4 1 3
BITMAP
E0
60
A0
40
ENDCHAR
STARTCHAR 00AB
ENCODING 171
SWIDTH 925 0
DWIDTH 9 0
BBX 7 6 1 0
BITMAP
0A
3C
50
D0
3C
0A
ENDCHAR
STARTCHAR 00AC
ENCODING 172
SWIDTH 925 0
DWIDTH 9 0
BBX 8 2 1 -2
BITMAP
FE
01
ENDCHAR
STARTCHAR 00AD
ENCODING 173
SWIDTH 411 0
DWIDTH 4 0
BBX 3 1 1 2
BITMAP
E0
ENDCHAR
STARTCHAR 00AE
ENCODING 174
SWIDTH 925 0
DWIDTH 9 0
BBX 8 8 1 -1
BITMAP
7C
BA
A5
B9
A9
A9
42
3C
ENDCHAR
STARTCHAR 00B0
ENCODING 176
SWIDTH 411 0
DWIDTH 4 0
BBX 2 2 1 5
BITMAP
C0
C0
ENDCHAR
STARTCHAR 00B1
ENCODING 177
SWIDTH 617 0
DWIDTH 6 0
BBX 5 6 0 0
BITMAP
20
20
F8
20
20
F8
ENDCHAR
STARTCHAR 00B2
ENCODING 178
SWIDTH 411 0
DWIDTH 4 0
BBX 2 2 1 5
BITMAP
C0
80
ENDCHAR
STARTCHAR 00B3
ENCODING 179
SWIDTH 411 0
DWIDTH 4 0
BBX 2 2 1 5
BITMAP
40
C0
ENDCHAR
STARTCHAR 00B4
ENCODING 180
SWIDTH 308 0
DWIDTH 3 0
BBX 1 1 1 5
BITMAP
80
ENDCHAR
STARTCHAR 00B6
ENCODING 182
SWIDTH 617 0
DWIDTH 6 0
BBX 4 8 1 -1
BITMAP
F0
D0
D0
50
30
30
30
30
ENDCHAR
STARTCHAR 00B7
ENCODING 183
SWIDTH 308 0
DWIDTH 3 0
BBX 1 1 1 3
BITMAP
80
ENDCHAR
STARTCHAR 00B8
ENCODING 184
SWIDTH 308 0
DWIDTH 3 0
BBX 2 2 1 -2
BITMAP
80
40
ENDCHAR
STARTCHAR 00B9
ENCODING 185
SWIDTH 411 0
DWIDTH 4 0
BBX 0 0 1 5
BITMAP
ENDCHAR
STARTCHAR 00BA
ENCODING 186
SWIDTH 514 0
DWIDTH 5 0
BBX 3 4 1 3
BITMAP
E0
A0
A0
40
ENDCHAR
STARTCHAR 00BB
ENCODING 187
SWIDTH 925 0
DWIDTH 9 0
BBX 7 6 1 0
BITMAP
D0
2C
1A
1A
2C
D0
ENDCHAR
STARTCHAR 00BC
ENCODING 188
SWIDTH 720 0
DWIDTH 7 0
BBX 6 8 1 -1
BITMAP
80
44
48
10
28
48
98
08
ENDCHAR
STARTCHAR 00BD
ENCODING 189
SWIDTH 720 0
DWIDTH 7 0
BBX 5 8 1 -1
BITMAP
80
88
90
20
48
58
88
10
ENDCHAR
STARTCHAR 00BE
ENCODING 190
SWIDTH 720 0
DWIDTH 7 0
BBX 6 7 1 -1
BITMAP
40
44
48
10
20
48
98
ENDCHAR
STARTCHAR 00BF
ENCODING 191
SWIDTH 514 0
DWIDTH 5 0
BBX 3 7 1 0
BITMAP
20
00
40
40
80
80
E0
ENDCHAR
STARTCHAR 00C0
ENCODING 192
SWIDTH 720 0
DWIDTH 7 0
BBX 6 8 0 0
BITMAP
20
00
30
28
28
48
74
84
ENDCHAR
STARTCHAR 00C1
ENCODING 193
SWIDTH 720 0
DWIDTH 7 0
BBX 6 8 0 0
BITMAP
10
00
30
28
28
48
74
84
ENDCHAR
STARTCHAR 00C2
ENCODING 194
SWIDTH 720 0
DWIDTH 7 0
BBX 6 8 0 0
BITMAP
30
00
30
28
28
48
74
84
ENDCHAR
STARTCHAR 00C6
ENCODING 198
SWIDTH 822 0
DWIDTH 8 0
BBX 7 6 1 0
BITMAP
7E
50
9E
F0
90
9E
ENDCHAR
STARTCHAR 00C7
ENCODING 199
SWIDTH 617 0
DWIDTH 6 0
BBX 5 8 0 -2
BITMAP
78
40
80
80
40
68
10
10
ENDCHAR
STARTCHAR 00C8
ENCODING 200
SWIDTH 514 0
DWIDTH 5 0
BBX 4 8 1 0
BITMAP
40
00
E0
80
E0
80
80
F0
ENDCHAR
STARTCHAR 00C9
ENCODING 201
SWIDTH 514 0
DWIDTH 5 0
BBX 3 8 1 0
BITMAP
20
00
E0
80
E0
80
80
E0
ENDCHAR
STARTCHAR 00CA
ENCODING 202
SWIDTH 514 0
DWIDTH 5 0
BBX 4 8 1 0
BITMAP
40
00
E0
80
E0
80
80
F0
ENDCHAR
STARTCHAR 00CB
ENCODING 203
SWIDTH 514 0
DWIDTH 5 0
BBX 4 8 1 0
BITMAP
A0
E0
80
80
E0
80
80
F0
ENDCHAR
STARTCHAR 00CD
ENCODING 205
SWIDTH 411 0
DWIDTH 4 0
BBX 1 8 2 0
BITMAP
80
00
80
80
80
80
80
80
ENDCHAR
STARTCHAR 00CE
ENCODING 206
SWIDTH 411 0
DWIDTH 4 0
BBX 2 8 1 0
BITMAP
C0
00
80
80
80
80
80
80
ENDCHAR
STARTCHAR 00CF
ENCODING 207
SWIDTH 411 0
DWIDTH 4 0
BBX 2 8 1 0
BITMAP
40
00
80
80
80
80
80
80
ENDCHAR
STARTCHAR 00D0
ENCODING 208
SWIDTH 822 0
DWIDTH 8 0
BBX 6 7 1 0
BITMAP
78
44
44
E4
44
44
78
ENDCHAR
STARTCHAR 00D1
ENCODING 209
SWIDTH 720 0
DWIDTH 7 0
BBX 5 8 1 0
BITMAP
70
00
88
C8
A8
A8
98
88
ENDCHAR
STARTCHAR 00D3
ENCODING 211
SWIDTH 720 0
DWIDTH 7 0
BBX 6 9 1 -1
BITMAP
20
20
D8
88
84
84
88
88
70
ENDCHAR
STARTCHAR 00D4
ENCODING 212
SWIDTH 720 0
DWIDTH 7 0
BBX 6 9 1 -1
BITMAP
20
20
D8
88
84
84
88
88
70
ENDCHAR
STARTCHAR 00D7
ENCODING 215
SWIDTH 617 0
DWIDTH 6 0
BBX 4 5 1 1
BITMAP
90
90
60
60
90
ENDCHAR
STARTCHAR 00D8
ENCODING 216
SWIDTH 822 0
DWIDTH 8 0
BBX 6 8 1 -1
BITMAP
70
88
94
94
A4
A4
48
30
ENDCHAR
STARTCHAR 00D9
ENCODING 217
SWIDTH 617 0
DWIDTH 6 0
BBX 5 9 1 -1
BITMAP
40
00
08
08
08
08
88
98
60
ENDCHAR
STARTCHAR 00DA
ENCODING 218
SWIDTH 617 0
DWIDTH 6 0
BBX 5 9 1 -1
BITMAP
20
00
08
08
08
08
88
98
60
ENDCHAR
STARTCHAR 00DB
ENCODING 219
SWIDTH 617 0
DWIDTH 6 0
BBX 5 9 1 -1
BITMAP
60
00
08
08
08
08
88
98
60
ENDCHAR
STARTCHAR 00DC
ENCODING 220
SWIDTH 617 0
DWIDTH 6 0
BBX 5 9 1 -1
BITMAP
50
00
08
08
08
08
88
98
60
ENDCHAR
STARTCHAR 00DE
ENCODING 222
SWIDTH 514 0
DWIDTH 5 0
BBX 3 6 1 1
BITMAP
C0
A0
A0
A0
E0
80
ENDCHAR
STARTCHAR 00DF
ENCODING 223
SWIDTH 720 0
DWIDTH 7 0
BBX 5 8 1 -1
BITMAP
70
88
88
F0
88
88
C8
30
ENDCHAR
STARTCHAR 00E0
ENCODING 224
SWIDTH 514 0
DWIDTH 5 0
BBX 4 8 1 -1
BITMAP
40
00
E0
10
F0
90
B0
40
ENDCHAR
STARTCHAR 00E1
ENCODING 225
SWIDTH 514 0
DWIDTH 5 0
BBX 4 8 1 -1
BITMAP
20
00
E0
10
F0
90
B0
40
ENDCHAR
STARTCHAR 00E2
ENCODING 226
SWIDTH 514 0
DWIDTH 5 0
BBX 4 8 1 -1
BITMAP
60
00
E0
10
F0
90
B0
40
ENDCHAR
STARTCHAR 00E4
ENCODING 228
SWIDTH 514 0
DWIDTH 5 0
BBX 4 8 1 -1
BITMAP
A0
00
E0
10
F0
90
B0
40
ENDCHAR
STARTCHAR 00E6
ENCODING 230
SWIDTH 925 0
DWIDTH 9 0
BBX 8 6 1 -1
BITMAP
EE
11
FF
90
90
6E
ENDCHAR
STARTCHAR 00E7
ENCODING 231
SWIDTH 514 0
DWIDTH 5 0
BBX 3 7 1 -2
BITMAP
E0
80
80
80
C0
20
60
ENDCHAR
STARTCHAR 00E8
ENCODING 232
SWIDTH 514 0
DWIDTH 5 0
BBX 4 8 1 -1
BITMAP
40
00
E0
90
F0
80
80
60
ENDCHAR
STARTCHAR 00E9
ENCODING 233
SWIDTH 514 0
DWIDTH 5 0
BBX 4 8 1 -1
BITMAP
20
00
E0
90
F0
80
80
60
ENDCHAR
STARTCHAR 00EA
ENCODING 234
SWIDTH 514 0
DWIDTH 5 0
BBX 4 8 1 -1
BITMAP
60
00
E0
90
F0
80
80
60
ENDCHAR
STARTCHAR 00EB
ENCODING 235
SWIDTH 514 0
DWIDTH 5 0
BBX 4 8 1 -1
BITMAP
A0
00
E0
90
F0
80
80
60
ENDCHAR
STARTCHAR 00ED
ENCODING 237
SWIDTH 411 0
DWIDTH 4 0
BBX 1 1 2 0
BITMAP
80
ENDCHAR
STARTCHAR 00EE
ENCODING 238
SWIDTH 411 0
DWIDTH 4 0
BBX 2 7 1 0
BITMAP
C0
00
00
80
80
80
80
ENDCHAR
STARTCHAR 00EF
ENCODING 239
SWIDTH 411 0
DWIDTH 4 0
BBX 1 4 1 3
BITMAP
80
80
80
80
ENDCHAR
STARTCHAR 00F0
ENCODING 240
SWIDTH 617 0
DWIDTH 6 0
BBX 4 8 1 -1
BITMAP
20
10
70
90
90
90
90
60
ENDCHAR
STARTCHAR 00F1
ENCODING 241
SWIDTH 617 0
DWIDTH 6 0
BBX 4 7 1 0
BITMAP
70
00
F0
90
90
90
90
ENDCHAR
STARTCHAR 00F3
ENCODING 243
SWIDTH 617 0
DWIDTH 6 0
BBX 5 8 1 -1
BITMAP
20
00
F0
88
88
88
90
60
ENDCHAR
STARTCHAR 00F4
ENCODING 244
SWIDTH 617 0
DWIDTH 6 0
BBX 5 8 1 -1
BITMAP
60
00
F0
88
88
88
90
60
ENDCHAR
STARTCHAR 00F6
ENCODING 246
SWIDTH 617 0
DWIDTH 6 0
BBX 5 6 1 1
BITMAP
F0
88
88
88
90
60
ENDCHAR
STARTCHAR 00F7
ENCODING 247
SWIDTH 720 0
DWIDTH 7 0
BBX 6 5 0 1
BITMAP
10
00
FC
00
10
ENDCHAR
STARTCHAR 00F8
ENCODING 248
SWIDTH 617 0
DWIDTH 6 0
BBX 4 6 1 0
BITMAP
60
B0
B0
D0
D0
20
ENDCHAR
STARTCHAR 00F9
ENCODING 249
SWIDTH 617 0
DWIDTH 6 0
BBX 4 8 1 -1
BITMAP
40
00
10
90
90
90
90
60
ENDCHAR
STARTCHAR 00FA
ENCODING 250
SWIDTH 617 0
DWIDTH 6 0
BBX 4 8 1 -1
BITMAP
40
00
10
90
90
90
90
60
ENDCHAR
STARTCHAR 00FB
ENCODING 251
SWIDTH 617 0
DWIDTH 6 0
BBX 4 8 1 -1
BITMAP
60
00
10
90
90
90
90
60
ENDCHAR
STARTCHAR 00FC
ENCODING 252
SWIDTH 617 0
DWIDTH 6 0
BBX 4 8 1 -1
BITMAP
A0
00
10
90
90
90
90
60
ENDCHAR
STARTCHAR 00FE
ENCODING 254
SWIDTH 617 0
DWIDTH 6 0
BBX 4 8 1 -1
BITMAP
80
80
E0
90
90
90
90
E0
ENDCHAR
STARTCHAR 0111
ENCODING 273
SWIDTH 720 0
DWIDTH 7 0
BBX 5 7 1 0
BITMAP
18
F0
90
90
90
90
60
ENDCHAR
STARTCHAR 0126
ENCODING 294
SWIDTH 822 0
DWIDTH 8 0
BBX 6 7 1 0
BITMAP
84
FC
84
FC
84
84
84
ENDCHAR
STARTCHAR 0127
ENCODING 295
SWIDTH 720 0
DWIDTH 7 0
BBX 5 7 0 0
BITMAP
40
F0
78
48
48
48
48
ENDCHAR
STARTCHAR 0131
ENCODING 305
SWIDTH 308 0
DWIDTH 3 0
BBX 1 5 1 0
BITMAP
80
80
80
80
80
ENDCHAR
STARTCHAR 0132
ENCODING 306
SWIDTH 720 0
DWIDTH 7 0
BBX 5 8 1 -1
BITMAP
08
88
88
88
88
C8
C8
30
ENDCHAR
STARTCHAR 0133
ENCODING 307
SWIDTH 514 0
DWIDTH 5 0
BBX 3 9 1 -2
BITMAP
A0
00
A0
A0
A0
A0
A0
20
60
ENDCHAR
STARTCHAR 0138
ENCODING 312
SWIDTH 617 0
DWIDTH 6 0
BBX 4 5 1 0
BITMAP
10
A0
C0
A0
90
ENDCHAR
STARTCHAR 013F
ENCODING 319
SWIDTH 617 0
DWIDTH 6 0
BBX 4 6 1 1
BITMAP
80
80
A0
80
80
F0
ENDCHAR
STARTCHAR 0140
ENCODING 320
SWIDTH 411 0
DWIDTH 4 0
BBX 2 6 1 1
BITMAP
80
80
C0
80
80
80
ENDCHAR
STARTCHAR 0141
ENCODING 321
SWIDTH 822 0
DWIDTH 8 0
BBX 5 7 1 0
BITMAP
40
40
60
40
40
C0
78
ENDCHAR
STARTCHAR 0142
ENCODING 322
SWIDTH 514 0
DWIDTH 5 0
BBX 3 7 1 0
BITMAP
40
40
60
40
C0
40
40
ENDCHAR
STARTCHAR 0149
ENCODING 329
SWIDTH 720 0
DWIDTH 7 0
BBX 5 6 1 0
BITMAP
80
F8
48
48
48
48
ENDCHAR
STARTCHAR 014A
ENCODING 330
SWIDTH 720 0
DWIDTH 7 0
BBX 5 9 1 -2
BITMAP
80
88
C8
A8
A8
98
88
28
38
ENDCHAR
STARTCHAR 014B
ENCODING 331
SWIDTH 617 0
DWIDTH 6 0
BBX 4 7 1 -2
BITMAP
F0
90
90
90
90
10
70
ENDCHAR
STARTCHAR 0152
ENCODING 338
SWIDTH 925 0
DWIDTH 9 0
BBX 7 6 1 0
BITMAP
7E
90
9E
90
90
FE
ENDCHAR
STARTCHAR 0153
ENCODING 339
SWIDTH 925 0
DWIDTH 9 0
BBX 9 6 0 -1
BITMAP
7300
8C80
8480
8780
8C00
7780
ENDCHAR
STARTCHAR 0166
ENCODING 358
SWIDTH 617 0
DWIDTH 6 0
BBX 5 7 1 0
BITMAP
F8
20
20
20
20
20
20
ENDCHAR
STARTCHAR 0167
ENCODING 359
SWIDTH 411 0
DWIDTH 4 0
BBX 2 6 1 0
BITMAP
40
C0
40
40
40
40
ENDCHAR
STARTCHAR 02BC
ENCODING 700
SWIDTH 205 0
DWIDTH 2 0
BBX 1 2 1 5
BITMAP
80
80
ENDCHAR
STARTCHAR 02C7
ENCODING 711
SWIDTH 514 0
DWIDTH 5 0
BBX 3 1 1 6
BITMAP
E0
ENDCHAR
STARTCHAR 02D0
ENCODING 720
SWIDTH 925 0
DWIDTH 9 0
BBX 1 4 4 1
BITMAP
80
00
00
80
ENDCHAR
STARTCHAR 02D8
ENCODING 728
SWIDTH 514 0
DWIDTH 5 0
BBX 3 1 1 6
BITMAP
E0
ENDCHAR
STARTCHAR 02D9
ENCODING 729
SWIDTH 308 0
DWIDTH 3 0
BBX 1 1 1 5
BITMAP
80
ENDCHAR
STARTCHAR 02DA
ENCODING 730
SWIDTH 308 0
DWIDTH 3 0
BBX 2 2 1 5
BITMAP
C0
80
ENDCHAR
STARTCHAR 02DB
ENCODING 731
SWIDTH 308 0
DWIDTH 3 0
BBX 1 1 1 -1
BITMAP
80
ENDCHAR
STARTCHAR 02DC
ENCODING 732
SWIDTH 925 0
DWIDTH 9 0
BBX 4 1 3 7
BITMAP
F0
ENDCHAR
STARTCHAR 02DD
ENCODING 733
SWIDTH 514 0
DWIDTH 5 0
BBX 3 2 1 5
BITMAP
A0
40
ENDCHAR
STARTCHAR 0391
ENCODING 913
SWIDTH 720 0
DWIDTH 7 0
BBX 5 7 1 0
BITMAP
20
20
50
50
F8
88
88
ENDCHAR
STARTCHAR 0392
ENCODING 914
SWIDTH 720 0
DWIDTH 7 0
BBX 5 7 1 0
BITMAP
F0
88
88
F0
88
88
F8
ENDCHAR
STARTCHAR 0393
ENCODING 915
SWIDTH 617 0
DWIDTH 6 0
BBX 4 7 1 0
BITMAP
F0
80
80
80
80
80
80
ENDCHAR
STARTCHAR 0394
ENCODING 916
SWIDTH 720 0
DWIDTH 7 0
BBX 6 7 1 0
BITMAP
20
20
50
50
48
88
FC
ENDCHAR
STARTCHAR 0395
ENCODING 917
SWIDTH 617 0
DWIDTH 6 0
BBX 4 7 1 0
BITMAP
F0
80
80
F0
80
80
F0
ENDCHAR
STARTCHAR 0396
ENCODING 918
SWIDTH 720 0
DWIDTH 7 0
BBX 5 7 1 0
BITMAP
F8
10
10
20
40
80
F0
ENDCHAR
STARTCHAR 0397
ENCODING 919
SWIDTH 720 0
DWIDTH 7 0
BBX 5 7 1 0
BITMAP
08
88
88
F8
88
88
88
ENDCHAR
STARTCHAR 0398
ENCODING 920
SWIDTH 822 0
DWIDTH 8 0
BBX 6 8 1 -1
BITMAP
70
88
84
F4
84
84
C8
30
ENDCHAR
STARTCHAR 0399
ENCODING 921
SWIDTH 205 0
DWIDTH 2 0
BBX 1 7 1 0
BITMAP
80
80
80
80
80
80
80
ENDCHAR
STARTCHAR 039A
ENCODING 922
SWIDTH 720 0
DWIDTH 7 0
BBX 5 7 1 0
BITMAP
08
90
A0
C0
A0
90
88
ENDCHAR
STARTCHAR 039B
ENCODING 923
SWIDTH 720 0
DWIDTH 7 0
BBX 5 7 1 0
BITMAP
20
20
50
50
88
88
88
ENDCHAR
STARTCHAR 039C
ENCODING 924
SWIDTH 822 0
DWIDTH 8 0
BBX 6 7 1 0
BITMAP
84
84
CC
CC
CC
B4
B4
ENDCHAR
STARTCHAR 039D
ENCODING 925
SWIDTH 720 0
DWIDTH 7 0
BBX 5 7 1 0
BITMAP
88
88
C8
A8
A8
98
88
ENDCHAR
STARTCHAR 039E
ENCODING 926
SWIDTH 720 0
DWIDTH 7 0
BBX 5 7 1 0
BITMAP
F8
00
00
70
00
00
78
ENDCHAR
STARTCHAR 039F
ENCODING 927
SWIDTH 822 0
DWIDTH 8 0
BBX 6 8 1 -1
BITMAP
70
88
84
84
84
84
C8
30
ENDCHAR
STARTCHAR 03A0
ENCODING 928
SWIDTH 617 0
DWIDTH 6 0
BBX 5 7 1 0
BITMAP
F8
88
88
88
88
88
88
ENDCHAR
STARTCHAR 03A1
ENCODING 929
SWIDTH 617 0
DWIDTH 6 0
BBX 5 7 1 0
BITMAP
F0
88
88
90
E0
80
80
ENDCHAR
STARTCHAR 03A3
ENCODING 931
SWIDTH 617 0
DWIDTH 6 0
BBX 4 7 1 0
BITMAP
F0
80
40
20
40
80
F0
ENDCHAR
STARTCHAR 03A4
ENCODING 932
SWIDTH 617 0
DWIDTH 6 0
BBX 5 7 1 0
BITMAP
F8
20
20
20
20
20
20
ENDCHAR
STARTCHAR 03A5
ENCODING 933
SWIDTH 720 0
DWIDTH 7 0
BBX 5 6 1 1
BITMAP
88
50
50
20
20
20
ENDCHAR
STARTCHAR 03A6
ENCODING 934
SWIDTH 822 0
DWIDTH 8 0
BBX 7 7 0 0
BITMAP
10
3C
52
92
92
7C
10
ENDCHAR
STARTCHAR 03A7
ENCODING 935
SWIDTH 720 0
DWIDTH 7 0
BBX 5 7 1 0
BITMAP
88
90
50
20
60
50
88
ENDCHAR
STARTCHAR 03A8
ENCODING 936
SWIDTH 822 0
DWIDTH 8 0
BBX 6 6 1 1
BITMAP
A4
A4
A4
68
30
20
ENDCHAR
STARTCHAR 03A9
ENCODING 937
SWIDTH 720 0
DWIDTH 7 0
BBX 5 7 1 0
BITMAP
70
88
88
88
88
50
D8
ENDCHAR
STARTCHAR 03B1
ENCODING 945
SWIDTH 514 0
DWIDTH 5 0
BBX 4 6 0 -1
BITMAP
60
90
90
90
90
60
ENDCHAR
STARTCHAR 03B2
ENCODING 946
SWIDTH 514 0
DWIDTH 5 0
BBX 4 9 0 -2
BITMAP
60
90
90
B0
90
90
90
E0
80
ENDCHAR
STARTCHAR 03B3
ENCODING 947
SWIDTH 514 0
DWIDTH 5 0
BBX 4 7 0 -2
BITMAP
80
50
20
20
50
90
60
ENDCHAR
STARTCHAR 03B4
ENCODING 948
SWIDTH 411 0
DWIDTH 4 0
BBX 4 8 0 -1
BITMAP
60
40
40
70
90
90
90
60
ENDCHAR
STARTCHAR 03B5
ENCODING 949
SWIDTH 411 0
DWIDTH 4 0
BBX 4 6 0 -1
BITMAP
70
80
60
80
90
60
ENDCHAR
STARTCHAR 03B6
ENCODING 950
SWIDTH 514 0
DWIDTH 5 0
BBX 4 9 0 -2
BITMAP
60
20
40
40
80
80
60
10
30
ENDCHAR
STARTCHAR 03B7
ENCODING 951
SWIDTH 514 0
DWIDTH 5 0
BBX 4 6 0 -1
BITMAP
E0
90
90
90
90
10
ENDCHAR
STARTCHAR 03B8
ENCODING 952
SWIDTH 411 0
DWIDTH 4 0
BBX 4 8 0 -1
BITMAP
60
90
90
F0
90
90
90
60
ENDCHAR
STARTCHAR 03B9
ENCODING 953
SWIDTH 411 0
DWIDTH 4 0
BBX 2 6 1 -1
BITMAP
80
80
80
80
80
40
ENDCHAR
STARTCHAR 03BA
ENCODING 954
SWIDTH 514 0
DWIDTH 5 0
BBX 4 5 0 0
BITMAP
90
A0
E0
A0
90
ENDCHAR
STARTCHAR 03BB
ENCODING 955
SWIDTH 411 0
DWIDTH 4 0
BBX 4 8 0 -1
BITMAP
80
40
40
40
40
60
A0
10
ENDCHAR
STARTCHAR 03BC
ENCODING 956
SWIDTH 514 0
DWIDTH 5 0
BBX 4 7 0 -2
BITMAP
80
90
90
90
90
E0
80
ENDCHAR
STARTCHAR 03BD
ENCODING 957
SWIDTH 514 0
DWIDTH 5 0
BBX 4 5 0 0
BITMAP
80
50
50
50
20
ENDCHAR
STARTCHAR 03BE
ENCODING 958
SWIDTH 411 0
DWIDTH 4 0
BBX 4 9 0 -2
BITMAP
60
40
40
60
80
80
60
10
30
ENDCHAR
STARTCHAR 03BF
ENCODING 959
SWIDTH 514 0
DWIDTH 5 0
BBX 4 6 0 -1
BITMAP
60
90
90
90
90
60
ENDCHAR
STARTCHAR 03C0
ENCODING 960
SWIDTH 514 0
DWIDTH 5 0
BBX 4 6 0 -1
BITMAP
F0
60
60
60
70
90
ENDCHAR
STARTCHAR 03C1
ENCODING 961
SWIDTH 514 0
DWIDTH 5 0
BBX 4 7 0 -2
BITMAP
60
90
90
90
90
E0
80
ENDCHAR
STARTCHAR 03C3
ENCODING 963
SWIDTH 514 0
DWIDTH 5 0
BBX 4 6 0 -1
BITMAP
70
90
90
90
90
60
ENDCHAR
STARTCHAR 03C4
ENCODING 964
SWIDTH 411 0
DWIDTH 4 0
BBX 4 6 0 -1
BITMAP
F0
40
40
40
50
20
ENDCHAR
STARTCHAR 03C5
ENCODING 965
SWIDTH 411 0
DWIDTH 4 0
BBX 4 6 0 -1
BITMAP
90
90
90
90
90
60
ENDCHAR
STARTCHAR 03C6
ENCODING 966
SWIDTH 514 0
DWIDTH 5 0
BBX 4 9 0 -2
BITMAP
20
20
60
B0
B0
B0
B0
60
20
ENDCHAR
STARTCHAR 03C7
ENCODING 967
SWIDTH 411 0
DWIDTH 4 0
BBX 4 7 0 -2
BITMAP
C0
50
20
20
60
60
90
ENDCHAR
STARTCHAR 03C8
ENCODING 968
SWIDTH 411 0
DWIDTH 4 0
BBX 4 7 0 -2
BITMAP
B0
B0
B0
B0
B0
60
20
ENDCHAR
STARTCHAR 03C9
ENCODING 969
SWIDTH 411 0
DWIDTH 4 0
BBX 4 6 0 -1
BITMAP
10
90
B0
B0
B0
50
ENDCHAR
STARTCHAR 0401
ENCODING 1025
SWIDTH 617 0
DWIDTH 6 0
BBX 5 8 1 0
BITMAP
40
F8
80
80
F0
80
80
F0
ENDCHAR
STARTCHAR 0410
ENCODING 1040
SWIDTH 720 0
DWIDTH 7 0
BBX 6 7 1 0
BITMAP
20
30
50
50
78
88
84
ENDCHAR
STARTCHAR 0411
ENCODING 1041
SWIDTH 720 0
DWIDTH 7 0
BBX 5 7 1 0
BITMAP
F8
80
80
F0
88
88
F8
ENDCHAR
STARTCHAR 0412
ENCODING 1042
SWIDTH 720 0
DWIDTH 7 0
BBX 5 7 1 0
BITMAP
F0
88
88
F0
88
88
F8
ENDCHAR
STARTCHAR 0413
ENCODING 1043
SWIDTH 617 0
DWIDTH 6 0
BBX 4 7 1 0
BITMAP
F0
80
80
80
80
80
80
ENDCHAR
STARTCHAR 0414
ENCODING 1044
SWIDTH 822 0
DWIDTH 8 0
BBX 7 9 1 -2
BITMAP
3C
44
44
44
44
44
84
FC
02
ENDCHAR
STARTCHAR 0415
ENCODING 1045
SWIDTH 617 0
DWIDTH 6 0
BBX 4 7 1 0
BITMAP
F0
80
80
F0
80
80
F0
ENDCHAR
STARTCHAR 0416
ENCODING 1046
SWIDTH 925 0
DWIDTH 9 0
BBX 8 8 0 -1
BITMAP
C9
2A
2C
1C
2C
2C
2A
C1
ENDCHAR
STARTCHAR 0417
ENCODING 1047
SWIDTH 617 0
DWIDTH 6 0
BBX 4 7 1 0
BITMAP
60
90
10
20
10
10
F0
ENDCHAR
STARTCHAR 0418
ENCODING 1048
SWIDTH 720 0
DWIDTH 7 0
BBX 5 6 1 1
BITMAP
88
98
A8
C8
C8
88
ENDCHAR
STARTCHAR 0419
ENCODING 1049
SWIDTH 720 0
DWIDTH 7 0
BBX 5 8 1 0
BITMAP
70
00
88
98
A8
C8
C8
88
ENDCHAR
STARTCHAR 041A
ENCODING 1050
SWIDTH 720 0
DWIDTH 7 0
BBX 5 7 1 0
BITMAP
08
90
A0
C0
A0
90
88
ENDCHAR
STARTCHAR 041B
ENCODING 1051
SWIDTH 720 0
DWIDTH 7 0
BBX 5 7 1 -1
BITMAP
78
48
48
48
48
48
88
ENDCHAR
STARTCHAR 041C
ENCODING 1052
SWIDTH 822 0
DWIDTH 8 0
BBX 6 7 1 0
BITMAP
84
84
CC
CC
CC
B4
B4
ENDCHAR
STARTCHAR 041D
ENCODING 1053
SWIDTH 720 0
DWIDTH 7 0
BBX 5 7 1 0
BITMAP
08
88
88
F8
88
88
88
ENDCHAR
STARTCHAR 041E
ENCODING 1054
SWIDTH 822 0
DWIDTH 8 0
BBX 6 8 1 -1
BITMAP
70
88
84
84
84
84
C8
30
ENDCHAR
STARTCHAR 041F
ENCODING 1055
SWIDTH 617 0
DWIDTH 6 0
BBX 5 7 1 0
BITMAP
F8
88
88
88
88
88
88
ENDCHAR
STARTCHAR 0420
ENCODING 1056
SWIDTH 617 0
DWIDTH 6 0
BBX 5 7 1 0
BITMAP
F0
88
88
90
E0
80
80
ENDCHAR
STARTCHAR 0421
ENCODING 1057
SWIDTH 720 0
DWIDTH 7 0
BBX 6 8 1 -1
BITMAP
70
88
80
80
80
84
C8
30
ENDCHAR
STARTCHAR 0422
ENCODING 1058
SWIDTH 720 0
DWIDTH 7 0
BBX 5 7 1 0
BITMAP
F8
20
20
20
20
20
20
ENDCHAR
STARTCHAR 0423
ENCODING 1059
SWIDTH 617 0
DWIDTH 6 0
BBX 4 7 1 0
BITMAP
10
90
A0
60
60
40
40
ENDCHAR
STARTCHAR 0424
ENCODING 1060
SWIDTH 720 0
DWIDTH 7 0
BBX 6 7 1 0
BITMAP
20
70
AC
A4
A4
E8
30
ENDCHAR
STARTCHAR 0425
ENCODING 1061
SWIDTH 720 0
DWIDTH 7 0
BBX 5 7 1 0
BITMAP
88
88
50
20
50
50
88
ENDCHAR
STARTCHAR 0426
ENCODING 1062
SWIDTH 822 0
DWIDTH 8 0
BBX 6 9 1 -2
BITMAP
88
88
88
88
88
88
88
74
04
ENDCHAR
STARTCHAR 0427
ENCODING 1063
SWIDTH 617 0
DWIDTH 6 0
BBX 4 7 1 0
BITMAP
10
90
90
90
90
70
10
ENDCHAR
STARTCHAR 0428
ENCODING 1064
SWIDTH 822 0
DWIDTH 8 0
BBX 6 7 1 0
BITMAP
84
A4
A4
A4
A4
A4
FC
ENDCHAR
STARTCHAR 0429
ENCODING 1065
SWIDTH 822 0
DWIDTH 8 0
BBX 7 9 1 -2
BITMAP
24
A4
A4
A4
A4
A4
A4
5A
02
ENDCHAR
STARTCHAR 042A
ENCODING 1066
SWIDTH 720 0
DWIDTH 7 0
BBX 7 7 0 0
BITMAP
E0
20
20
3C
22
22
3E
ENDCHAR
STARTCHAR 042B
ENCODING 1067
SWIDTH 822 0
DWIDTH 8 0
BBX 6 7 1 0
BITMAP
04
84
84
F4
8C
8C
F4
ENDCHAR
STARTCHAR 042C
ENCODING 1068
SWIDTH 720 0
DWIDTH 7 0
BBX 5 6 1 1
BITMAP
80
80
F0
88
88
F8
ENDCHAR
STARTCHAR 042D
ENCODING 1069
SWIDTH 720 0
DWIDTH 7 0
BBX 6 8 1 -1
BITMAP
70
88
04
7C
04
84
88
70
ENDCHAR
STARTCHAR 042E
ENCODING 1070
SWIDTH 822 0
DWIDTH 8 0
BBX 7 8 1 -1
BITMAP
1C
A4
A2
C2
A2
A2
A4
18
ENDCHAR
STARTCHAR 042F
ENCODING 1071
SWIDTH 720 0
DWIDTH 7 0
BBX 5 7 1 0
BITMAP
78
88
88
F8
88
88
88
ENDCHAR
STARTCHAR 0430
ENCODING 1072
SWIDTH 617 0
DWIDTH 6 0
BBX 4 6 1 -1
BITMAP
70
90
70
90
90
60
ENDCHAR
STARTCHAR 0431
ENCODING 1073
SWIDTH 617 0
DWIDTH 6 0
BBX 4 8 1 -1
BITMAP
10
60
E0
90
90
90
90
60
ENDCHAR
STARTCHAR 0432
ENCODING 1074
SWIDTH 617 0
DWIDTH 6 0
BBX 5 5 1 0
BITMAP
F0
88
F0
88
F8
ENDCHAR
STARTCHAR 0433
ENCODING 1075
SWIDTH 514 0
DWIDTH 5 0
BBX 4 5 1 0
BITMAP
F0
80
80
80
80
ENDCHAR
STARTCHAR 0434
ENCODING 1076
SWIDTH 720 0
DWIDTH 7 0
BBX 7 7 0 -2
BITMAP
3C
24
24
24
44
BA
82
ENDCHAR
STARTCHAR 0435
ENCODING 1077
SWIDTH 617 0
DWIDTH 6 0
BBX 4 6 1 -1
BITMAP
60
90
F0
80
90
60
ENDCHAR
STARTCHAR 0436
ENCODING 1078
SWIDTH 822 0
DWIDTH 8 0
BBX 6 6 1 -1
BITMAP
84
68
70
68
68
84
ENDCHAR
STARTCHAR 0437
ENCODING 1079
SWIDTH 617 0
DWIDTH 6 0
BBX 4 6 1 -1
BITMAP
70
90
30
10
90
60
ENDCHAR
STARTCHAR 0438
ENCODING 1080
SWIDTH 617 0
DWIDTH 6 0
BBX 4 5 1 0
BITMAP
10
90
B0
D0
90
ENDCHAR
STARTCHAR 0439
ENCODING 1081
SWIDTH 617 0
DWIDTH 6 0
BBX 4 6 1 0
BITMAP
60
10
90
B0
D0
90
ENDCHAR
STARTCHAR 043A
ENCODING 1082
SWIDTH 617 0
DWIDTH 6 0
BBX 4 5 1 0
BITMAP
10
A0
C0
A0
A0
ENDCHAR
STARTCHAR 043B
ENCODING 1083
SWIDTH 720 0
DWIDTH 7 0
BBX 5 5 1 -1
BITMAP
78
48
48
48
88
ENDCHAR
STARTCHAR 043C
ENCODING 1084
SWIDTH 822 0
DWIDTH 8 0
BBX 6 5 1 0
BITMAP
84
84
CC
D4
B4
ENDCHAR
STARTCHAR 043D
ENCODING 1085
SWIDTH 617 0
DWIDTH 6 0
BBX 5 5 1 0
BITMAP
08
88
F8
88
88
ENDCHAR
STARTCHAR 043E
ENCODING 1086
SWIDTH 617 0
DWIDTH 6 0
BBX 4 6 1 -1
BITMAP
60
90
90
90
90
60
ENDCHAR
STARTCHAR 043F
ENCODING 1087
SWIDTH 617 0
DWIDTH 6 0
BBX 4 5 1 0
BITMAP
F0
90
90
90
90
ENDCHAR
STARTCHAR 0440
ENCODING 1088
SWIDTH 617 0
DWIDTH 6 0
BBX 4 6 1 -2
BITMAP
60
90
90
90
90
E0
ENDCHAR
STARTCHAR 0441
ENCODING 1089
SWIDTH 617 0
DWIDTH 6 0
BBX 4 6 1 -1
BITMAP
60
90
80
80
90
60
ENDCHAR
STARTCHAR 0442
ENCODING 1090
SWIDTH 617 0
DWIDTH 6 0
BBX 4 5 1 0
BITMAP
F0
40
40
40
40
ENDCHAR
STARTCHAR 0443
ENCODING 1091
SWIDTH 617 0
DWIDTH 6 0
BBX 4 7 1 -2
BITMAP
10
90
A0
60
40
40
C0
ENDCHAR
STARTCHAR 0444
ENCODING 1092
SWIDTH 822 0
DWIDTH 8 0
BBX 6 7 1 -1
BITMAP
20
78
A4
A4
A4
A4
78
ENDCHAR
STARTCHAR 0445
ENCODING 1093
SWIDTH 617 0
DWIDTH 6 0
BBX 4 5 1 0
BITMAP
90
60
40
60
90
ENDCHAR
STARTCHAR 0446
ENCODING 1094
SWIDTH 720 0
DWIDTH 7 0
BBX 5 6 1 -2
BITMAP
10
90
90
90
90
68
ENDCHAR
STARTCHAR 0447
ENCODING 1095
SWIDTH 514 0
DWIDTH 5 0
BBX 4 5 1 0
BITMAP
10
90
90
F0
10
ENDCHAR
STARTCHAR 0448
ENCODING 1096
SWIDTH 822 0
DWIDTH 8 0
BBX 6 5 1 0
BITMAP
24
A4
A4
A4
FC
ENDCHAR
STARTCHAR 0449
ENCODING 1097
SWIDTH 822 0
DWIDTH 8 0
BBX 7 6 0 -2
BITMAP
92
92
92
92
92
6E
ENDCHAR
STARTCHAR 044A
ENCODING 1098
SWIDTH 720 0
DWIDTH 7 0
BBX 6 5 0 0
BITMAP
C0
20
38
24
3C
ENDCHAR
STARTCHAR 044B
ENCODING 1099
SWIDTH 720 0
DWIDTH 7 0
BBX 5 4 1 1
BITMAP
88
E8
98
F8
ENDCHAR
STARTCHAR 044C
ENCODING 1100
SWIDTH 617 0
DWIDTH 6 0
BBX 4 4 1 1
BITMAP
80
E0
90
F0
ENDCHAR
STARTCHAR 044D
ENCODING 1101
SWIDTH 617 0
DWIDTH 6 0
BBX 4 6 1 -1
BITMAP
E0
10
70
10
90
60
ENDCHAR
STARTCHAR 044E
ENCODING 1102
SWIDTH 822 0
DWIDTH 8 0
BBX 6 6 1 -1
BITMAP
18
A4
C4
A4
A4
18
ENDCHAR
STARTCHAR 044F
ENCODING 1103
SWIDTH 617 0
DWIDTH 6 0
BBX 4 5 1 0
BITMAP
F0
90
F0
90
90
ENDCHAR
STARTCHAR 0451
ENCODING 1105
SWIDTH 617 0
DWIDTH 6 0
BBX 4 6 1 0
BITMAP
60
90
F0
80
90
60
ENDCHAR
STARTCHAR 1100
ENCODING 4352
SWIDTH 925 0
DWIDTH 9 0
BBX 5 4 2 1
BITMAP
F8
08
08
08
ENDCHAR
STARTCHAR 1101
ENCODING 4353
SWIDTH 925 0
DWIDTH 9 0
BBX 6 4 2 1
BITMAP
FC
24
24
24
ENDCHAR
STARTCHAR 1102
ENCODING 4354
SWIDTH 925 0
DWIDTH 9 0
BBX 5 4 2 1
BITMAP
80
80
80
F8
ENDCHAR
STARTCHAR 1103
ENCODING 4355
SWIDTH 925 0
DWIDTH 9 0
BBX 5 4 2 1
BITMAP
F0
80
80
F8
ENDCHAR
STARTCHAR 1104
ENCODING 4356
SWIDTH 925 0
DWIDTH 9 0
BBX 6 4 2 1
BITMAP
D8
90
90
DC
ENDCHAR
STARTCHAR 1105
ENCODING 4357
SWIDTH 925 0
DWIDTH 9 0
BBX 5 4 2 1
BITMAP
78
78
80
F8
ENDCHAR
STARTCHAR 1106
ENCODING 4358
SWIDTH 925 0
DWIDTH 9 0
BBX 5 4 2 1
BITMAP
F8
88
88
F8
ENDCHAR
STARTCHAR 1107
ENCODING 4359
SWIDTH 925 0
DWIDTH 9 0
BBX 5 4 2 1
BITMAP
88
F8
88
F8
ENDCHAR
STARTCHAR 1108
ENCODING 4360
SWIDTH 925 0
DWIDTH 9 0
BBX 6 4 2 1
BITMAP
B4
DC
B4
FC
ENDCHAR
STARTCHAR 1109
ENCODING 4361
SWIDTH 925 0
DWIDTH 9 0
BBX 5 4 2 1
BITMAP
20
20
50
88
ENDCHAR
STARTCHAR 110A
ENCODING 4362
SWIDTH 925 0
DWIDTH 9 0
BBX 6 4 2 1
BITMAP
48
58
B4
20
ENDCHAR
STARTCHAR 110B
ENCODING 4363
SWIDTH 925 0
DWIDTH 9 0
BBX 5 4 2 1
BITMAP
78
88
88
78
ENDCHAR
STARTCHAR 110C
ENCODING 4364
SWIDTH 925 0
DWIDTH 9 0
BBX 5 4 2 1
BITMAP
F8
10
30
C8
ENDCHAR
STARTCHAR 110D
ENCODING 4365
SWIDTH 925 0
DWIDTH 9 0
BBX 7 4 1 1
BITMAP
7C
24
5C
92
ENDCHAR
STARTCHAR 110E
ENCODING 4366
SWIDTH 925 0
DWIDTH 9 0
BBX 5 5 2 1
BITMAP
70
F8
08
30
C8
ENDCHAR
STARTCHAR 110F
ENCODING 4367
SWIDTH 925 0
DWIDTH 9 0
BBX 4 4 3 1
BITMAP
F0
10
F0
10
ENDCHAR
STARTCHAR 1110
ENCODING 4368
SWIDTH 925 0
DWIDTH 9 0
BBX 5 4 2 1
BITMAP
F8
F0
80
F8
ENDCHAR
STARTCHAR 1111
ENCODING 4369
SWIDTH 925 0
DWIDTH 9 0
BBX 5 4 2 1
BITMAP
78
50
50
F8
ENDCHAR
STARTCHAR 1112
ENCODING 4370
SWIDTH 925 0
DWIDTH 9 0
BBX 5 6 2 0
BITMAP
70
F8
70
88
88
70
ENDCHAR
STARTCHAR 115F
ENCODING 4447
SWIDTH 0 0
DWIDTH 0 0
BBX 0 0 0 0
BITMAP
ENDCHAR
STARTCHAR 1160
ENCODING 4448
SWIDTH 0 0
DWIDTH 0 0
BBX 0 0 0 0
BITMAP
ENDCHAR
STARTCHAR 1161
ENCODING 4449
SWIDTH 925 0
DWIDTH 9 0
BBX 2 8 4 0
BITMAP
80
80
80
C0
80
80
80
80
ENDCHAR
STARTCHAR 1162
ENCODING 4450
SWIDTH 925 0
DWIDTH 9 0
BBX 3 9 3 -1
BITMAP
80
A0
A0
A0
E0
A0
A0
A0
A0
ENDCHAR
STARTCHAR 1163
ENCODING 4451
SWIDTH 925 0
DWIDTH 9 0
BBX 2 8 4 0
BITMAP
80
80
C0
80
80
80
80
80
ENDCHAR
STARTCHAR 1164
ENCODING 4452
SWIDTH 925 0
DWIDTH 9 0
BBX 3 9 3 -1
BITMAP
80
A0
A0
E0
A0
E0
A0
A0
A0
ENDCHAR
STARTCHAR 1165
ENCODING 4453
SWIDTH 925 0
DWIDTH 9 0
BBX 3 9 3 -1
BITMAP
20
20
20
20
E0
20
20
20
20
ENDCHAR
STARTCHAR 1166
ENCODING 4454
SWIDTH 925 0
DWIDTH 9 0
BBX 4 9 3 -1
BITMAP
50
50
50
50
D0
50
50
50
50
ENDCHAR
STARTCHAR 1167
ENCODING 4455
SWIDTH 925 0
DWIDTH 9 0
BBX 3 9 3 -1
BITMAP
20
20
20
E0
20
60
20
20
20
ENDCHAR
STARTCHAR 1168
ENCODING 4456
SWIDTH 925 0
DWIDTH 9 0
BBX 4 9 3 -1
BITMAP
50
50
50
D0
50
D0
50
50
50
ENDCHAR
STARTCHAR 1169
ENCODING 4457
SWIDTH 925 0
DWIDTH 9 0
BBX 8 3 1 1
BITMAP
10
10
FF
ENDCHAR
STARTCHAR 116A
ENCODING 4458
SWIDTH 925 0
DWIDTH 9 0
BBX 8 8 1 0
BITMAP
02
02
02
23
22
2A
D2
02
ENDCHAR
STARTCHAR 116B
ENCODING 4459
SWIDTH 925 0
DWIDTH 9 0
BBX 8 9 1 -1
BITMAP
05
05
05
05
27
25
7D
85
05
ENDCHAR
STARTCHAR 116C
ENCODING 4460
SWIDTH 925 0
DWIDTH 9 0
BBX 6 8 2 0
BITMAP
04
04
04
24
24
3C
C4
04
ENDCHAR
STARTCHAR 116D
ENCODING 4461
SWIDTH 925 0
DWIDTH 9 0
BBX 8 3 1 1
BITMAP
24
24
FF
ENDCHAR
STARTCHAR 116E
ENCODING 4462
SWIDTH 925 0
DWIDTH 9 0
BBX 8 4 1 0
BITMAP
FF
10
10
10
ENDCHAR
STARTCHAR 116F
ENCODING 4463
SWIDTH 925 0
DWIDTH 9 0
BBX 8 9 1 -1
BITMAP
01
01
01
01
1D
E1
27
21
01
ENDCHAR
STARTCHAR 1170
ENCODING 4464
SWIDTH 925 0
DWIDTH 9 0
BBX 8 9 1 -1
BITMAP
05
05
05
05
DD
25
2D
25
25
ENDCHAR
STARTCHAR 1171
ENCODING 4465
SWIDTH 925 0
DWIDTH 9 0
BBX 8 9 1 -1
BITMAP
01
01
01
01
1D
E1
21
21
01
ENDCHAR
STARTCHAR 1172
ENCODING 4466
SWIDTH 925 0
DWIDTH 9 0
BBX 8 4 1 0
BITMAP
FF
24
24
24
ENDCHAR
STARTCHAR 1173
ENCODING 4467
SWIDTH 925 0
DWIDTH 9 0
BBX 9 1 0 3
BITMAP
FF80
ENDCHAR
STARTCHAR 1174
ENCODING 4468
SWIDTH 925 0
DWIDTH 9 0
BBX 8 9 1 -1
BITMAP
01
01
01
01
01
01
FD
01
01
ENDCHAR
STARTCHAR 1175
ENCODING 4469
SWIDTH 925 0
DWIDTH 9 0
BBX 1 9 4 -1
BITMAP
80
80
80
80
80
80
80
80
80
ENDCHAR
STARTCHAR 11A8
ENCODING 4520
SWIDTH 925 0
DWIDTH 9 0
BBX 5 4 2 1
BITMAP
F8
08
08
08
ENDCHAR
STARTCHAR 11A9
ENCODING 4521
SWIDTH 925 0
DWIDTH 9 0
BBX 6 4 2 1
BITMAP
FC
24
24
24
ENDCHAR
STARTCHAR 11AA
ENCODING 4522
SWIDTH 925 0
DWIDTH 9 0
BBX 6 4 2 1
BITMAP
C8
48
58
64
ENDCHAR
STARTCHAR 11AB
ENCODING 4523
SWIDTH 925 0
DWIDTH 9 0
BBX 5 4 2 1
BITMAP
80
80
80
F8
ENDCHAR
STARTCHAR 11AC
ENCODING 4524
SWIDTH 925 0
DWIDTH 9 0
BBX 7 4 1 1
BITMAP
9C
84
8C
F2
ENDCHAR
STARTCHAR 11AD
ENCODING 4525
SWIDTH 925 0
DWIDTH 9 0
BBX 7 5 1 1
BITMAP
0C
82
8C
92
FE
ENDCHAR
STARTCHAR 11AE
ENCODING 4526
SWIDTH 925 0
DWIDTH 9 0
BBX 5 4 2 1
BITMAP
F0
80
80
F8
ENDCHAR
STARTCHAR 11AF
ENCODING 4527
SWIDTH 925 0
DWIDTH 9 0
BBX 5 4 2 1
BITMAP
78
78
80
F8
ENDCHAR
STARTCHAR 11B0
ENCODING 4528
SWIDTH 925 0
DWIDTH 9 0
BBX 6 4 2 1
BITMAP
FC
64
84
E4
ENDCHAR
STARTCHAR 11B1
ENCODING 4529
SWIDTH 925 0
DWIDTH 9 0
BBX 6 4 2 1
BITMAP
FC
74
94
FC
ENDCHAR
STARTCHAR 11B2
ENCODING 4530
SWIDTH 925 0
DWIDTH 9 0
BBX 6 4 2 1
BITMAP
F4
7C
94
FC
ENDCHAR
STARTCHAR 11B3
ENCODING 4531
SWIDTH 925 0
DWIDTH 9 0
BBX 7 4 1 1
BITMAP
64
64
8C
F2
ENDCHAR
STARTCHAR 11B4
ENCODING 4532
SWIDTH 925 0
DWIDTH 9 0
BBX 5 4 2 1
BITMAP
F8
78
90
F8
ENDCHAR
STARTCHAR 11B5
ENCODING 4533
SWIDTH 925 0
DWIDTH 9 0
BBX 6 4 1 1
BITMAP
6C
6C
8C
EC
ENDCHAR
STARTCHAR 11B6
ENCODING 4534
SWIDTH 925 0
DWIDTH 9 0
BBX 7 5 1 1
BITMAP
4C
2A
64
8A
EE
ENDCHAR
STARTCHAR 11B7
ENCODING 4535
SWIDTH 925 0
DWIDTH 9 0
BBX 5 4 2 1
BITMAP
F8
88
88
F8
ENDCHAR
STARTCHAR 11B8
ENCODING 4536
SWIDTH 925 0
DWIDTH 9 0
BBX 5 4 2 1
BITMAP
88
F8
88
F8
ENDCHAR
STARTCHAR 11B9
ENCODING 4537
SWIDTH 925 0
DWIDTH 9 0
BBX 7 4 1 1
BITMAP
A4
E4
AC
F2
ENDCHAR
STARTCHAR 11BA
ENCODING 4538
SWIDTH 925 0
DWIDTH 9 0
BBX 5 4 2 1
BITMAP
20
20
50
88
ENDCHAR
STARTCHAR 11BB
ENCODING 4539
SWIDTH 925 0
DWIDTH 9 0
BBX 6 4 2 1
BITMAP
48
58
B4
20
ENDCHAR
STARTCHAR 11BC
ENCODING 4540
SWIDTH 925 0
DWIDTH 9 0
BBX 5 4 2 1
BITMAP
78
88
88
78
ENDCHAR
STARTCHAR 11BD
ENCODING 4541
SWIDTH 925 0
DWIDTH 9 0
BBX 5 4 2 1
BITMAP
F8
10
30
C8
ENDCHAR
STARTCHAR 11BE
ENCODING 4542
SWIDTH 925 0
DWIDTH 9 0
BBX 5 5 2 1
BITMAP
70
F8
08
30
C8
ENDCHAR
STARTCHAR 11BF
ENCODING 4543
SWIDTH 925 0
DWIDTH 9 0
BBX 4 4 3 1
BITMAP
F0
10
F0
10
ENDCHAR
STARTCHAR 11C0
ENCODING 4544
SWIDTH 925 0
DWIDTH 9 0
BBX 5 4 2 1
BITMAP
F8
F0
80
F8
ENDCHAR
STARTCHAR 11C1
ENCODING 4545
SWIDTH 925 0
DWIDTH 9 0
BBX 5 4 2 1
BITMAP
78
50
50
F8
ENDCHAR
STARTCHAR 11C2
ENCODING 4546
SWIDTH 925 0
DWIDTH 9 0
BBX 5 6 2 0
BITMAP
70
F8
70
88
88
70
ENDCHAR
STARTCHAR 2010
ENCODING 8208
SWIDTH 411 0
DWIDTH 4 0
BBX 0 0 0 3
BITMAP
ENDCHAR
STARTCHAR 2013
ENCODING 8211
SWIDTH 411 0
DWIDTH 4 0
BBX 3 1 1 2
BITMAP
E0
ENDCHAR
STARTCHAR 2014
ENCODING 8212
SWIDTH 925 0
DWIDTH 9 0
BBX 9 1 0 2
BITMAP
FF80
ENDCHAR
STARTCHAR 2015
ENCODING 8213
SWIDTH 925 0
DWIDTH 9 0
BBX 9 1 0 2
BITMAP
FF80
ENDCHAR
STARTCHAR 2016
ENCODING 8214
SWIDTH 925 0
DWIDTH 9 0
BBX 2 10 4 -2
BITMAP
C0
C0
C0
C0
C0
C0
C0
C0
C0
C0
ENDCHAR
STARTCHAR 2018
ENCODING 8216
SWIDTH 205 0
DWIDTH 2 0
BBX 2 3 0 5
BITMAP
40
80
C0
ENDCHAR
STARTCHAR 2019
ENCODING 8217
SWIDTH 205 0
DWIDTH 2 0
BBX 1 3 0 5
BITMAP
80
80
80
ENDCHAR
STARTCHAR 201B
ENCODING 8219
SWIDTH 205 0
DWIDTH 2 0
BBX 1 2 0 5
BITMAP
80
80
ENDCHAR
STARTCHAR 201C
ENCODING 8220
SWIDTH 411 0
DWIDTH 4 0
BBX 2 3 1 5
BITMAP
C0
C0
C0
ENDCHAR
STARTCHAR 201D
ENCODING 8221
SWIDTH 411 0
DWIDTH 4 0
BBX 3 3 0 5
BITMAP
A0
60
A0
ENDCHAR
STARTCHAR 201F
ENCODING 8223
SWIDTH 411 0
DWIDTH 4 0
BBX 3 2 0 5
BITMAP
A0
A0
ENDCHAR
STARTCHAR 2020
ENCODING 8224
SWIDTH 617 0
DWIDTH 6 0
BBX 2 4 2 1
BITMAP
80
C0
80
80
ENDCHAR
STARTCHAR 2021
ENCODING 8225
SWIDTH 617 0
DWIDTH 6 0
BBX 2 4 2 1
BITMAP
C0
C0
80
80
ENDCHAR
STARTCHAR 2022
ENCODING 8226
SWIDTH 925 0
DWIDTH 9 0
BBX 2 2 4 2
BITMAP
C0
C0
ENDCHAR
STARTCHAR 2025
ENCODING 8229
SWIDTH 925 0
DWIDTH 9 0
BBX 6 1 2 3
BITMAP
8C
ENDCHAR
STARTCHAR 2026
ENCODING 8230
SWIDTH 925 0
DWIDTH 9 0
BBX 7 1 1 3
BITMAP
92
ENDCHAR
STARTCHAR 2030
ENCODING 8240
SWIDTH 925 0
DWIDTH 9 0
BBX 8 8 1 -1
BITMAP
C0
D0
D0
E0
3B
65
6D
9A
ENDCHAR
STARTCHAR 2032
ENCODING 8242
SWIDTH 514 0
DWIDTH 5 0
BBX 1 1 2 5
BITMAP
80
ENDCHAR
STARTCHAR 2033
ENCODING 8243
SWIDTH 514 0
DWIDTH 5 0
BBX 3 2 1 5
BITMAP
A0
40
ENDCHAR
STARTCHAR 2034
ENCODING 8244
SWIDTH 925 0
DWIDTH 9 0
BBX 4 2 3 5
BITMAP
D0
E0
ENDCHAR
STARTCHAR 2035
ENCODING 8245
SWIDTH 308 0
DWIDTH 3 0
BBX 3 2 0 5
BITMAP
C0
20
ENDCHAR
STARTCHAR 2036
ENCODING 8246
SWIDTH 308 0
DWIDTH 3 0
BBX 3 3 0 4
BITMAP
C0
20
40
ENDCHAR
STARTCHAR 2039
ENCODING 8249
SWIDTH 925 0
DWIDTH 9 0
BBX 6 8 2 -1
BITMAP
0C
10
60
80
80
60
10
0C
ENDCHAR
STARTCHAR 203A
ENCODING 8250
SWIDTH 925 0
DWIDTH 9 0
BBX 6 8 2 -1
BITMAP
80
60
10
0C
0C
10
60
80
ENDCHAR
STARTCHAR 203B
ENCODING 8251
SWIDTH 925 0
DWIDTH 9 0
BBX 6 6 2 0
BITMAP
AC
50
A4
50
88
A4
ENDCHAR
STARTCHAR 203C
ENCODING 8252
SWIDTH 925 0
DWIDTH 9 0
BBX 3 8 3 -1
BITMAP
80
A0
A0
A0
A0
80
00
80
ENDCHAR
STARTCHAR 203E
ENCODING 8254
SWIDTH 925 0
DWIDTH 9 0
BBX 0 0 0 8
BITMAP
ENDCHAR
STARTCHAR 2042
ENCODING 8258
SWIDTH 925 0
DWIDTH 9 0
BBX 7 8 1 -1
BITMAP
10
08
28
00
00
EA
26
40
ENDCHAR
STARTCHAR 2074
ENCODING 8308
SWIDTH 411 0
DWIDTH 4 0
BBX 2 2 1 5
BITMAP
40
C0
ENDCHAR
STARTCHAR 207A
ENCODING 8314
SWIDTH 514 0
DWIDTH 5 0
BBX 1 2 2 4
BITMAP
80
80
ENDCHAR
STARTCHAR 207B
ENCODING 8315
SWIDTH 514 0
DWIDTH 5 0
BBX 1 1 2 5
BITMAP
80
ENDCHAR
STARTCHAR 207C
ENCODING 8316
SWIDTH 514 0
DWIDTH 5 0
BBX 3 2 1 4
BITMAP
40
E0
ENDCHAR
STARTCHAR 207D
ENCODING 8317
SWIDTH 205 0
DWIDTH 2 0
BBX 1 3 1 4
BITMAP
80
80
80
ENDCHAR
STARTCHAR 207E
ENCODING 8318
SWIDTH 205 0
DWIDTH 2 0
BBX 1 3 1 3
BITMAP
80
80
80
ENDCHAR
STARTCHAR 207F
ENCODING 8319
SWIDTH 411 0
DWIDTH 4 0
BBX 2 2 1 5
BITMAP
C0
80
ENDCHAR
STARTCHAR 2081
ENCODING 8321
SWIDTH 411 0
DWIDTH 4 0
BBX 0 0 1 -1
BITMAP
ENDCHAR
STARTCHAR 2082
ENCODING 8322
SWIDTH 411 0
DWIDTH 4 0
BBX 2 1 1 -1
BITMAP
C0
ENDCHAR
STARTCHAR 2083
ENCODING 8323
SWIDTH 411 0
DWIDTH 4 0
BBX 2 2 1 -1
BITMAP
C0
C0
ENDCHAR
STARTCHAR 2084
ENCODING 8324
SWIDTH 411 0
DWIDTH 4 0
BBX 2 2 1 -1
BITMAP
40
C0
ENDCHAR
STARTCHAR 20A9
ENCODING 8361
SWIDTH 1028 0
DWIDTH 10 0
BBX 8 7 1 0
BITMAP
91
9A
FF
6A
6A
64
24
ENDCHAR
STARTCHAR 20AC
ENCODING 8364
SWIDTH 925 0
DWIDTH 9 0
BBX 5 8 2 -1
BITMAP
38
40
40
F0
60
40
40
38
ENDCHAR
STARTCHAR 2103
ENCODING 8451
SWIDTH 822 0
DWIDTH 8 0
BBX 6 8 1 -1
BITMAP
80
B8
44
40
40
44
44
38
ENDCHAR
STARTCHAR 2109
ENCODING 8457
SWIDTH 925 0
DWIDTH 9 0
BBX 7 7 1 0
BITMAP
C0
DE
10
1E
10
10
10
ENDCHAR
STARTCHAR 2113
ENCODING 8467
SWIDTH 514 0
DWIDTH 5 0
BBX 3 7 1 0
BITMAP
20
60
60
60
60
40
E0
ENDCHAR
STARTCHAR 2116
ENCODING 8470
SWIDTH 925 0
DWIDTH 9 0
BBX 8 7 1 0
BITMAP
90
9C
D2
D2
B2
2B
04
ENDCHAR
STARTCHAR 2121
ENCODING 8481
SWIDTH 925 0
DWIDTH 9 0
BBX 8 8 1 -1
BITMAP
F1
41
4D
55
5D
51
55
08
ENDCHAR
STARTCHAR 2122
ENCODING 8482
SWIDTH 925 0
DWIDTH 9 0
BBX 7 3 2 4
BITMAP
A2
B6
AA
ENDCHAR
STARTCHAR 2126
ENCODING 8486
SWIDTH 720 0
DWIDTH 7 0
BBX 5 7 1 0
BITMAP
70
88
88
88
88
50
D8
ENDCHAR
STARTCHAR 212B
ENCODING 8491
SWIDTH 720 0
DWIDTH 7 0
BBX 5 8 1 -1
BITMAP
60
60
20
60
50
70
88
88
ENDCHAR
STARTCHAR 2153
ENCODING 8531
SWIDTH 720 0
DWIDTH 7 0
BBX 5 8 1 -1
BITMAP
80
88
90
20
48
58
88
18
ENDCHAR
STARTCHAR 2154
ENCODING 8532
SWIDTH 822 0
DWIDTH 8 0
BBX 6 8 1 -1
BITMAP
C0
44
88
D0
28
44
84
1C
ENDCHAR
STARTCHAR 215B
ENCODING 8539
SWIDTH 720 0
DWIDTH 7 0
BBX 6 8 1 -1
BITMAP
80
88
90
10
28
54
9C
1C
ENDCHAR
STARTCHAR 215C
ENCODING 8540
SWIDTH 822 0
DWIDTH 8 0
BBX 6 8 1 -1
BITMAP
C0
44
28
50
28
54
9C
1C
ENDCHAR
STARTCHAR 215D
ENCODING 8541
SWIDTH 822 0
DWIDTH 8 0
BBX 6 8 1 -1
BITMAP
80
C4
28
50
28
54
9C
1C
ENDCHAR
STARTCHAR 215E
ENCODING 8542
SWIDTH 720 0
DWIDTH 7 0
BBX 6 8 1 -1
BITMAP
40
48
90
90
28
54
9C
1C
ENDCHAR
STARTCHAR 2160
ENCODING 8544
SWIDTH 925 0
DWIDTH 9 0
BBX 1 7 4 0
BITMAP
80
80
80
80
80
80
80
ENDCHAR
STARTCHAR 2161
ENCODING 8545
SWIDTH 925 0
DWIDTH 9 0
BBX 3 7 3 0
BITMAP
80
A0
A0
A0
A0
A0
A0
ENDCHAR
STARTCHAR 2162
ENCODING 8546
SWIDTH 925 0
DWIDTH 9 0
BBX 5 7 2 0
BITMAP
A0
A8
A8
A8
A8
A8
A8
ENDCHAR
STARTCHAR 2163
ENCODING 8547
SWIDTH 925 0
DWIDTH 9 0
BBX 7 7 1 0
BITMAP
A2
A2
A4
94
94
94
88
ENDCHAR
STARTCHAR 2164
ENCODING 8548
SWIDTH 925 0
DWIDTH 9 0
BBX 6 7 2 0
BITMAP
84
88
88
48
50
50
20
ENDCHAR
STARTCHAR 2165
ENCODING 8549
SWIDTH 925 0
DWIDTH 9 0
BBX 6 7 2 0
BITMAP
04
94
94
94
A4
64
64
ENDCHAR
STARTCHAR 2166
ENCODING 8550
SWIDTH 925 0
DWIDTH 9 0
BBX 7 7 1 0
BITMAP
84
96
96
56
56
66
26
ENDCHAR
STARTCHAR 2167
ENCODING 8551
SWIDTH 925 0
DWIDTH 9 0
BBX 7 7 1 0
BITMAP
8C
AE
AE
AE
AE
4E
4E
ENDCHAR
STARTCHAR 2168
ENCODING 8552
SWIDTH 925 0
DWIDTH 9 0
BBX 7 7 1 0
BITMAP
A2
94
94
88
88
94
A2
ENDCHAR
STARTCHAR 2169
ENCODING 8553
SWIDTH 925 0
DWIDTH 9 0
BBX 5 7 2 0
BITMAP
88
48
50
20
30
50
88
ENDCHAR
STARTCHAR 2170
ENCODING 8560
SWIDTH 925 0
DWIDTH 9 0
BBX 1 7 4 0
BITMAP
80
00
80
80
80
80
80
ENDCHAR
STARTCHAR 2171
ENCODING 8561
SWIDTH 925 0
DWIDTH 9 0
BBX 3 7 3 0
BITMAP
80
00
80
A0
A0
A0
A0
ENDCHAR
STARTCHAR 2172
ENCODING 8562
SWIDTH 925 0
DWIDTH 9 0
BBX 5 7 2 0
BITMAP
A0
00
A0
A8
A8
A8
A8
ENDCHAR
STARTCHAR 2173
ENCODING 8563
SWIDTH 925 0
DWIDTH 9 0
BBX 5 7 2 0
BITMAP
80
00
80
A8
A8
A8
90
ENDCHAR
STARTCHAR 2174
ENCODING 8564
SWIDTH 925 0
DWIDTH 9 0
BBX 4 5 3 0
BITMAP
10
90
A0
A0
40
ENDCHAR
STARTCHAR 2175
ENCODING 8565
SWIDTH 925 0
DWIDTH 9 0
BBX 5 5 2 2
BITMAP
90
98
A8
68
68
ENDCHAR
STARTCHAR 2176
ENCODING 8566
SWIDTH 925 0
DWIDTH 9 0
BBX 6 7 2 0
BITMAP
04
00
24
AC
AC
CC
4C
ENDCHAR
STARTCHAR 2177
ENCODING 8567
SWIDTH 925 0
DWIDTH 9 0
BBX 7 7 1 0
BITMAP
0C
00
8C
AE
AE
6E
4E
ENDCHAR
STARTCHAR 2178
ENCODING 8568
SWIDTH 925 0
DWIDTH 9 0
BBX 5 5 2 2
BITMAP
08
A8
90
A8
A8
ENDCHAR
STARTCHAR 2179
ENCODING 8569
SWIDTH 925 0
DWIDTH 9 0
BBX 4 5 3 0
BITMAP
10
A0
40
60
A0
ENDCHAR
STARTCHAR 2190
ENCODING 8592
SWIDTH 925 0
DWIDTH 9 0
BBX 7 2 1 2
BITMAP
80
FE
ENDCHAR
STARTCHAR 2191
ENCODING 8593
SWIDTH 514 0
DWIDTH 5 0
BBX 3 9 1 -2
BITMAP
40
A0
40
40
40
40
40
40
40
ENDCHAR
STARTCHAR 2192
ENCODING 8594
SWIDTH 925 0
DWIDTH 9 0
BBX 8 2 1 2
BITMAP
01
FF
ENDCHAR
STARTCHAR 2193
ENCODING 8595
SWIDTH 514 0
DWIDTH 5 0
BBX 3 9 1 -1
BITMAP
40
40
40
40
40
40
40
A0
40
ENDCHAR
STARTCHAR 2194
ENCODING 8596
SWIDTH 925 0
DWIDTH 9 0
BBX 8 2 1 2
BITMAP
FF
81
ENDCHAR
STARTCHAR 2195
ENCODING 8597
SWIDTH 411 0
DWIDTH 4 0
BBX 3 10 1 -2
BITMAP
40
E0
40
40
40
40
40
40
E0
40
ENDCHAR
STARTCHAR 2196
ENCODING 8598
SWIDTH 925 0
DWIDTH 9 0
BBX 8 9 0 -2
BITMAP
E0
C0
20
10
08
04
04
02
01
ENDCHAR
STARTCHAR 2197
ENCODING 8599
SWIDTH 925 0
DWIDTH 9 0
BBX 8 9 1 -2
BITMAP
03
03
02
04
08
10
20
40
80
ENDCHAR
STARTCHAR 2198
ENCODING 8600
SWIDTH 925 0
DWIDTH 9 0
BBX 8 9 1 -1
BITMAP
80
40
20
10
08
04
04
03
03
ENDCHAR
STARTCHAR 2199
ENCODING 8601
SWIDTH 925 0
DWIDTH 9 0
BBX 9 10 0 -2
BITMAP
0080
0100
0200
0200
0400
0800
1000
2000
C000
E000
ENDCHAR
STARTCHAR 21B0
ENCODING 8624
SWIDTH 925 0
DWIDTH 9 0
BBX 8 9 1 -2
BITMAP
80
FF
01
01
01
01
01
01
01
ENDCHAR
STARTCHAR 21B1
ENCODING 8625
SWIDTH 925 0
DWIDTH 9 0
BBX 7 8 1 -2
BITMAP
02
FE
80
80
80
80
80
80
ENDCHAR
STARTCHAR 21B2
ENCODING 8626
SWIDTH 925 0
DWIDTH 9 0
BBX 8 9 1 -1
BITMAP
01
01
01
01
01
01
01
FF
80
ENDCHAR
STARTCHAR 21B3
ENCODING 8627
SWIDTH 925 0
DWIDTH 9 0
BBX 7 8 1 0
BITMAP
80
80
80
80
80
80
FE
02
ENDCHAR
STARTCHAR 21B4
ENCODING 8628
SWIDTH 925 0
DWIDTH 9 0
BBX 6 9 2 -2
BITMAP
FC
04
04
04
04
04
04
04
04
ENDCHAR
STARTCHAR 21BC
ENCODING 8636
SWIDTH 925 0
DWIDTH 9 0
BBX 7 1 1 4
BITMAP
FE
ENDCHAR
STARTCHAR 21C0
ENCODING 8640
SWIDTH 925 0
DWIDTH 9 0
BBX 8 2 1 3
BITMAP
04
FF
ENDCHAR
STARTCHAR 21C4
ENCODING 8644
SWIDTH 925 0
DWIDTH 9 0
BBX 9 5 0 1
BITMAP
FF80
0000
4000
BF00
4000
ENDCHAR
STARTCHAR 21C5
ENCODING 8645
SWIDTH 925 0
DWIDTH 9 0
BBX 6 10 2 -2
BITMAP
C0
48
48
48
48
48
48
48
4C
08
ENDCHAR
STARTCHAR 21CD
ENCODING 8653
SWIDTH 925 0
DWIDTH 9 0
BBX 8 4 0 1
BITMAP
44
BF
BF
48
ENDCHAR
STARTCHAR 21CF
ENCODING 8655
SWIDTH 925 0
DWIDTH 9 0
BBX 8 4 1 1
BITMAP
12
FD
DD
22
ENDCHAR
STARTCHAR 21D0
ENCODING 8656
SWIDTH 925 0
DWIDTH 9 0
BBX 8 4 0 1
BITMAP
40
BF
BF
40
ENDCHAR
STARTCHAR 21D1
ENCODING 8657
SWIDTH 925 0
DWIDTH 9 0
BBX 7 9 1 -2
BITMAP
20
64
AA
28
28
28
28
28
28
ENDCHAR
STARTCHAR 21D2
ENCODING 8658
SWIDTH 925 0
DWIDTH 9 0
BBX 8 4 1 1
BITMAP
02
FD
FD
02
ENDCHAR
STARTCHAR 21D3
ENCODING 8659
SWIDTH 925 0
DWIDTH 9 0
BBX 8 9 1 -1
BITMAP
28
28
28
28
28
29
AA
64
20
ENDCHAR
STARTCHAR 21D4
ENCODING 8660
SWIDTH 925 0
DWIDTH 9 0
BBX 9 4 0 1
BITMAP
4100
BE80
BE80
4100
ENDCHAR
STARTCHAR 21E0
ENCODING 8672
SWIDTH 925 0
DWIDTH 9 0
BBX 8 2 1 2
BITMAP
A1
A1
ENDCHAR
STARTCHAR 21E1
ENCODING 8673
SWIDTH 925 0
DWIDTH 9 0
BBX 4 8 3 -1
BITMAP
60
F0
40
40
00
40
00
40
ENDCHAR
STARTCHAR 21E2
ENCODING 8674
SWIDTH 925 0
DWIDTH 9 0
BBX 7 4 1 1
BITMAP
02
2A
AA
02
ENDCHAR
STARTCHAR 21E3
ENCODING 8675
SWIDTH 925 0
DWIDTH 9 0
BBX 3 8 3 -1
BITMAP
40
00
40
00
40
40
80
60
ENDCHAR
STARTCHAR 21E6
ENCODING 8678
SWIDTH 925 0
DWIDTH 9 0
BBX 8 6 1 0
BITMAP
20
5F
81
81
5F
20
ENDCHAR
STARTCHAR 21E7
ENCODING 8679
SWIDTH 925 0
DWIDTH 9 0
BBX 7 10 1 -2
BITMAP
10
28
44
C2
24
24
24
24
24
38
ENDCHAR
STARTCHAR 21E8
ENCODING 8680
SWIDTH 925 0
DWIDTH 9 0
BBX 9 6 0 0
BITMAP
0600
FD00
8080
8080
FD00
0600
ENDCHAR
STARTCHAR 21E9
ENCODING 8681
SWIDTH 925 0
DWIDTH 9 0
BBX 7 10 1 -2
BITMAP
38
24
24
24
24
24
C2
44
28
10
ENDCHAR
STARTCHAR 2200
ENCODING 8704
SWIDTH 925 0
DWIDTH 9 0
BBX 6 7 2 0
BITMAP
04
88
F8
48
50
50
20
ENDCHAR
STARTCHAR 2202
ENCODING 8706
SWIDTH 514 0
DWIDTH 5 0
BBX 3 4 1 1
BITMAP
60
20
E0
E0
ENDCHAR
STARTCHAR 2203
ENCODING 8707
SWIDTH 925 0
DWIDTH 9 0
BBX 5 7 2 0
BITMAP
F8
08
08
78
08
08
78
ENDCHAR
STARTCHAR 2206
ENCODING 8710
SWIDTH 925 0
DWIDTH 9 0
BBX 6 6 2 0
BITMAP
20
50
50
48
88
FC
ENDCHAR
STARTCHAR 2207
ENCODING 8711
SWIDTH 925 0
DWIDTH 9 0
BBX 7 6 1 0
BITMAP
FE
42
44
28
18
10
ENDCHAR
STARTCHAR 2208
ENCODING 8712
SWIDTH 925 0
DWIDTH 9 0
BBX 6 6 1 0
BITMAP
7C
80
80
FC
80
7C
ENDCHAR
STARTCHAR 2209
ENCODING 8713
SWIDTH 925 0
DWIDTH 9 0
BBX 5 6 2 0
BITMAP
68
90
F8
90
A0
78
ENDCHAR
STARTCHAR 220B
ENCODING 8715
SWIDTH 925 0
DWIDTH 9 0
BBX 6 6 2 0
BITMAP
F8
04
04
FC
04
F8
ENDCHAR
STARTCHAR 220C
ENCODING 8716
SWIDTH 925 0
DWIDTH 9 0
BBX 5 6 3 0
BITMAP
A0
50
F8
48
90
E0
ENDCHAR
STARTCHAR 220F
ENCODING 8719
SWIDTH 822 0
DWIDTH 8 0
BBX 6 7 1 0
BITMAP
FC
48
48
48
48
48
48
ENDCHAR
STARTCHAR 2211
ENCODING 8721
SWIDTH 720 0
DWIDTH 7 0
BBX 5 7 1 0
BITMAP
F8
80
40
20
20
40
F0
ENDCHAR
STARTCHAR 2213
ENCODING 8723
SWIDTH 925 0
DWIDTH 9 0
BBX 6 5 2 0
BITMAP
78
00
20
FC
20
ENDCHAR
STARTCHAR 221A
ENCODING 8730
SWIDTH 822 0
DWIDTH 8 0
BBX 7 6 0 -1
BITMAP
0E
10
10
20
A0
40
ENDCHAR
STARTCHAR 221D
ENCODING 8733
SWIDTH 720 0
DWIDTH 7 0
BBX 7 4 0 1
BITMAP
F6
88
98
F4
ENDCHAR
STARTCHAR 221E
ENCODING 8734
SWIDTH 822 0
DWIDTH 8 0
BBX 8 4 0 1
BITMAP
77
99
91
FF
ENDCHAR
STARTCHAR 221F
ENCODING 8735
SWIDTH 925 0
DWIDTH 9 0
BBX 5 5 2 1
BITMAP
80
80
80
80
F8
ENDCHAR
STARTCHAR 2220
ENCODING 8736
SWIDTH 925 0
DWIDTH 9 0
BBX 5 6 2 0
BITMAP
08
10
20
40
40
F8
ENDCHAR
STARTCHAR 2222
ENCODING 8738
SWIDTH 925 0
DWIDTH 9 0
BBX 5 6 2 0
BITMAP
10
38
48
C8
38
10
ENDCHAR
STARTCHAR 2225
ENCODING 8741
SWIDTH 925 0
DWIDTH 9 0
BBX 6 5 2 0
BITMAP
14
28
28
50
A0
ENDCHAR
STARTCHAR 2226
ENCODING 8742
SWIDTH 925 0
DWIDTH 9 0
BBX 6 6 2 0
BITMAP
04
68
28
50
90
20
ENDCHAR
STARTCHAR 2227
ENCODING 8743
SWIDTH 925 0
DWIDTH 9 0
BBX 6 6 2 0
BITMAP
20
50
50
88
88
04
ENDCHAR
STARTCHAR 2228
ENCODING 8744
SWIDTH 925 0
DWIDTH 9 0
BBX 6 6 2 0
BITMAP
04
88
88
50
50
20
ENDCHAR
STARTCHAR 2229
ENCODING 8745
SWIDTH 617 0
DWIDTH 6 0
BBX 5 6 1 0
BITMAP
F0
88
88
08
08
08
ENDCHAR
STARTCHAR 222A
ENCODING 8746
SWIDTH 617 0
DWIDTH 6 0
BBX 5 6 1 0
BITMAP
08
08
08
88
88
F0
ENDCHAR
STARTCHAR 222B
ENCODING 8747
SWIDTH 514 0
DWIDTH 5 0
BBX 3 8 1 -1
BITMAP
20
40
40
40
40
40
40
80
ENDCHAR
STARTCHAR 222C
ENCODING 8748
SWIDTH 925 0
DWIDTH 9 0
BBX 6 8 2 -1
BITMAP
2C
48
48
50
50
50
50
B0
ENDCHAR
STARTCHAR 222E
ENCODING 8750
SWIDTH 925 0
DWIDTH 9 0
BBX 4 8 3 -1
BITMAP
30
40
60
D0
E0
40
40
40
ENDCHAR
STARTCHAR 2234
ENCODING 8756
SWIDTH 925 0
DWIDTH 9 0
BBX 6 5 2 1
BITMAP
20
00
00
00
84
ENDCHAR
STARTCHAR 2235
ENCODING 8757
SWIDTH 925 0
DWIDTH 9 0
BBX 6 5 2 1
BITMAP
84
00
00
00
20
ENDCHAR
STARTCHAR 2236
ENCODING 8758
SWIDTH 925 0
DWIDTH 9 0
BBX 1 4 4 1
BITMAP
80
00
00
80
ENDCHAR
STARTCHAR 2237
ENCODING 8759
SWIDTH 925 0
DWIDTH 9 0
BBX 4 4 3 1
BITMAP
90
00
00
90
ENDCHAR
STARTCHAR 223C
ENCODING 8764
SWIDTH 925 0
DWIDTH 9 0
BBX 5 1 2 3
BITMAP
F8
ENDCHAR
STARTCHAR 223D
ENCODING 8765
SWIDTH 822 0
DWIDTH 8 0
BBX 8 4 0 1
BITMAP
4E
89
91
F2
ENDCHAR
STARTCHAR 2243
ENCODING 8771
SWIDTH 925 0
DWIDTH 9 0
BBX 7 4 1 1
BITMAP
70
0C
00
FE
ENDCHAR
STARTCHAR 2245
ENCODING 8773
SWIDTH 925 0
DWIDTH 9 0
BBX 7 4 1 1
BITMAP
3C
00
FE
7C
ENDCHAR
STARTCHAR 2248
ENCODING 8776
SWIDTH 925 0
DWIDTH 9 0
BBX 5 4 2 1
BITMAP
E0
18
00
78
ENDCHAR
STARTCHAR 2250
ENCODING 8784
SWIDTH 925 0
DWIDTH 9 0
BBX 5 4 2 1
BITMAP
20
00
F8
F8
ENDCHAR
STARTCHAR 2251
ENCODING 8785
SWIDTH 925 0
DWIDTH 9 0
BBX 5 6 2 0
BITMAP
20
00
F8
F8
00
20
ENDCHAR
STARTCHAR 2252
ENCODING 8786
SWIDTH 720 0
DWIDTH 7 0
BBX 5 6 1 0
BITMAP
80
00
78
00
78
08
ENDCHAR
STARTCHAR 2253
ENCODING 8787
SWIDTH 925 0
DWIDTH 9 0
BBX 5 6 2 0
BITMAP
08
00
F8
F8
00
80
ENDCHAR
STARTCHAR 225A
ENCODING 8794
SWIDTH 925 0
DWIDTH 9 0
BBX 4 6 3 0
BITMAP
10
90
A0
40
00
F0
ENDCHAR
STARTCHAR 2260
ENCODING 8800
SWIDTH 617 0
DWIDTH 6 0
BBX 6 6 0 0
BITMAP
10
10
FC
10
FC
20
ENDCHAR
STARTCHAR 2261
ENCODING 8801
SWIDTH 720 0
DWIDTH 7 0
BBX 4 4 2 1
BITMAP
F0
00
F0
F0
ENDCHAR
STARTCHAR 2262
ENCODING 8802
SWIDTH 925 0
DWIDTH 9 0
BBX 7 4 1 1
BITMAP
FE
7C
10
FE
ENDCHAR
STARTCHAR 2264
ENCODING 8804
SWIDTH 720 0
DWIDTH 7 0
BBX 5 7 1 0
BITMAP
18
60
80
C0
30
08
F0
ENDCHAR
STARTCHAR 2265
ENCODING 8805
SWIDTH 720 0
DWIDTH 7 0
BBX 5 7 1 0
BITMAP
80
60
18
18
60
80
F0
ENDCHAR
STARTCHAR 2266
ENCODING 8806
SWIDTH 925 0
DWIDTH 9 0
BBX 6 7 2 0
BITMAP
04
38
C0
60
18
00
78
ENDCHAR
STARTCHAR 2267
ENCODING 8807
SWIDTH 925 0
DWIDTH 9 0
BBX 5 6 2 1
BITMAP
60
18
30
C0
00
78
ENDCHAR
STARTCHAR 226A
ENCODING 8810
SWIDTH 925 0
DWIDTH 9 0
BBX 7 6 1 0
BITMAP
0A
3C
50
D0
3C
0A
ENDCHAR
STARTCHAR 226B
ENCODING 8811
SWIDTH 925 0
DWIDTH 9 0
BBX 7 6 1 0
BITMAP
D0
2C
1A
1A
2C
D0
ENDCHAR
STARTCHAR 226E
ENCODING 8814
SWIDTH 925 0
DWIDTH 9 0
BBX 5 6 2 0
BITMAP
18
20
E0
E0
30
08
ENDCHAR
STARTCHAR 226F
ENCODING 8815
SWIDTH 925 0
DWIDTH 9 0
BBX 5 6 2 0
BITMAP
C0
20
38
28
30
C0
ENDCHAR
STARTCHAR 2270
ENCODING 8816
SWIDTH 925 0
DWIDTH 9 0
BBX 6 7 2 -1
BITMAP
04
38
D0
60
38
FC
78
ENDCHAR
STARTCHAR 2271
ENCODING 8817
SWIDTH 925 0
DWIDTH 9 0
BBX 6 8 2 -1
BITMAP
10
60
38
30
E0
FC
78
40
ENDCHAR
STARTCHAR 2272
ENCODING 8818
SWIDTH 925 0
DWIDTH 9 0
BBX 6 6 2 0
BITMAP
18
60
C0
38
04
FC
ENDCHAR
STARTCHAR 2273
ENCODING 8819
SWIDTH 925 0
DWIDTH 9 0
BBX 6 6 2 0
BITMAP
60
10
18
60
00
FC
ENDCHAR
STARTCHAR 2276
ENCODING 8822
SWIDTH 925 0
DWIDTH 9 0
BBX 6 6 1 0
BITMAP
1C
60
DC
30
0C
70
ENDCHAR
STARTCHAR 2277
ENCODING 8823
SWIDTH 925 0
DWIDTH 9 0
BBX 6 6 2 0
BITMAP
F0
0C
FC
30
E0
18
ENDCHAR
STARTCHAR 2279
ENCODING 8825
SWIDTH 925 0
DWIDTH 9 0
BBX 6 8 2 -1
BITMAP
10
F0
1C
EC
30
E0
58
40
ENDCHAR
STARTCHAR 227A
ENCODING 8826
SWIDTH 925 0
DWIDTH 9 0
BBX 5 6 3 0
BITMAP
08
30
C0
40
30
08
ENDCHAR
STARTCHAR 227B
ENCODING 8827
SWIDTH 925 0
DWIDTH 9 0
BBX 5 5 2 0
BITMAP
80
40
38
30
C0
ENDCHAR
STARTCHAR 2280
ENCODING 8832
SWIDTH 925 0
DWIDTH 9 0
BBX 5 6 3 1
BITMAP
48
30
C0
40
70
08
ENDCHAR
STARTCHAR 2281
ENCODING 8833
SWIDTH 925 0
DWIDTH 9 0
BBX 5 7 2 0
BITMAP
20
A0
60
38
30
E0
20
ENDCHAR
STARTCHAR 2282
ENCODING 8834
SWIDTH 925 0
DWIDTH 9 0
BBX 6 6 1 0
BITMAP
7C
80
80
80
80
7C
ENDCHAR
STARTCHAR 2283
ENCODING 8835
SWIDTH 925 0
DWIDTH 9 0
BBX 6 6 2 0
BITMAP
F8
04
04
04
04
F8
ENDCHAR
STARTCHAR 2284
ENCODING 8836
SWIDTH 925 0
DWIDTH 9 0
BBX 5 6 2 0
BITMAP
68
90
90
90
A0
78
ENDCHAR
STARTCHAR 2285
ENCODING 8837
SWIDTH 925 0
DWIDTH 9 0
BBX 5 6 3 0
BITMAP
A0
50
48
48
90
E0
ENDCHAR
STARTCHAR 2286
ENCODING 8838
SWIDTH 925 0
DWIDTH 9 0
BBX 6 6 1 0
BITMAP
7C
80
80
80
00
7C
ENDCHAR
STARTCHAR 2287
ENCODING 8839
SWIDTH 925 0
DWIDTH 9 0
BBX 6 6 2 0
BITMAP
F8
04
04
04
00
F8
ENDCHAR
STARTCHAR 228A
ENCODING 8842
SWIDTH 925 0
DWIDTH 9 0
BBX 6 7 1 -1
BITMAP
FC
80
80
50
6C
10
7C
ENDCHAR
STARTCHAR 228B
ENCODING 8843
SWIDTH 925 0
DWIDTH 9 0
BBX 6 7 2 -1
BITMAP
FC
04
04
28
D8
20
F8
ENDCHAR
STARTCHAR 2295
ENCODING 8853
SWIDTH 925 0
DWIDTH 9 0
BBX 8 8 1 -1
BITMAP
7C
82
91
91
FD
91
82
7C
ENDCHAR
STARTCHAR 2296
ENCODING 8854
SWIDTH 925 0
DWIDTH 9 0
BBX 8 8 1 -1
BITMAP
7C
82
81
81
FD
81
82
7C
ENDCHAR
STARTCHAR 2297
ENCODING 8855
SWIDTH 925 0
DWIDTH 9 0
BBX 8 8 1 -1
BITMAP
7C
82
A5
99
99
A5
82
7C
ENDCHAR
STARTCHAR 2299
ENCODING 8857
SWIDTH 925 0
DWIDTH 9 0
BBX 8 8 1 -1
BITMAP
7C
82
99
B9
B9
99
82
7C
ENDCHAR
STARTCHAR 22A3
ENCODING 8867
SWIDTH 925 0
DWIDTH 9 0
BBX 4 4 3 1
BITMAP
10
F0
10
10
ENDCHAR
STARTCHAR 22A4
ENCODING 8868
SWIDTH 925 0
DWIDTH 9 0
BBX 6 5 2 0
BITMAP
FC
20
20
20
20
ENDCHAR
STARTCHAR 22A5
ENCODING 8869
SWIDTH 925 0
DWIDTH 9 0
BBX 4 5 3 1
BITMAP
40
40
40
40
F0
ENDCHAR
STARTCHAR 22BB
ENCODING 8891
SWIDTH 925 0
DWIDTH 9 0
BBX 5 6 2 0
BITMAP
88
88
50
30
20
78
ENDCHAR
STARTCHAR 22BC
ENCODING 8892
SWIDTH 925 0
DWIDTH 9 0
BBX 6 6 2 0
BITMAP
FC
20
20
50
48
80
ENDCHAR
STARTCHAR 22CE
ENCODING 8910
SWIDTH 925 0
DWIDTH 9 0
BBX 5 6 2 0
BITMAP
20
20
30
50
48
80
ENDCHAR
STARTCHAR 22CF
ENCODING 8911
SWIDTH 925 0
DWIDTH 9 0
BBX 5 5 2 0
BITMAP
88
48
50
30
20
ENDCHAR
STARTCHAR 22DA
ENCODING 8922
SWIDTH 925 0
DWIDTH 9 0
BBX 7 7 1 0
BITMAP
06
78
1C
3C
C0
38
74
ENDCHAR
STARTCHAR 22DB
ENCODING 8923
SWIDTH 925 0
DWIDTH 9 0
BBX 6 7 1 0
BITMAP
E0
1C
30
78
04
78
1C
ENDCHAR
STARTCHAR 22EE
ENCODING 8942
SWIDTH 925 0
DWIDTH 9 0
BBX 1 4 4 0
BITMAP
80
00
00
80
ENDCHAR
STARTCHAR 22EF
ENCODING 8943
SWIDTH 925 0
DWIDTH 9 0
BBX 7 1 1 3
BITMAP
92
ENDCHAR
STARTCHAR 2306
ENCODING 8966
SWIDTH 925 0
DWIDTH 9 0
BBX 6 6 2 0
BITMAP
78
FC
20
30
50
08
ENDCHAR
STARTCHAR 2312
ENCODING 8978
SWIDTH 925 0
DWIDTH 9 0
BBX 5 2 2 5
BITMAP
78
88
ENDCHAR
STARTCHAR 2314
ENCODING 8980
SWIDTH 925 0
DWIDTH 9 0
BBX 6 6 2 0
BITMAP
78
84
88
48
50
20
ENDCHAR
STARTCHAR 2460
ENCODING 9312
SWIDTH 925 0
DWIDTH 9 0
BBX 9 8 0 -1
BITMAP
3F00
4080
8880
8880
8880
8880
4880
3F00
ENDCHAR
STARTCHAR 2461
ENCODING 9313
SWIDTH 925 0
DWIDTH 9 0
BBX 9 8 0 -1
BITMAP
3F00
5C80
9280
8480
8880
9080
4880
3F00
ENDCHAR
STARTCHAR 2462
ENCODING 9314
SWIDTH 925 0
DWIDTH 9 0
BBX 9 8 0 -1
BITMAP
3F00
4C80
9280
8680
8280
8280
5480
3F00
ENDCHAR
STARTCHAR 2463
ENCODING 9315
SWIDTH 925 0
DWIDTH 9 0
BBX 9 8 0 -1
BITMAP
3F00
4480
8C80
9480
9480
8C80
4080
3F00
ENDCHAR
STARTCHAR 2464
ENCODING 9316
SWIDTH 925 0
DWIDTH 9 0
BBX 9 8 0 -1
BITMAP
3F00
5880
9080
9C80
8280
8280
5480
3F00
ENDCHAR
STARTCHAR 2465
ENCODING 9317
SWIDTH 925 0
DWIDTH 9 0
BBX 9 8 0 -1
BITMAP
3F00
5880
9080
9C80
9280
9280
5480
3F00
ENDCHAR
STARTCHAR 2466
ENCODING 9318
SWIDTH 925 0
DWIDTH 9 0
BBX 9 8 0 -1
BITMAP
3F00
4080
8C80
8480
8880
8880
4880
3F00
ENDCHAR
STARTCHAR 2467
ENCODING 9319
SWIDTH 925 0
DWIDTH 9 0
BBX 9 8 0 -1
BITMAP
3F00
5C80
9280
9C80
9280
9280
5480
3F00
ENDCHAR
STARTCHAR 2468
ENCODING 9320
SWIDTH 925 0
DWIDTH 9 0
BBX 9 8 0 -1
BITMAP
3F00
5C80
9280
9280
9E80
8280
5480
3F00
ENDCHAR
STARTCHAR 2469
ENCODING 9321
SWIDTH 925 0
DWIDTH 9 0
BBX 9 8 0 -1
BITMAP
3F00
5680
B980
9980
9980
9980
5680
3F00
ENDCHAR
STARTCHAR 246A
ENCODING 9322
SWIDTH 925 0
DWIDTH 9 0
BBX 9 8 0 -1
BITMAP
3F00
5280
B680
9280
9280
9280
5280
3F00
ENDCHAR
STARTCHAR 246B
ENCODING 9323
SWIDTH 925 0
DWIDTH 9 0
BBX 9 8 0 -1
BITMAP
3F00
4080
AE80
9A80
9280
9480
4880
3F00
ENDCHAR
STARTCHAR 246C
ENCODING 9324
SWIDTH 925 0
DWIDTH 9 0
BBX 9 8 0 -1
BITMAP
3F00
4080
AE80
9280
9180
9180
4A80
3F00
ENDCHAR
STARTCHAR 246D
ENCODING 9325
SWIDTH 925 0
DWIDTH 9 0
BBX 9 8 0 -1
BITMAP
3F00
4280
A680
9680
9A80
9680
4280
3F00
ENDCHAR
STARTCHAR 246E
ENCODING 9326
SWIDTH 925 0
DWIDTH 9 0
BBX 9 8 0 -1
BITMAP
3F00
4080
9480
9E80
9180
9980
4A80
3F00
ENDCHAR
STARTCHAR 246F
ENCODING 9327
SWIDTH 925 0
DWIDTH 9 0
BBX 9 8 0 -1
BITMAP
3F00
4680
A880
9E80
9980
9980
4680
3F00
ENDCHAR
STARTCHAR 2470
ENCODING 9328
SWIDTH 925 0
DWIDTH 9 0
BBX 9 8 0 -1
BITMAP
3F00
4E80
A280
9280
9480
9480
4080
3F00
ENDCHAR
STARTCHAR 2471
ENCODING 9329
SWIDTH 925 0
DWIDTH 9 0
BBX 9 8 0 -1
BITMAP
3F00
4680
A980
9680
9980
9980
4680
3F00
ENDCHAR
STARTCHAR 2472
ENCODING 9330
SWIDTH 925 0
DWIDTH 9 0
BBX 9 8 0 -1
BITMAP
3F00
4680
A980
9980
9780
9980
4680
3F00
ENDCHAR
STARTCHAR 2473
ENCODING 9331
SWIDTH 925 0
DWIDTH 9 0
BBX 9 8 0 -1
BITMAP
3F00
7680
8980
8980
9580
A580
7A80
3F00
ENDCHAR
STARTCHAR 2474
ENCODING 9332
SWIDTH 925 0
DWIDTH 9 0
BBX 9 10 0 -2
BITMAP
4000
4080
8880
8880
8880
8880
8880
8880
4080
4000
ENDCHAR
STARTCHAR 2475
ENCODING 9333
SWIDTH 925 0
DWIDTH 9 0
BBX 9 10 0 -2
BITMAP
4000
4C80
9280
9280
8480
8C80
9080
9E80
4080
4000
ENDCHAR
STARTCHAR 2476
ENCODING 9334
SWIDTH 925 0
DWIDTH 9 0
BBX 9 10 0 -2
BITMAP
4000
4C80
9280
9280
8C80
9280
9280
8C80
4080
4000
ENDCHAR
STARTCHAR 2477
ENCODING 9335
SWIDTH 925 0
DWIDTH 9 0
BBX 9 10 0 -2
BITMAP
4000
4480
8C80
8C80
9480
9480
BE80
8480
4080
4000
ENDCHAR
STARTCHAR 2478
ENCODING 9336
SWIDTH 925 0
DWIDTH 9 0
BBX 9 10 0 -2
BITMAP
4000
4080
9E80
9080
9C80
8280
9280
9C80
4080
4000
ENDCHAR
STARTCHAR 2479
ENCODING 9337
SWIDTH 925 0
DWIDTH 9 0
BBX 9 10 0 -2
BITMAP
4000
4080
8C80
9080
AC80
9280
9280
9C80
4080
4000
ENDCHAR
STARTCHAR 247A
ENCODING 9338
SWIDTH 925 0
DWIDTH 9 0
BBX 9 10 0 -2
BITMAP
4000
4080
9E80
8280
8480
8880
8880
8880
4880
4000
ENDCHAR
STARTCHAR 247B
ENCODING 9339
SWIDTH 925 0
DWIDTH 9 0
BBX 9 10 0 -2
BITMAP
4000
4080
9C80
9280
9280
9C80
9280
9280
5C80
4000
ENDCHAR
STARTCHAR 247C
ENCODING 9340
SWIDTH 925 0
DWIDTH 9 0
BBX 9 10 0 -2
BITMAP
4000
5C80
9280
A280
9280
9E80
9280
9C80
4080
4000
ENDCHAR
STARTCHAR 247D
ENCODING 9341
SWIDTH 925 0
DWIDTH 9 0
BBX 9 10 0 -2
BITMAP
4000
4080
A680
9980
9980
9980
9980
9680
4080
4000
ENDCHAR
STARTCHAR 247E
ENCODING 9342
SWIDTH 925 0
DWIDTH 9 0
BBX 9 10 0 -2
BITMAP
4000
4080
B680
9280
9280
9280
9280
9280
4080
4000
ENDCHAR
STARTCHAR 247F
ENCODING 9343
SWIDTH 925 0
DWIDTH 9 0
BBX 9 10 0 -2
BITMAP
4000
4080
6680
A980
A980
A680
A880
AF80
4080
4000
ENDCHAR
STARTCHAR 2480
ENCODING 9344
SWIDTH 925 0
DWIDTH 9 0
BBX 9 10 0 -2
BITMAP
4000
4080
A680
A980
A280
A180
A980
A680
4080
4000
ENDCHAR
STARTCHAR 2481
ENCODING 9345
SWIDTH 925 0
DWIDTH 9 0
BBX 9 10 0 -2
BITMAP
4000
4080
A280
9680
9680
9A80
9F80
9080
4080
4000
ENDCHAR
STARTCHAR 2482
ENCODING 9346
SWIDTH 925 0
DWIDTH 9 0
BBX 9 10 0 -2
BITMAP
4000
4080
A680
A880
AE80
A180
A980
A680
4080
4000
ENDCHAR
STARTCHAR 2483
ENCODING 9347
SWIDTH 925 0
DWIDTH 9 0
BBX 9 10 0 -2
BITMAP
4000
4080
A680
A880
AE80
A980
A980
AE80
4080
4000
ENDCHAR
STARTCHAR 2484
ENCODING 9348
SWIDTH 925 0
DWIDTH 9 0
BBX 9 10 0 -2
BITMAP
4000
4080
8F80
A280
A280
A480
A480
A480
4080
4000
ENDCHAR
STARTCHAR 2485
ENCODING 9349
SWIDTH 925 0
DWIDTH 9 0
BBX 9 10 0 -2
BITMAP
4000
4080
AE80
A980
A680
A980
A980
AF80
4080
4000
ENDCHAR
STARTCHAR 2486
ENCODING 9350
SWIDTH 925 0
DWIDTH 9 0
BBX 9 10 0 -2
BITMAP
4000
4080
AE80
A980
A980
A780
A180
AE80
4080
4000
ENDCHAR
STARTCHAR 2487
ENCODING 9351
SWIDTH 925 0
DWIDTH 9 0
BBX 9 10 0 -2
BITMAP
4000
4080
BF80
8D80
8980
9580
A580
BF80
4080
4000
ENDCHAR
STARTCHAR 249C
ENCODING 9372
SWIDTH 925 0
DWIDTH 9 0
BBX 9 10 0 -2
BITMAP
4000
4080
8C80
9280
8E80
9280
9280
9E80
4080
4000
ENDCHAR
STARTCHAR 249D
ENCODING 9373
SWIDTH 925 0
DWIDTH 9 0
BBX 9 10 0 -2
BITMAP
4000
5080
9080
9C80
9280
9280
9280
9280
5C80
4000
ENDCHAR
STARTCHAR 249E
ENCODING 9374
SWIDTH 925 0
DWIDTH 9 0
BBX 9 10 0 -2
BITMAP
4000
4080
8C80
9280
A080
A080
9280
9C80
4080
4000
ENDCHAR
STARTCHAR 249F
ENCODING 9375
SWIDTH 925 0
DWIDTH 9 0
BBX 9 10 0 -2
BITMAP
4000
4280
8280
9E80
A280
A280
A280
A680
5E80
4000
ENDCHAR
STARTCHAR 24A0
ENCODING 9376
SWIDTH 925 0
DWIDTH 9 0
BBX 9 10 0 -2
BITMAP
4000
4080
9C80
9280
9E80
A080
9280
9C80
4080
4000
ENDCHAR
STARTCHAR 24A1
ENCODING 9377
SWIDTH 925 0
DWIDTH 9 0
BBX 9 10 0 -2
BITMAP
4000
4080
8880
8880
8C80
8880
8880
8880
4880
4000
ENDCHAR
STARTCHAR 24A2
ENCODING 9378
SWIDTH 925 0
DWIDTH 9 0
BBX 9 10 0 -2
BITMAP
4000
4080
9E80
9280
A280
9280
9E80
8280
5C80
4000
ENDCHAR
STARTCHAR 24A3
ENCODING 9379
SWIDTH 925 0
DWIDTH 9 0
BBX 9 10 0 -2
BITMAP
4000
5080
9080
9C80
9280
9280
9280
9280
5280
4000
ENDCHAR
STARTCHAR 24A4
ENCODING 9380
SWIDTH 925 0
DWIDTH 9 0
BBX 9 10 0 -2
BITMAP
4000
4080
8880
8880
8880
8880
8880
8880
4880
4000
ENDCHAR
STARTCHAR 24A5
ENCODING 9381
SWIDTH 925 0
DWIDTH 9 0
BBX 9 10 0 -2
BITMAP
4000
4880
8080
8880
8880
8880
8880
8880
4880
4000
ENDCHAR
STARTCHAR 24A6
ENCODING 9382
SWIDTH 925 0
DWIDTH 9 0
BBX 9 10 0 -2
BITMAP
4000
5080
9080
9480
9880
9480
9480
9280
4080
4000
ENDCHAR
STARTCHAR 24A7
ENCODING 9383
SWIDTH 925 0
DWIDTH 9 0
BBX 9 10 0 -2
BITMAP
4000
4880
8880
8880
8880
8880
8880
8880
4880
4000
ENDCHAR
STARTCHAR 24A8
ENCODING 9384
SWIDTH 925 0
DWIDTH 9 0
BBX 9 10 0 -2
BITMAP
4000
4080
BF80
C980
C980
C980
C980
C980
4080
4000
ENDCHAR
STARTCHAR 24A9
ENCODING 9385
SWIDTH 925 0
DWIDTH 9 0
BBX 9 10 0 -2
BITMAP
4000
4080
9C80
9280
9280
9280
9280
8080
4080
4000
ENDCHAR
STARTCHAR 24AA
ENCODING 9386
SWIDTH 925 0
DWIDTH 9 0
BBX 9 10 0 -2
BITMAP
4000
4080
9C80
9280
A280
A280
9280
9C80
4080
4000
ENDCHAR
STARTCHAR 24AB
ENCODING 9387
SWIDTH 925 0
DWIDTH 9 0
BBX 9 10 0 -2
BITMAP
4000
4080
9C80
9280
9280
9280
9C80
9080
5080
4000
ENDCHAR
STARTCHAR 24AC
ENCODING 9388
SWIDTH 925 0
DWIDTH 9 0
BBX 9 10 0 -2
BITMAP
4000
4080
9E80
A280
A280
A280
9E80
8280
4280
4000
ENDCHAR
STARTCHAR 24AD
ENCODING 9389
SWIDTH 925 0
DWIDTH 9 0
BBX 9 10 0 -2
BITMAP
4000
4080
8080
8C80
8880
8880
8880
8880
4080
4000
ENDCHAR
STARTCHAR 24AE
ENCODING 9390
SWIDTH 925 0
DWIDTH 9 0
BBX 9 10 0 -2
BITMAP
4000
4080
9C80
9280
9C80
8280
9280
9C80
4080
4000
ENDCHAR
STARTCHAR 24AF
ENCODING 9391
SWIDTH 925 0
DWIDTH 9 0
BBX 9 10 0 -2
BITMAP
4000
4080
8880
9C80
8880
8880
8880
8880
4080
4000
ENDCHAR
STARTCHAR 24B0
ENCODING 9392
SWIDTH 925 0
DWIDTH 9 0
BBX 9 10 0 -2
BITMAP
4000
4080
9280
9280
9280
9280
9280
9E80
4080
4000
ENDCHAR
STARTCHAR 24B1
ENCODING 9393
SWIDTH 925 0
DWIDTH 9 0
BBX 9 10 0 -2
BITMAP
4000
4080
8080
9280
9480
9480
8C80
8880
4080
4000
ENDCHAR
STARTCHAR 24B2
ENCODING 9394
SWIDTH 925 0
DWIDTH 9 0
BBX 9 10 0 -2
BITMAP
4000
4080
8080
C980
A980
B680
9680
9280
4080
4000
ENDCHAR
STARTCHAR 24B3
ENCODING 9395
SWIDTH 925 0
DWIDTH 9 0
BBX 9 10 0 -2
BITMAP
4000
4080
9280
9480
8880
8880
9480
9280
4080
4000
ENDCHAR
STARTCHAR 24B4
ENCODING 9396
SWIDTH 925 0
DWIDTH 9 0
BBX 9 10 0 -2
BITMAP
4000
4080
9280
9280
9480
8C80
8880
8880
5880
4000
ENDCHAR
STARTCHAR 24B5
ENCODING 9397
SWIDTH 925 0
DWIDTH 9 0
BBX 9 10 0 -2
BITMAP
4000
4080
9E80
8480
8880
9080
9E80
8080
4080
4000
ENDCHAR
STARTCHAR 24B6
ENCODING 9398
SWIDTH 925 0
DWIDTH 9 0
BBX 9 8 0 -1
BITMAP
3F00
4880
8C80
9480
9C80
A280
6080
3F00
ENDCHAR
STARTCHAR 24B7
ENCODING 9399
SWIDTH 925 0
DWIDTH 9 0
BBX 9 8 0 -1
BITMAP
3F00
5E80
A280
BE80
A280
A280
5E80
3F00
ENDCHAR
STARTCHAR 24B8
ENCODING 9400
SWIDTH 925 0
DWIDTH 9 0
BBX 9 8 0 -1
BITMAP
3F00
5C80
A280
A080
A080
A280
5480
3F00
ENDCHAR
STARTCHAR 24B9
ENCODING 9401
SWIDTH 925 0
DWIDTH 9 0
BBX 9 8 0 -1
BITMAP
3F00
5C80
9280
9180
9180
9280
5C80
3F00
ENDCHAR
STARTCHAR 24BA
ENCODING 9402
SWIDTH 925 0
DWIDTH 9 0
BBX 9 8 0 -1
BITMAP
3F00
5E80
9080
9880
9080
9080
5E80
3F00
ENDCHAR
STARTCHAR 24BB
ENCODING 9403
SWIDTH 925 0
DWIDTH 9 0
BBX 9 8 0 -1
BITMAP
3F00
5E80
9080
9080
9880
9080
5080
3F00
ENDCHAR
STARTCHAR 24BC
ENCODING 9404
SWIDTH 925 0
DWIDTH 9 0
BBX 9 8 0 -1
BITMAP
3F00
5C80
A280
A080
A280
A280
5480
3F00
ENDCHAR
STARTCHAR 24BD
ENCODING 9405
SWIDTH 925 0
DWIDTH 9 0
BBX 9 8 0 -1
BITMAP
3F00
6280
A280
BE80
A280
A280
6280
3F00
ENDCHAR
STARTCHAR 24BE
ENCODING 9406
SWIDTH 925 0
DWIDTH 9 0
BBX 9 8 0 -1
BITMAP
3F00
4880
8880
8880
8880
8880
4880
3F00
ENDCHAR
STARTCHAR 24BF
ENCODING 9407
SWIDTH 925 0
DWIDTH 9 0
BBX 9 8 0 -1
BITMAP
3F00
4480
8480
8480
8480
8480
5480
3F00
ENDCHAR
STARTCHAR 24C0
ENCODING 9408
SWIDTH 925 0
DWIDTH 9 0
BBX 9 8 0 -1
BITMAP
3F00
4280
A480
A880
9880
A480
4280
3F00
ENDCHAR
STARTCHAR 24C1
ENCODING 9409
SWIDTH 925 0
DWIDTH 9 0
BBX 9 8 0 -1
BITMAP
3F00
5080
9080
9080
9080
9080
5E80
3F00
ENDCHAR
STARTCHAR 24C2
ENCODING 9410
SWIDTH 925 0
DWIDTH 9 0
BBX 9 8 0 -1
BITMAP
3F00
6080
A280
B280
B580
AD80
6880
3F00
ENDCHAR
STARTCHAR 24C3
ENCODING 9411
SWIDTH 925 0
DWIDTH 9 0
BBX 9 8 0 -1
BITMAP
3F00
6280
B280
AA80
A680
A680
6280
3F00
ENDCHAR
STARTCHAR 24C4
ENCODING 9412
SWIDTH 925 0
DWIDTH 9 0
BBX 9 8 0 -1
BITMAP
3F00
5C80
A280
A180
A180
A280
5480
3F00
ENDCHAR
STARTCHAR 24C5
ENCODING 9413
SWIDTH 925 0
DWIDTH 9 0
BBX 9 8 0 -1
BITMAP
3F00
5C80
9280
9280
9C80
9080
5080
3F00
ENDCHAR
STARTCHAR 24C6
ENCODING 9414
SWIDTH 925 0
DWIDTH 9 0
BBX 9 8 0 -1
BITMAP
3F00
5C80
A280
A180
A180
A680
5680
3F00
ENDCHAR
STARTCHAR 24C7
ENCODING 9415
SWIDTH 925 0
DWIDTH 9 0
BBX 9 8 0 -1
BITMAP
3F00
7E80
A280
A280
BE80
A280
4280
3F00
ENDCHAR
STARTCHAR 24C8
ENCODING 9416
SWIDTH 925 0
DWIDTH 9 0
BBX 9 8 0 -1
BITMAP
3F00
5C80
A280
9880
8680
A280
5480
3F00
ENDCHAR
STARTCHAR 24C9
ENCODING 9417
SWIDTH 925 0
DWIDTH 9 0
BBX 9 8 0 -1
BITMAP
3F00
5E80
8880
8880
8880
8880
4880
3F00
ENDCHAR
STARTCHAR 24CA
ENCODING 9418
SWIDTH 925 0
DWIDTH 9 0
BBX 9 8 0 -1
BITMAP
3F00
6280
A280
A280
A280
A280
5280
3F00
ENDCHAR
STARTCHAR 24CB
ENCODING 9419
SWIDTH 925 0
DWIDTH 9 0
BBX 9 8 0 -1
BITMAP
3F00
6280
9280
9280
9480
8C80
4880
3F00
ENDCHAR
STARTCHAR 24CC
ENCODING 9420
SWIDTH 925 0
DWIDTH 9 0
BBX 9 8 0 -1
BITMAP
3F00
4900
C980
AD80
B580
B680
5280
3F00
ENDCHAR
STARTCHAR 24CD
ENCODING 9421
SWIDTH 925 0
DWIDTH 9 0
BBX 9 8 0 -1
BITMAP
3F00
4280
9480
8880
8880
9480
4280
3F00
ENDCHAR
STARTCHAR 24CE
ENCODING 9422
SWIDTH 925 0
DWIDTH 9 0
BBX 9 8 0 -1
BITMAP
3F00
6280
9280
9480
8880
8880
4880
3F00
ENDCHAR
STARTCHAR 24CF
ENCODING 9423
SWIDTH 925 0
DWIDTH 9 0
BBX 9 8 0 -1
BITMAP
3F00
5E80
8480
8480
8880
9080
5E80
3F00
ENDCHAR
STARTCHAR 24D0
ENCODING 9424
SWIDTH 925 0
DWIDTH 9 0
BBX 9 8 0 -1
BITMAP
3F00
4080
9C80
8280
9E80
9C80
4080
3F00
ENDCHAR
STARTCHAR 24D1
ENCODING 9425
SWIDTH 925 0
DWIDTH 9 0
BBX 9 8 0 -1
BITMAP
3F00
5080
9080
9E80
9280
9280
5280
3F00
ENDCHAR
STARTCHAR 24D2
ENCODING 9426
SWIDTH 925 0
DWIDTH 9 0
BBX 9 8 0 -1
BITMAP
3F00
4080
9880
9080
9080
9C80
4080
3F00
ENDCHAR
STARTCHAR 24D3
ENCODING 9427
SWIDTH 925 0
DWIDTH 9 0
BBX 9 8 0 -1
BITMAP
3F00
4280
8280
9C80
A280
A280
5480
3F00
ENDCHAR
STARTCHAR 24D4
ENCODING 9428
SWIDTH 925 0
DWIDTH 9 0
BBX 9 8 0 -1
BITMAP
3F00
4080
9C80
9280
9C80
9C80
4080
3F00
ENDCHAR
STARTCHAR 24D5
ENCODING 9429
SWIDTH 925 0
DWIDTH 9 0
BBX 9 8 0 -1
BITMAP
3F00
4880
8880
8880
8880
8880
4880
3F00
ENDCHAR
STARTCHAR 24D6
ENCODING 9430
SWIDTH 925 0
DWIDTH 9 0
BBX 9 8 0 -1
BITMAP
3F00
5E80
9280
9280
9E80
8280
5480
3F00
ENDCHAR
STARTCHAR 24D7
ENCODING 9431
SWIDTH 925 0
DWIDTH 9 0
BBX 9 8 0 -1
BITMAP
3F00
5080
9080
9C80
9280
9280
5280
3F00
ENDCHAR
STARTCHAR 24D8
ENCODING 9432
SWIDTH 925 0
DWIDTH 9 0
BBX 9 8 0 -1
BITMAP
3F00
4880
8080
8880
8880
8880
4880
3F00
ENDCHAR
STARTCHAR 24D9
ENCODING 9433
SWIDTH 925 0
DWIDTH 9 0
BBX 9 8 0 -1
BITMAP
3F00
4880
8880
8880
8880
8880
4080
3F00
ENDCHAR
STARTCHAR 24DA
ENCODING 9434
SWIDTH 925 0
DWIDTH 9 0
BBX 9 8 0 -1
BITMAP
3F00
5080
9080
9480
9880
9480
5280
3F00
ENDCHAR
STARTCHAR 24DB
ENCODING 9435
SWIDTH 925 0
DWIDTH 9 0
BBX 9 8 0 -1
BITMAP
3F00
4880
8880
8880
8880
8880
4880
3F00
ENDCHAR
STARTCHAR 24DC
ENCODING 9436
SWIDTH 925 0
DWIDTH 9 0
BBX 9 8 0 -1
BITMAP
3F00
4080
BF80
A980
A980
A980
4080
3F00
ENDCHAR
STARTCHAR 24DD
ENCODING 9437
SWIDTH 925 0
DWIDTH 9 0
BBX 9 8 0 -1
BITMAP
3F00
4080
9C80
9280
9280
9280
4080
3F00
ENDCHAR
STARTCHAR 24DE
ENCODING 9438
SWIDTH 925 0
DWIDTH 9 0
BBX 9 8 0 -1
BITMAP
3F00
4080
9C80
A280
A280
9C80
4080
3F00
ENDCHAR
STARTCHAR 24DF
ENCODING 9439
SWIDTH 925 0
DWIDTH 9 0
BBX 9 8 0 -1
BITMAP
3F00
4080
9C80
9280
9280
9C80
5080
3F00
ENDCHAR
STARTCHAR 24E0
ENCODING 9440
SWIDTH 925 0
DWIDTH 9 0
BBX 9 8 0 -1
BITMAP
3F00
4080
9C80
A280
A280
9C80
4280
3F00
ENDCHAR
STARTCHAR 24E1
ENCODING 9441
SWIDTH 925 0
DWIDTH 9 0
BBX 9 8 0 -1
BITMAP
3F00
4080
8C80
8880
8880
8880
4080
3F00
ENDCHAR
STARTCHAR 24E2
ENCODING 9442
SWIDTH 925 0
DWIDTH 9 0
BBX 9 8 0 -1
BITMAP
3F00
4080
9880
9880
9680
9C80
4080
3F00
ENDCHAR
STARTCHAR 24E3
ENCODING 9443
SWIDTH 925 0
DWIDTH 9 0
BBX 9 8 0 -1
BITMAP
3F00
4880
8880
8880
8880
8880
4880
3F00
ENDCHAR
STARTCHAR 24E4
ENCODING 9444
SWIDTH 925 0
DWIDTH 9 0
BBX 9 8 0 -1
BITMAP
3F00
4080
9280
9280
9280
9C80
4080
3F00
ENDCHAR
STARTCHAR 24E5
ENCODING 9445
SWIDTH 925 0
DWIDTH 9 0
BBX 9 8 0 -1
BITMAP
3F00
4080
9280
9480
8C80
8880
4080
3F00
ENDCHAR
STARTCHAR 24E6
ENCODING 9446
SWIDTH 925 0
DWIDTH 9 0
BBX 9 8 0 -1
BITMAP
3F00
4080
A980
AE80
B680
9280
4080
3F00
ENDCHAR
STARTCHAR 24E7
ENCODING 9447
SWIDTH 925 0
DWIDTH 9 0
BBX 9 8 0 -1
BITMAP
3F00
4080
9480
8880
8880
9480
4080
3F00
ENDCHAR
STARTCHAR 24E8
ENCODING 9448
SWIDTH 925 0
DWIDTH 9 0
BBX 9 8 0 -1
BITMAP
3F00
4080
9280
9480
8C80
8880
4880
3F00
ENDCHAR
STARTCHAR 24E9
ENCODING 9449
SWIDTH 925 0
DWIDTH 9 0
BBX 9 8 0 -1
BITMAP
3F00
4080
8C80
8480
8880
9080
4880
3F00
ENDCHAR
STARTCHAR 24EB
ENCODING 9451
SWIDTH 925 0
DWIDTH 9 0
BBX 9 8 0 -1
BITMAP
3E00
6D00
4980
ED80
ED80
6D80
6D00
3E00
ENDCHAR
STARTCHAR 24EC
ENCODING 9452
SWIDTH 925 0
DWIDTH 9 0
BBX 9 8 0 -1
BITMAP
3E00
7D00
5780
FF80
FF80
7F80
7100
3E00
ENDCHAR
STARTCHAR 24ED
ENCODING 9453
SWIDTH 925 0
DWIDTH 9 0
BBX 9 8 0 -1
BITMAP
3E00
7D00
5780
FD80
FF80
7E80
7500
3E00
ENDCHAR
STARTCHAR 24EE
ENCODING 9454
SWIDTH 925 0
DWIDTH 9 0
BBX 9 8 0 -1
BITMAP
3E00
7D00
5980
FD80
F580
7C80
7D00
3E00
ENDCHAR
STARTCHAR 24EF
ENCODING 9455
SWIDTH 925 0
DWIDTH 9 0
BBX 9 8 0 -1
BITMAP
3E00
7900
5780
F180
FF80
7680
7500
3E00
ENDCHAR
STARTCHAR 24F0
ENCODING 9456
SWIDTH 925 0
DWIDTH 9 0
BBX 9 8 0 -1
BITMAP
3E00
7900
5780
F180
F680
7680
7D00
3E00
ENDCHAR
STARTCHAR 24F1
ENCODING 9457
SWIDTH 925 0
DWIDTH 9 0
BBX 9 8 0 -1
BITMAP
3E00
7100
5F80
FF80
FB80
7B80
7B00
3E00
ENDCHAR
STARTCHAR 24F2
ENCODING 9458
SWIDTH 925 0
DWIDTH 9 0
BBX 9 8 0 -1
BITMAP
3E00
7D00
5780
F980
F780
7680
7500
3E00
ENDCHAR
STARTCHAR 24F3
ENCODING 9459
SWIDTH 925 0
DWIDTH 9 0
BBX 9 8 0 -1
BITMAP
3E00
7D00
5680
F680
F880
7680
7900
3E00
ENDCHAR
STARTCHAR 24F4
ENCODING 9460
SWIDTH 925 0
DWIDTH 9 0
BBX 9 8 0 -1
BITMAP
3E00
5B00
7680
FE80
EE80
5A80
4500
3E00
ENDCHAR
STARTCHAR 2500
ENCODING 9472
SWIDTH 925 0
DWIDTH 9 0
BBX 0 0 0 3
BITMAP
ENDCHAR
STARTCHAR 2501
ENCODING 9473
SWIDTH 925 0
DWIDTH 9 0
BBX 9 1 0 3
BITMAP
FF80
ENDCHAR
STARTCHAR 2502
ENCODING 9474
SWIDTH 925 0
DWIDTH 9 0
BBX 1 8 4 -1
BITMAP
80
80
80
80
80
80
80
80
ENDCHAR
STARTCHAR 2503
ENCODING 9475
SWIDTH 925 0
DWIDTH 9 0
BBX 1 10 4 -2
BITMAP
80
80
80
80
80
80
80
80
80
80
ENDCHAR
STARTCHAR 250C
ENCODING 9484
SWIDTH 925 0
DWIDTH 9 0
BBX 3 4 5 -2
BITMAP
60
80
80
80
ENDCHAR
STARTCHAR 250D
ENCODING 9485
SWIDTH 925 0
DWIDTH 9 0
BBX 4 1 5 -2
BITMAP
F0
ENDCHAR
STARTCHAR 250E
ENCODING 9486
SWIDTH 925 0
DWIDTH 9 0
BBX 4 5 4 -2
BITMAP
F0
80
80
80
80
ENDCHAR
STARTCHAR 250F
ENCODING 9487
SWIDTH 925 0
DWIDTH 9 0
BBX 5 6 4 -2
BITMAP
F8
80
80
80
80
80
ENDCHAR
STARTCHAR 2510
ENCODING 9488
SWIDTH 925 0
DWIDTH 9 0
BBX 4 4 1 -2
BITMAP
E0
10
10
10
ENDCHAR
STARTCHAR 2511
ENCODING 9489
SWIDTH 925 0
DWIDTH 9 0
BBX 5 5 0 -2
BITMAP
F8
08
08
08
08
ENDCHAR
STARTCHAR 2512
ENCODING 9490
SWIDTH 925 0
DWIDTH 9 0
BBX 4 5 1 -2
BITMAP
F0
10
10
10
10
ENDCHAR
STARTCHAR 2513
ENCODING 9491
SWIDTH 925 0
DWIDTH 9 0
BBX 5 6 0 -2
BITMAP
F8
08
08
08
08
08
ENDCHAR
STARTCHAR 2514
ENCODING 9492
SWIDTH 925 0
DWIDTH 9 0
BBX 3 4 5 4
BITMAP
80
80
80
60
ENDCHAR
STARTCHAR 2515
ENCODING 9493
SWIDTH 925 0
DWIDTH 9 0
BBX 4 1 5 7
BITMAP
F0
ENDCHAR
STARTCHAR 2516
ENCODING 9494
SWIDTH 925 0
DWIDTH 9 0
BBX 4 5 4 3
BITMAP
80
80
80
80
F0
ENDCHAR
STARTCHAR 2517
ENCODING 9495
SWIDTH 925 0
DWIDTH 9 0
BBX 5 6 4 2
BITMAP
80
80
80
80
80
F8
ENDCHAR
STARTCHAR 2518
ENCODING 9496
SWIDTH 925 0
DWIDTH 9 0
BBX 4 4 1 4
BITMAP
10
10
10
E0
ENDCHAR
STARTCHAR 2519
ENCODING 9497
SWIDTH 925 0
DWIDTH 9 0
BBX 5 5 0 3
BITMAP
08
08
08
08
F8
ENDCHAR
STARTCHAR 251A
ENCODING 9498
SWIDTH 925 0
DWIDTH 9 0
BBX 4 5 1 3
BITMAP
10
10
10
10
F0
ENDCHAR
STARTCHAR 251B
ENCODING 9499
SWIDTH 925 0
DWIDTH 9 0
BBX 5 6 0 2
BITMAP
08
08
08
08
08
F8
ENDCHAR
STARTCHAR 251C
ENCODING 9500
SWIDTH 925 0
DWIDTH 9 0
BBX 3 8 5 -1
BITMAP
80
80
80
80
E0
80
80
80
ENDCHAR
STARTCHAR 251D
ENCODING 9501
SWIDTH 925 0
DWIDTH 9 0
BBX 4 1 5 3
BITMAP
F0
ENDCHAR
STARTCHAR 251E
ENCODING 9502
SWIDTH 925 0
DWIDTH 9 0
BBX 4 9 4 -2
BITMAP
80
80
80
80
80
F0
80
80
80
ENDCHAR
STARTCHAR 251F
ENCODING 9503
SWIDTH 925 0
DWIDTH 9 0
BBX 4 10 4 -2
BITMAP
80
80
80
80
80
F0
80
80
80
80
ENDCHAR
STARTCHAR 2520
ENCODING 9504
SWIDTH 925 0
DWIDTH 9 0
BBX 4 10 4 -2
BITMAP
80
80
80
80
80
F0
80
80
80
80
ENDCHAR
STARTCHAR 2521
ENCODING 9505
SWIDTH 925 0
DWIDTH 9 0
BBX 5 9 4 -2
BITMAP
80
80
80
80
80
78
80
80
80
ENDCHAR
STARTCHAR 2522
ENCODING 9506
SWIDTH 925 0
DWIDTH 9 0
BBX 5 10 4 -2
BITMAP
80
80
80
80
F8
80
80
80
80
80
ENDCHAR
STARTCHAR 2523
ENCODING 9507
SWIDTH 925 0
DWIDTH 9 0
BBX 5 10 4 -2
BITMAP
80
80
80
80
80
F8
80
80
80
80
ENDCHAR
STARTCHAR 2524
ENCODING 9508
SWIDTH 925 0
DWIDTH 9 0
BBX 4 8 1 -1
BITMAP
10
10
10
10
F0
10
10
10
ENDCHAR
STARTCHAR 2525
ENCODING 9509
SWIDTH 925 0
DWIDTH 9 0
BBX 5 8 0 -1
BITMAP
08
08
08
08
F8
08
08
08
ENDCHAR
STARTCHAR 2526
ENCODING 9510
SWIDTH 925 0
DWIDTH 9 0
BBX 4 9 1 -2
BITMAP
10
10
10
10
10
F0
10
10
10
ENDCHAR
STARTCHAR 2527
ENCODING 9511
SWIDTH 925 0
DWIDTH 9 0
BBX 4 9 1 -1
BITMAP
10
10
10
10
F0
10
10
10
10
ENDCHAR
STARTCHAR 2528
ENCODING 9512
SWIDTH 925 0
DWIDTH 9 0
BBX 4 10 1 -2
BITMAP
10
10
10
10
10
F0
10
10
10
10
ENDCHAR
STARTCHAR 2529
ENCODING 9513
SWIDTH 925 0
DWIDTH 9 0
BBX 5 9 0 -2
BITMAP
08
08
08
08
08
F8
08
08
08
ENDCHAR
STARTCHAR 252A
ENCODING 9514
SWIDTH 925 0
DWIDTH 9 0
BBX 5 9 0 -1
BITMAP
08
08
08
F8
08
08
08
08
08
ENDCHAR
STARTCHAR 252B
ENCODING 9515
SWIDTH 925 0
DWIDTH 9 0
BBX 5 10 0 -2
BITMAP
08
08
08
08
F8
08
08
08
08
08
ENDCHAR
STARTCHAR 252C
ENCODING 9516
SWIDTH 925 0
DWIDTH 9 0
BBX 7 4 1 -2
BITMAP
FE
10
10
10
ENDCHAR
STARTCHAR 252D
ENCODING 9517
SWIDTH 925 0
DWIDTH 9 0
BBX 8 5 0 -2
BITMAP
FF
08
08
08
08
ENDCHAR
STARTCHAR 252E
ENCODING 9518
SWIDTH 925 0
DWIDTH 9 0
BBX 8 5 1 -2
BITMAP
FF
10
10
10
10
ENDCHAR
STARTCHAR 252F
ENCODING 9519
SWIDTH 925 0
DWIDTH 9 0
BBX 9 4 0 -2
BITMAP
FF80
0800
0800
0800
ENDCHAR
STARTCHAR 2530
ENCODING 9520
SWIDTH 925 0
DWIDTH 9 0
BBX 7 5 1 -2
BITMAP
FE
10
10
10
10
ENDCHAR
STARTCHAR 2531
ENCODING 9521
SWIDTH 925 0
DWIDTH 9 0
BBX 8 6 0 -2
BITMAP
FF
08
08
08
08
08
ENDCHAR
STARTCHAR 2532
ENCODING 9522
SWIDTH 925 0
DWIDTH 9 0
BBX 8 6 1 -2
BITMAP
FF
10
10
10
10
10
ENDCHAR
STARTCHAR 2533
ENCODING 9523
SWIDTH 925 0
DWIDTH 9 0
BBX 9 6 0 -2
BITMAP
FF80
0800
0800
0800
0800
0800
ENDCHAR
STARTCHAR 2534
ENCODING 9524
SWIDTH 925 0
DWIDTH 9 0
BBX 7 4 1 4
BITMAP
10
10
10
FE
ENDCHAR
STARTCHAR 2535
ENCODING 9525
SWIDTH 925 0
DWIDTH 9 0
BBX 8 5 0 3
BITMAP
08
08
08
08
FF
ENDCHAR
STARTCHAR 2536
ENCODING 9526
SWIDTH 925 0
DWIDTH 9 0
BBX 8 5 1 3
BITMAP
10
10
10
10
FF
ENDCHAR
STARTCHAR 2537
ENCODING 9527
SWIDTH 925 0
DWIDTH 9 0
BBX 9 4 0 4
BITMAP
0800
0800
0800
FF80
ENDCHAR
STARTCHAR 2538
ENCODING 9528
SWIDTH 925 0
DWIDTH 9 0
BBX 7 5 1 3
BITMAP
10
10
10
10
FE
ENDCHAR
STARTCHAR 2539
ENCODING 9529
SWIDTH 925 0
DWIDTH 9 0
BBX 8 6 0 2
BITMAP
08
08
08
08
08
FF
ENDCHAR
STARTCHAR 253A
ENCODING 9530
SWIDTH 925 0
DWIDTH 9 0
BBX 8 6 1 2
BITMAP
10
10
10
10
10
FF
ENDCHAR
STARTCHAR 253B
ENCODING 9531
SWIDTH 925 0
DWIDTH 9 0
BBX 9 6 0 2
BITMAP
0800
0800
0800
0800
0800
FF80
ENDCHAR
STARTCHAR 253C
ENCODING 9532
SWIDTH 925 0
DWIDTH 9 0
BBX 7 8 1 -1
BITMAP
10
10
10
10
FE
10
10
10
ENDCHAR
STARTCHAR 253D
ENCODING 9533
SWIDTH 925 0
DWIDTH 9 0
BBX 8 8 0 -1
BITMAP
08
08
08
F8
0F
08
08
08
ENDCHAR
STARTCHAR 253E
ENCODING 9534
SWIDTH 925 0
DWIDTH 9 0
BBX 8 8 1 -1
BITMAP
10
10
10
0F
F0
10
10
10
ENDCHAR
STARTCHAR 253F
ENCODING 9535
SWIDTH 925 0
DWIDTH 9 0
BBX 9 8 0 -1
BITMAP
0800
0800
0800
FF80
0800
0800
0800
0800
ENDCHAR
STARTCHAR 2540
ENCODING 9536
SWIDTH 925 0
DWIDTH 9 0
BBX 7 9 1 -2
BITMAP
10
10
10
10
10
FE
10
10
10
ENDCHAR
STARTCHAR 2541
ENCODING 9537
SWIDTH 925 0
DWIDTH 9 0
BBX 7 9 1 -1
BITMAP
10
10
10
10
FE
10
10
10
10
ENDCHAR
STARTCHAR 2542
ENCODING 9538
SWIDTH 925 0
DWIDTH 9 0
BBX 7 10 1 -2
BITMAP
10
10
10
10
10
FE
10
10
10
10
ENDCHAR
STARTCHAR 2543
ENCODING 9539
SWIDTH 925 0
DWIDTH 9 0
BBX 8 9 0 -2
BITMAP
08
08
08
08
FF
08
08
08
08
ENDCHAR
STARTCHAR 2544
ENCODING 9540
SWIDTH 925 0
DWIDTH 9 0
BBX 8 9 1 -2
BITMAP
10
10
10
10
EF
10
10
10
10
ENDCHAR
STARTCHAR 2545
ENCODING 9541
SWIDTH 925 0
DWIDTH 9 0
BBX 8 9 0 -1
BITMAP
08
08
08
FF
08
08
08
08
08
ENDCHAR
STARTCHAR 2546
ENCODING 9542
SWIDTH 925 0
DWIDTH 9 0
BBX 8 9 1 -1
BITMAP
10
10
10
FF
10
10
10
10
10
ENDCHAR
STARTCHAR 2547
ENCODING 9543
SWIDTH 925 0
DWIDTH 9 0
BBX 9 9 0 -2
BITMAP
0800
0800
0800
0800
FF80
0800
0800
0800
0800
ENDCHAR
STARTCHAR 2548
ENCODING 9544
SWIDTH 925 0
DWIDTH 9 0
BBX 9 9 0 -1
BITMAP
0800
0800
0800
FF80
0800
0800
0800
0800
0800
ENDCHAR
STARTCHAR 2549
ENCODING 9545
SWIDTH 925 0
DWIDTH 9 0
BBX 8 10 0 -2
BITMAP
08
08
08
08
FF
08
08
08
08
08
ENDCHAR
STARTCHAR 254A
ENCODING 9546
SWIDTH 925 0
DWIDTH 9 0
BBX 8 10 1 -2
BITMAP
10
10
10
10
FF
10
10
10
10
10
ENDCHAR
STARTCHAR 254B
ENCODING 9547
SWIDTH 925 0
DWIDTH 9 0
BBX 9 10 0 -2
BITMAP
0800
0800
0800
0800
FF80
0800
0800
0800
0800
0800
ENDCHAR
STARTCHAR 2592
ENCODING 9618
SWIDTH 925 0
DWIDTH 9 0
BBX 7 8 1 -1
BITMAP
FE
82
82
82
82
82
82
FE
ENDCHAR
STARTCHAR 25A0
ENCODING 9632
SWIDTH 925 0
DWIDTH 9 0
BBX 7 6 1 0
BITMAP
FE
FE
FE
FE
FE
FE
ENDCHAR
STARTCHAR 25A1
ENCODING 9633
SWIDTH 925 0
DWIDTH 9 0
BBX 7 6 1 0
BITMAP
FE
82
82
82
82
FE
ENDCHAR
STARTCHAR 25A3
ENCODING 9635
SWIDTH 925 0
DWIDTH 9 0
BBX 7 8 1 -1
BITMAP
FE
82
FE
FE
FE
FE
82
FE
ENDCHAR
STARTCHAR 25A4
ENCODING 9636
SWIDTH 925 0
DWIDTH 9 0
BBX 7 8 1 -1
BITMAP
FE
FE
FE
FE
FE
FE
FE
FE
ENDCHAR
STARTCHAR 25A5
ENCODING 9637
SWIDTH 925 0
DWIDTH 9 0
BBX 7 8 1 -1
BITMAP
FE
AA
AA
AA
AA
AA
AA
FE
ENDCHAR
STARTCHAR 25A6
ENCODING 9638
SWIDTH 925 0
DWIDTH 9 0
BBX 7 8 1 -1
BITMAP
FE
FE
FE
FE
FE
FE
FE
FE
ENDCHAR
STARTCHAR 25A7
ENCODING 9639
SWIDTH 925 0
DWIDTH 9 0
BBX 7 8 1 -1
BITMAP
FE
EA
B6
DA
AE
D6
AA
FE
ENDCHAR
STARTCHAR 25A8
ENCODING 9640
SWIDTH 925 0
DWIDTH 9 0
BBX 7 8 1 -1
BITMAP
FE
AA
D6
AE
DA
B6
EA
FE
ENDCHAR
STARTCHAR 25A9
ENCODING 9641
SWIDTH 925 0
DWIDTH 9 0
BBX 7 8 1 -1
BITMAP
FE
AA
D6
EA
FE
B6
EA
FE
ENDCHAR
STARTCHAR 25B1
ENCODING 9649
SWIDTH 925 0
DWIDTH 9 0
BBX 7 4 1 1
BITMAP
7E
42
82
FC
ENDCHAR
STARTCHAR 25B2
ENCODING 9650
SWIDTH 925 0
DWIDTH 9 0
BBX 7 6 1 0
BITMAP
10
18
38
7C
7E
FE
ENDCHAR
STARTCHAR 25B3
ENCODING 9651
SWIDTH 925 0
DWIDTH 9 0
BBX 7 6 1 0
BITMAP
10
28
24
44
42
FE
ENDCHAR
STARTCHAR 25B5
ENCODING 9653
SWIDTH 925 0
DWIDTH 9 0
BBX 7 6 1 0
BITMAP
10
18
28
44
42
FE
ENDCHAR
STARTCHAR 25B6
ENCODING 9654
SWIDTH 925 0
DWIDTH 9 0
BBX 5 6 2 0
BITMAP
C0
E0
F8
F8
E0
C0
ENDCHAR
STARTCHAR 25B7
ENCODING 9655
SWIDTH 925 0
DWIDTH 9 0
BBX 5 6 2 0
BITMAP
C0
B0
88
88
B0
C0
ENDCHAR
STARTCHAR 25B9
ENCODING 9657
SWIDTH 925 0
DWIDTH 9 0
BBX 5 6 2 0
BITMAP
C0
B0
88
88
B0
C0
ENDCHAR
STARTCHAR 25BC
ENCODING 9660
SWIDTH 925 0
DWIDTH 9 0
BBX 7 6 1 0
BITMAP
FE
7E
7C
38
18
10
ENDCHAR
STARTCHAR 25BD
ENCODING 9661
SWIDTH 925 0
DWIDTH 9 0
BBX 7 6 1 0
BITMAP
FE
42
44
24
28
10
ENDCHAR
STARTCHAR 25BF
ENCODING 9663
SWIDTH 925 0
DWIDTH 9 0
BBX 7 6 1 0
BITMAP
FE
42
44
28
18
10
ENDCHAR
STARTCHAR 25C0
ENCODING 9664
SWIDTH 925 0
DWIDTH 9 0
BBX 6 8 2 -1
BITMAP
04
0C
3C
FC
FC
3C
0C
04
ENDCHAR
STARTCHAR 25C1
ENCODING 9665
SWIDTH 925 0
DWIDTH 9 0
BBX 6 8 2 -1
BITMAP
04
1C
24
C4
C4
24
1C
04
ENDCHAR
STARTCHAR 25C3
ENCODING 9667
SWIDTH 925 0
DWIDTH 9 0
BBX 6 8 2 -1
BITMAP
04
1C
24
C4
C4
24
1C
04
ENDCHAR
STARTCHAR 25C6
ENCODING 9670
SWIDTH 925 0
DWIDTH 9 0
BBX 8 8 1 -1
BITMAP
10
38
7C
FF
FF
7C
38
10
ENDCHAR
STARTCHAR 25C7
ENCODING 9671
SWIDTH 925 0
DWIDTH 9 0
BBX 8 8 1 -1
BITMAP
10
28
46
81
81
46
28
10
ENDCHAR
STARTCHAR 25C8
ENCODING 9672
SWIDTH 925 0
DWIDTH 9 0
BBX 8 8 1 -1
BITMAP
18
24
5A
BD
FD
7A
34
18
ENDCHAR
STARTCHAR 25C9
ENCODING 9673
SWIDTH 925 0
DWIDTH 9 0
BBX 8 8 1 -1
BITMAP
7C
82
99
B9
B9
99
82
7C
ENDCHAR
STARTCHAR 25CA
ENCODING 9674
SWIDTH 925 0
DWIDTH 9 0
BBX 6 8 2 -1
BITMAP
20
50
88
84
84
88
50
20
ENDCHAR
STARTCHAR 25CB
ENCODING 9675
SWIDTH 925 0
DWIDTH 9 0
BBX 7 8 1 -1
BITMAP
7C
82
82
82
82
82
82
7C
ENDCHAR
STARTCHAR 25CC
ENCODING 9676
SWIDTH 925 0
DWIDTH 9 0
BBX 1 4 0 1
BITMAP
80
00
00
80
ENDCHAR
STARTCHAR 25CE
ENCODING 9678
SWIDTH 925 0
DWIDTH 9 0
BBX 8 8 1 -1
BITMAP
7C
BE
C5
C3
C3
C5
A6
7C
ENDCHAR
STARTCHAR 25CF
ENCODING 9679
SWIDTH 925 0
DWIDTH 9 0
BBX 7 8 1 -1
BITMAP
38
7E
FE
FE
FE
FE
7E
3C
ENDCHAR
STARTCHAR 25D0
ENCODING 9680
SWIDTH 925 0
DWIDTH 9 0
BBX 8 8 1 -1
BITMAP
3C
72
F1
F1
F1
F1
72
3C
ENDCHAR
STARTCHAR 25D1
ENCODING 9681
SWIDTH 925 0
DWIDTH 9 0
BBX 8 8 1 -1
BITMAP
38
CE
8E
8F
8F
8E
CE
38
ENDCHAR
STARTCHAR 25E6
ENCODING 9702
SWIDTH 925 0
DWIDTH 9 0
BBX 5 6 2 0
BITMAP
70
88
88
88
88
70
ENDCHAR
STARTCHAR 25EF
ENCODING 9711
SWIDTH 925 0
DWIDTH 9 0
BBX 9 8 0 -1
BITMAP
3F00
4080
8080
8080
8080
8080
4080
3F00
ENDCHAR
STARTCHAR 2605
ENCODING 9733
SWIDTH 925 0
DWIDTH 9 0
BBX 7 7 1 0
BITMAP
10
18
FE
7C
38
2C
40
ENDCHAR
STARTCHAR 2606
ENCODING 9734
SWIDTH 925 0
DWIDTH 9 0
BBX 7 7 1 0
BITMAP
10
18
E6
44
24
7C
40
ENDCHAR
STARTCHAR 260E
ENCODING 9742
SWIDTH 925 0
DWIDTH 9 0
BBX 9 6 0 0
BITMAP
3F00
5580
DF80
2200
6300
7F00
ENDCHAR
STARTCHAR 260F
ENCODING 9743
SWIDTH 925 0
DWIDTH 9 0
BBX 9 6 0 0
BITMAP
7F00
B580
FF80
2200
5300
7F80
ENDCHAR
STARTCHAR 261C
ENCODING 9756
SWIDTH 925 0
DWIDTH 9 0
BBX 7 2 1 2
BITMAP
FE
3E
ENDCHAR
STARTCHAR 261D
ENCODING 9757
SWIDTH 925 0
DWIDTH 9 0
BBX 3 7 3 -1
BITMAP
80
80
E0
E0
A0
A0
E0
ENDCHAR
STARTCHAR 261E
ENCODING 9758
SWIDTH 925 0
DWIDTH 9 0
BBX 7 2 1 2
BITMAP
FE
F8
ENDCHAR
STARTCHAR 261F
ENCODING 9759
SWIDTH 925 0
DWIDTH 9 0
BBX 3 7 3 0
BITMAP
E0
A0
A0
E0
E0
80
80
ENDCHAR
STARTCHAR 262F
ENCODING 9775
SWIDTH 925 0
DWIDTH 9 0
BBX 8 8 1 -1
BITMAP
7C
82
81
8F
9F
FE
7E
38
ENDCHAR
STARTCHAR 2640
ENCODING 9792
SWIDTH 925 0
DWIDTH 9 0
BBX 4 7 3 -1
BITMAP
E0
90
A0
40
F0
40
40
ENDCHAR
STARTCHAR 2642
ENCODING 9794
SWIDTH 925 0
DWIDTH 9 0
BBX 4 8 3 -1
BITMAP
40
A0
50
40
40
A0
90
E0
ENDCHAR
STARTCHAR 2660
ENCODING 9824
SWIDTH 925 0
DWIDTH 9 0
BBX 6 8 2 -1
BITMAP
20
70
78
F8
FC
FC
20
30
ENDCHAR
STARTCHAR 2661
ENCODING 9825
SWIDTH 925 0
DWIDTH 9 0
BBX 7 8 1 -1
BITMAP
6C
92
82
82
42
44
28
10
ENDCHAR
STARTCHAR 2663
ENCODING 9827
SWIDTH 925 0
DWIDTH 9 0
BBX 8 8 1 -1
BITMAP
38
3C
38
FE
FF
FF
5E
18
ENDCHAR
STARTCHAR 2664
ENCODING 9828
SWIDTH 925 0
DWIDTH 9 0
BBX 7 8 1 -1
BITMAP
10
28
44
42
82
8A
74
38
ENDCHAR
STARTCHAR 2665
ENCODING 9829
SWIDTH 925 0
DWIDTH 9 0
BBX 7 8 1 -1
BITMAP
64
FE
FE
FE
7C
3C
38
10
ENDCHAR
STARTCHAR 2667
ENCODING 9831
SWIDTH 925 0
DWIDTH 9 0
BBX 8 8 1 -1
BITMAP
38
24
28
EE
81
81
7E
38
ENDCHAR
STARTCHAR 2668
ENCODING 9832
SWIDTH 925 0
DWIDTH 9 0
BBX 8 7 1 0
BITMAP
34
38
34
34
B5
91
7E
ENDCHAR
STARTCHAR 2669
ENCODING 9833
SWIDTH 411 0
DWIDTH 4 0
BBX 2 8 1 -1
BITMAP
40
40
40
40
40
40
C0
80
ENDCHAR
STARTCHAR 266A
ENCODING 9834
SWIDTH 514 0
DWIDTH 5 0
BBX 4 7 1 0
BITMAP
40
60
50
50
60
80
80
ENDCHAR
STARTCHAR 266C
ENCODING 9836
SWIDTH 720 0
DWIDTH 7 0
BBX 5 6 1 -1
BITMAP
78
58
68
48
48
80
ENDCHAR
STARTCHAR 266D
ENCODING 9837
SWIDTH 514 0
DWIDTH 5 0
BBX 3 6 1 0
BITMAP
80
80
E0
A0
A0
C0
ENDCHAR
STARTCHAR 266F
ENCODING 9839
SWIDTH 925 0
DWIDTH 9 0
BBX 5 8 2 -1
BITMAP
40
50
F8
50
50
F8
50
40
ENDCHAR
STARTCHAR 2716
ENCODING 10006
SWIDTH 925 0
DWIDTH 9 0
BBX 7 8 1 -1
BITMAP
04
6E
FE
7C
7C
FE
6E
04
ENDCHAR
STARTCHAR 271A
ENCODING 10010
SWIDTH 925 0
DWIDTH 9 0
BBX 8 8 1 -1
BITMAP
38
38
38
FF
FF
38
38
38
ENDCHAR
STARTCHAR 273D
ENCODING 10045
SWIDTH 925 0
DWIDTH 9 0
BBX 5 6 2 0
BITMAP
20
A8
50
50
A8
20
ENDCHAR
STARTCHAR 2756
ENCODING 10070
SWIDTH 925 0
DWIDTH 9 0
BBX 7 8 1 -1
BITMAP
10
38
58
E6
E6
58
38
10
ENDCHAR
STARTCHAR 2776
ENCODING 10102
SWIDTH 925 0
DWIDTH 9 0
BBX 9 8 0 -1
BITMAP
3E00
7F00
6780
FF80
FF80
7F80
7F00
3E00
ENDCHAR
STARTCHAR 2777
ENCODING 10103
SWIDTH 925 0
DWIDTH 9 0
BBX 9 8 0 -1
BITMAP
3E00
6F00
7D80
FF80
F780
6F80
6100
3E00
ENDCHAR
STARTCHAR 2778
ENCODING 10104
SWIDTH 925 0
DWIDTH 9 0
BBX 9 8 0 -1
BITMAP
3E00
6F00
7D80
FB80
FD80
7D80
6B00
3E00
ENDCHAR
STARTCHAR 2779
ENCODING 10105
SWIDTH 925 0
DWIDTH 9 0
BBX 9 8 0 -1
BITMAP
3E00
7B00
7B80
EB80
FB80
7B80
7B00
3E00
ENDCHAR
STARTCHAR 277A
ENCODING 10106
SWIDTH 925 0
DWIDTH 9 0
BBX 9 8 0 -1
BITMAP
3E00
6F00
6F80
EB80
FD80
7D80
6B00
3E00
ENDCHAR
STARTCHAR 277B
ENCODING 10107
SWIDTH 925 0
DWIDTH 9 0
BBX 9 8 0 -1
BITMAP
3E00
6B00
7F80
F380
FD80
7D80
6B00
3E00
ENDCHAR
STARTCHAR 277C
ENCODING 10108
SWIDTH 925 0
DWIDTH 9 0
BBX 9 8 0 -1
BITMAP
3E00
6100
7F80
FF80
F780
7780
7F00
3E00
ENDCHAR
STARTCHAR 277D
ENCODING 10109
SWIDTH 925 0
DWIDTH 9 0
BBX 9 8 0 -1
BITMAP
3E00
6B00
7F80
EB80
EF80
7D80
6F00
3E00
ENDCHAR
STARTCHAR 277E
ENCODING 10110
SWIDTH 925 0
DWIDTH 9 0
BBX 9 8 0 -1
BITMAP
3E00
6B00
7D80
FD80
E180
7D80
6B00
3E00
ENDCHAR
STARTCHAR 277F
ENCODING 10111
SWIDTH 925 0
DWIDTH 9 0
BBX 9 8 0 -1
BITMAP
3E00
7900
5680
F680
F680
7780
7900
3E00
ENDCHAR
STARTCHAR 278A
ENCODING 10122
SWIDTH 925 0
DWIDTH 9 0
BBX 9 8 0 -1
BITMAP
3E00
7700
6780
F780
F780
7780
7700
3E00
ENDCHAR
STARTCHAR 278B
ENCODING 10123
SWIDTH 925 0
DWIDTH 9 0
BBX 9 8 0 -1
BITMAP
3E00
6300
6B80
FB80
F780
7780
6300
3E00
ENDCHAR
STARTCHAR 278C
ENCODING 10124
SWIDTH 925 0
DWIDTH 9 0
BBX 9 8 0 -1
BITMAP
3E00
6300
6B80
F380
FB80
6B80
6300
3E00
ENDCHAR
STARTCHAR 278D
ENCODING 10125
SWIDTH 925 0
DWIDTH 9 0
BBX 9 8 0 -1
BITMAP
3E00
7300
7380
EB80
EB80
6380
7B00
3E00
ENDCHAR
STARTCHAR 278E
ENCODING 10126
SWIDTH 925 0
DWIDTH 9 0
BBX 9 8 0 -1
BITMAP
3E00
6300
6F80
E380
FB80
6B80
6300
3E00
ENDCHAR
STARTCHAR 278F
ENCODING 10127
SWIDTH 925 0
DWIDTH 9 0
BBX 9 8 0 -1
BITMAP
3E00
6300
6B80
E780
EB80
6B80
6300
3E00
ENDCHAR
STARTCHAR 2790
ENCODING 10128
SWIDTH 925 0
DWIDTH 9 0
BBX 9 8 0 -1
BITMAP
3E00
6300
7B80
FB80
F380
7780
7700
3E00
ENDCHAR
STARTCHAR 2791
ENCODING 10129
SWIDTH 925 0
DWIDTH 9 0
BBX 9 8 0 -1
BITMAP
3E00
6300
6B80
E380
EB80
6B80
6300
3E00
ENDCHAR
STARTCHAR 2792
ENCODING 10130
SWIDTH 925 0
DWIDTH 9 0
BBX 9 8 0 -1
BITMAP
3E00
6300
6B80
EB80
F380
6B80
6300
3E00
ENDCHAR
STARTCHAR 2793
ENCODING 10131
SWIDTH 925 0
DWIDTH 9 0
BBX 9 8 0 -1
BITMAP
3E00
6900
6D80
ED80
ED80
6D80
6900
3E00
ENDCHAR
STARTCHAR 2963
ENCODING 10595
SWIDTH 925 0
DWIDTH 9 0
BBX 7 9 1 -2
BITMAP
20
64
AA
28
28
28
28
28
28
ENDCHAR
STARTCHAR 2965
ENCODING 10597
SWIDTH 925 0
DWIDTH 9 0
BBX 8 9 1 -1
BITMAP
28
28
28
28
28
29
AA
64
20
ENDCHAR
STARTCHAR 2AC5
ENCODING 10949
SWIDTH 925 0
DWIDTH 9 0
BBX 6 6 1 0
BITMAP
FC
80
80
7C
00
7C
ENDCHAR
STARTCHAR 2AC6
ENCODING 10950
SWIDTH 925 0
DWIDTH 9 0
BBX 6 6 2 0
BITMAP
FC
04
04
F8
00
F8
ENDCHAR
STARTCHAR 2ACB
ENCODING 10955
SWIDTH 925 0
DWIDTH 9 0
BBX 6 7 1 -1
BITMAP
FC
80
80
50
6C
10
7C
ENDCHAR
STARTCHAR 2ACC
ENCODING 10956
SWIDTH 925 0
DWIDTH 9 0
BBX 6 7 2 -1
BITMAP
FC
04
04
28
D8
20
F8
ENDCHAR
STARTCHAR 2F00
ENCODING 12032
SWIDTH 925 0
DWIDTH 9 0
BBX 8 1 1 3
BITMAP
FF
ENDCHAR
STARTCHAR 2F04
ENCODING 12036
SWIDTH 925 0
DWIDTH 9 0
BBX 8 8 1 -1
BITMAP
FC
08
10
20
20
40
81
FE
ENDCHAR
STARTCHAR 2F06
ENCODING 12038
SWIDTH 925 0
DWIDTH 9 0
BBX 8 6 1 0
BITMAP
7E
00
00
00
00
FF
ENDCHAR
STARTCHAR 2F08
ENCODING 12040
SWIDTH 925 0
DWIDTH 9 0
BBX 8 9 1 -1
BITMAP
10
10
10
10
18
28
64
C2
81
ENDCHAR
STARTCHAR 2F0A
ENCODING 12042
SWIDTH 925 0
DWIDTH 9 0
BBX 8 8 1 -1
BITMAP
70
10
10
18
28
24
C2
81
ENDCHAR
STARTCHAR 2F0B
ENCODING 12043
SWIDTH 925 0
DWIDTH 9 0
BBX 8 8 1 -1
BITMAP
38
24
24
44
44
42
82
81
ENDCHAR
STARTCHAR 2F11
ENCODING 12049
SWIDTH 925 0
DWIDTH 9 0
BBX 7 8 1 -1
BITMAP
FE
22
22
22
22
22
42
8E
ENDCHAR
STARTCHAR 2F12
ENCODING 12050
SWIDTH 925 0
DWIDTH 9 0
BBX 7 9 1 -1
BITMAP
10
10
FE
12
12
22
22
42
8C
ENDCHAR
STARTCHAR 2F14
ENCODING 12052
SWIDTH 925 0
DWIDTH 9 0
BBX 6 9 2 -1
BITMAP
80
80
98
A0
C0
80
80
84
FC
ENDCHAR
STARTCHAR 2F17
ENCODING 12055
SWIDTH 925 0
DWIDTH 9 0
BBX 8 9 1 -1
BITMAP
10
10
10
FF
10
10
10
10
10
ENDCHAR
STARTCHAR 2F18
ENCODING 12056
SWIDTH 925 0
DWIDTH 9 0
BBX 4 9 4 -1
BITMAP
80
80
80
80
E0
90
80
80
80
ENDCHAR
STARTCHAR 2F1C
ENCODING 12060
SWIDTH 925 0
DWIDTH 9 0
BBX 8 8 1 -1
BITMAP
FE
42
24
28
18
18
6E
83
ENDCHAR
STARTCHAR 2F1D
ENCODING 12061
SWIDTH 925 0
DWIDTH 9 0
BBX 6 8 2 -1
BITMAP
FC
84
84
84
84
84
FC
84
ENDCHAR
STARTCHAR 2F1F
ENCODING 12063
SWIDTH 925 0
DWIDTH 9 0
BBX 8 9 1 -1
BITMAP
10
10
10
FE
10
10
10
10
FF
ENDCHAR
STARTCHAR 2F20
ENCODING 12064
SWIDTH 925 0
DWIDTH 9 0
BBX 8 9 1 -1
BITMAP
10
10
10
FF
10
10
10
10
FE
ENDCHAR
STARTCHAR 2F23
ENCODING 12067
SWIDTH 925 0
DWIDTH 9 0
BBX 7 9 1 -1
BITMAP
10
3E
22
44
E4
98
10
20
C0
ENDCHAR
STARTCHAR 2F24
ENCODING 12068
SWIDTH 925 0
DWIDTH 9 0
BBX 8 9 1 -1
BITMAP
10
10
10
FF
10
28
24
42
81
ENDCHAR
STARTCHAR 2F25
ENCODING 12069
SWIDTH 925 0
DWIDTH 9 0
BBX 8 9 1 -1
BITMAP
20
20
FF
24
44
68
18
26
C1
ENDCHAR
STARTCHAR 2F26
ENCODING 12070
SWIDTH 925 0
DWIDTH 9 0
BBX 8 8 1 -1
BITMAP
7E
0C
10
FF
10
10
10
30
ENDCHAR
STARTCHAR 2F28
ENCODING 12072
SWIDTH 925 0
DWIDTH 9 0
BBX 7 9 1 -1
BITMAP
04
04
FE
04
44
24
24
04
18
ENDCHAR
STARTCHAR 2F29
ENCODING 12073
SWIDTH 925 0
DWIDTH 9 0
BBX 8 9 1 -1
BITMAP
10
10
54
54
52
92
91
10
30
ENDCHAR
STARTCHAR 2F2B
ENCODING 12075
SWIDTH 925 0
DWIDTH 9 0
BBX 7 8 1 -1
BITMAP
7E
82
7E
80
80
80
80
80
ENDCHAR
STARTCHAR 2F2D
ENCODING 12077
SWIDTH 925 0
DWIDTH 9 0
BBX 7 9 1 -1
BITMAP
10
10
92
92
92
92
92
FE
82
ENDCHAR
STARTCHAR 2F2F
ENCODING 12079
SWIDTH 925 0
DWIDTH 9 0
BBX 8 8 1 -1
BITMAP
FE
10
10
10
10
10
10
FF
ENDCHAR
STARTCHAR 2F30
ENCODING 12080
SWIDTH 925 0
DWIDTH 9 0
BBX 8 8 1 -1
BITMAP
FE
02
02
FE
80
80
81
FE
ENDCHAR
STARTCHAR 2F31
ENCODING 12081
SWIDTH 925 0
DWIDTH 9 0
BBX 7 9 1 -1
BITMAP
10
10
FE
92
92
92
92
96
10
ENDCHAR
STARTCHAR 2F32
ENCODING 12082
SWIDTH 925 0
DWIDTH 9 0
BBX 8 8 1 -1
BITMAP
FE
10
10
FF
10
10
10
10
ENDCHAR
STARTCHAR 2F38
ENCODING 12088
SWIDTH 925 0
DWIDTH 9 0
BBX 7 8 1 -1
BITMAP
7E
02
7E
80
FE
82
02
0E
ENDCHAR
STARTCHAR 2F3C
ENCODING 12092
SWIDTH 925 0
DWIDTH 9 0
BBX 8 8 1 -1
BITMAP
20
10
20
A2
A2
A1
22
3C
ENDCHAR
STARTCHAR 2F3D
ENCODING 12093
SWIDTH 925 0
DWIDTH 9 0
BBX 8 9 1 -1
BITMAP
28
24
2F
D2
14
18
18
69
86
ENDCHAR
STARTCHAR 2F3E
ENCODING 12094
SWIDTH 925 0
DWIDTH 9 0
BBX 7 9 1 -1
BITMAP
06
78
7E
82
82
FE
80
80
80
ENDCHAR
STARTCHAR 2F3F
ENCODING 12095
SWIDTH 925 0
DWIDTH 9 0
BBX 8 9 1 -1
BITMAP
06
F8
10
FE
10
FF
10
10
30
ENDCHAR
STARTCHAR 2F40
ENCODING 12096
SWIDTH 925 0
DWIDTH 9 0
BBX 8 9 1 -1
BITMAP
10
10
FF
10
FC
24
18
3C
C3
ENDCHAR
STARTCHAR 2F42
ENCODING 12098
SWIDTH 925 0
DWIDTH 9 0
BBX 8 9 1 -1
BITMAP
10
10
FF
44
2C
18
10
6C
83
ENDCHAR
STARTCHAR 2F43
ENCODING 12099
SWIDTH 925 0
DWIDTH 9 0
BBX 8 9 1 -1
BITMAP
04
24
04
64
04
1F
F4
04
04
ENDCHAR
STARTCHAR 2F44
ENCODING 12100
SWIDTH 925 0
DWIDTH 9 0
BBX 7 9 1 -1
BITMAP
04
78
80
7E
88
88
88
88
88
ENDCHAR
STARTCHAR 2F45
ENCODING 12101
SWIDTH 925 0
DWIDTH 9 0
BBX 8 9 1 -1
BITMAP
10
10
FF
20
3E
22
42
C2
8C
ENDCHAR
STARTCHAR 2F46
ENCODING 12102
SWIDTH 925 0
DWIDTH 9 0
BBX 8 8 1 -1
BITMAP
FE
10
10
FF
18
28
49
8E
ENDCHAR
STARTCHAR 2F47
ENCODING 12103
SWIDTH 925 0
DWIDTH 9 0
BBX 6 8 2 -1
BITMAP
FC
84
84
FC
84
84
FC
84
ENDCHAR
STARTCHAR 2F48
ENCODING 12104
SWIDTH 925 0
DWIDTH 9 0
BBX 7 8 1 -1
BITMAP
FE
82
82
FE
82
82
FE
82
ENDCHAR
STARTCHAR 2F49
ENCODING 12105
SWIDTH 925 0
DWIDTH 9 0
BBX 6 8 1 -1
BITMAP
7C
44
7C
44
7C
44
84
84
ENDCHAR
STARTCHAR 2F4A
ENCODING 12106
SWIDTH 925 0
DWIDTH 9 0
BBX 8 9 1 -1
BITMAP
10
10
FF
18
34
D2
91
10
10
ENDCHAR
STARTCHAR 2F4B
ENCODING 12107
SWIDTH 925 0
DWIDTH 9 0
BBX 8 9 1 -1
BITMAP
20
40
7E
52
92
10
28
46
83
ENDCHAR
STARTCHAR 2F4C
ENCODING 12108
SWIDTH 925 0
DWIDTH 9 0
BBX 8 9 1 -1
BITMAP
08
08
48
4E
48
48
48
48
FF
ENDCHAR
STARTCHAR 2F4F
ENCODING 12111
SWIDTH 925 0
DWIDTH 9 0
BBX 8 8 1 -1
BITMAP
7E
52
52
FF
92
92
FE
8C
ENDCHAR
STARTCHAR 2F50
ENCODING 12112
SWIDTH 925 0
DWIDTH 9 0
BBX 8 9 1 -1
BITMAP
48
48
4A
7C
48
48
48
79
CE
ENDCHAR
STARTCHAR 2F51
ENCODING 12113
SWIDTH 925 0
DWIDTH 9 0
BBX 8 9 1 -1
BITMAP
0C
F0
1E
F0
3F
D0
10
11
1E
ENDCHAR
STARTCHAR 2F52
ENCODING 12114
SWIDTH 925 0
DWIDTH 9 0
BBX 8 8 1 -1
BITMAP
16
68
48
7F
48
48
75
C2
ENDCHAR
STARTCHAR 2F54
ENCODING 12116
SWIDTH 925 0
DWIDTH 9 0
BBX 8 9 1 -1
BITMAP
10
10
12
FC
38
54
92
91
30
ENDCHAR
STARTCHAR 2F55
ENCODING 12117
SWIDTH 925 0
DWIDTH 9 0
BBX 8 9 1 -1
BITMAP
10
10
52
52
94
28
24
C6
81
ENDCHAR
STARTCHAR 2F56
ENCODING 12118
SWIDTH 925 0
DWIDTH 9 0
BBX 8 9 1 -1
BITMAP
06
7C
54
54
52
52
92
92
91
ENDCHAR
STARTCHAR 2F57
ENCODING 12119
SWIDTH 925 0
DWIDTH 9 0
BBX 8 8 1 -1
BITMAP
24
42
C4
68
18
18
64
83
ENDCHAR
STARTCHAR 2F58
ENCODING 12120
SWIDTH 925 0
DWIDTH 9 0
BBX 8 9 1 -1
BITMAP
C6
38
C6
20
64
B8
18
6C
83
ENDCHAR
STARTCHAR 2F5A
ENCODING 12122
SWIDTH 925 0
DWIDTH 9 0
BBX 8 9 1 -1
BITMAP
48
48
7F
40
40
7C
84
84
84
ENDCHAR
STARTCHAR 2F5B
ENCODING 12123
SWIDTH 925 0
DWIDTH 9 0
BBX 8 8 1 -1
BITMAP
FE
44
44
FF
14
24
44
8C
ENDCHAR
STARTCHAR 2F5C
ENCODING 12124
SWIDTH 925 0
DWIDTH 9 0
BBX 8 9 1 -1
BITMAP
50
50
7E
90
90
FF
10
10
10
ENDCHAR
STARTCHAR 2F5D
ENCODING 12125
SWIDTH 925 0
DWIDTH 9 0
BBX 8 9 1 -1
BITMAP
14
12
10
FF
10
28
24
C2
81
ENDCHAR
STARTCHAR 2F5E
ENCODING 12126
SWIDTH 925 0
DWIDTH 9 0
BBX 8 9 1 -1
BITMAP
10
FF
10
24
48
68
12
26
F9
ENDCHAR
STARTCHAR 2F5F
ENCODING 12127
SWIDTH 925 0
DWIDTH 9 0
BBX 8 8 1 -1
BITMAP
FE
10
10
7E
14
14
14
FF
ENDCHAR
STARTCHAR 2F60
ENCODING 12128
SWIDTH 925 0
DWIDTH 9 0
BBX 8 9 1 -1
BITMAP
06
7C
54
54
54
52
9A
FE
85
ENDCHAR
STARTCHAR 2F61
ENCODING 12129
SWIDTH 925 0
DWIDTH 9 0
BBX 8 8 1 -1
BITMAP
FE
20
3C
64
54
54
59
E6
ENDCHAR
STARTCHAR 2F62
ENCODING 12130
SWIDTH 925 0
DWIDTH 9 0
BBX 7 9 1 -1
BITMAP
44
44
FE
44
7C
44
44
7C
44
ENDCHAR
STARTCHAR 2F63
ENCODING 12131
SWIDTH 925 0
DWIDTH 9 0
BBX 8 9 1 -1
BITMAP
50
50
7E
90
10
7E
10
10
FF
ENDCHAR
STARTCHAR 2F64
ENCODING 12132
SWIDTH 925 0
DWIDTH 9 0
BBX 7 8 1 -1
BITMAP
7E
92
7E
92
7E
92
92
96
ENDCHAR
STARTCHAR 2F65
ENCODING 12133
SWIDTH 925 0
DWIDTH 9 0
BBX 7 8 1 -1
BITMAP
FE
92
92
FE
92
92
FE
82
ENDCHAR
STARTCHAR 2F66
ENCODING 12134
SWIDTH 925 0
DWIDTH 9 0
BBX 8 8 1 -1
BITMAP
FE
12
52
5E
50
50
B0
9F
ENDCHAR
STARTCHAR 2F69
ENCODING 12137
SWIDTH 925 0
DWIDTH 9 0
BBX 6 9 2 -1
BITMAP
20
20
FC
84
84
FC
84
FC
84
ENDCHAR
STARTCHAR 2F6A
ENCODING 12138
SWIDTH 925 0
DWIDTH 9 0
BBX 8 9 1 -1
BITMAP
08
7F
8A
88
7E
A4
94
9C
E3
ENDCHAR
STARTCHAR 2F6B
ENCODING 12139
SWIDTH 925 0
DWIDTH 9 0
BBX 8 8 1 -1
BITMAP
FE
AA
AA
AA
AA
AA
AA
FF
ENDCHAR
STARTCHAR 2F6C
ENCODING 12140
SWIDTH 925 0
DWIDTH 9 0
BBX 6 8 2 -1
BITMAP
FC
84
FC
84
84
FC
FC
84
ENDCHAR
STARTCHAR 2F6D
ENCODING 12141
SWIDTH 925 0
DWIDTH 9 0
BBX 7 8 1 -1
BITMAP
FC
28
10
FE
32
54
90
30
ENDCHAR
STARTCHAR 2F6E
ENCODING 12142
SWIDTH 925 0
DWIDTH 9 0
BBX 8 9 1 -1
BITMAP
40
7E
90
90
FF
10
28
46
81
ENDCHAR
STARTCHAR 2F6F
ENCODING 12143
SWIDTH 925 0
DWIDTH 9 0
BBX 8 8 1 -1
BITMAP
FF
20
20
7E
C2
C2
7E
42
ENDCHAR
STARTCHAR 2F70
ENCODING 12144
SWIDTH 925 0
DWIDTH 9 0
BBX 8 8 1 -1
BITMAP
7E
00
FF
10
54
52
91
30
ENDCHAR
STARTCHAR 2F72
ENCODING 12146
SWIDTH 925 0
DWIDTH 9 0
BBX 8 9 1 -1
BITMAP
0E
F0
10
FF
18
34
D2
91
10
ENDCHAR
STARTCHAR 2F73
ENCODING 12147
SWIDTH 925 0
DWIDTH 9 0
BBX 8 9 1 -1
BITMAP
10
FF
81
38
24
44
44
82
81
ENDCHAR
STARTCHAR 2F74
ENCODING 12148
SWIDTH 925 0
DWIDTH 9 0
BBX 8 9 1 -1
BITMAP
10
FE
00
44
44
24
28
28
FF
ENDCHAR
STARTCHAR 2F75
ENCODING 12149
SWIDTH 925 0
DWIDTH 9 0
BBX 8 9 1 -1
BITMAP
44
48
7F
CA
D2
42
42
42
44
ENDCHAR
STARTCHAR 2F76
ENCODING 12150
SWIDTH 925 0
DWIDTH 9 0
BBX 8 9 1 -1
BITMAP
10
52
54
FF
18
34
D6
91
10
ENDCHAR
STARTCHAR 2F78
ENCODING 12152
SWIDTH 925 0
DWIDTH 9 0
BBX 8 9 1 -1
BITMAP
40
7E
90
10
FF
92
92
FE
82
ENDCHAR
STARTCHAR 2F7A
ENCODING 12154
SWIDTH 925 0
DWIDTH 9 0
BBX 8 9 1 -1
BITMAP
44
28
FE
10
FE
10
FF
10
10
ENDCHAR
STARTCHAR 2F7B
ENCODING 12155
SWIDTH 925 0
DWIDTH 9 0
BBX 7 8 1 -1
BITMAP
EE
22
5E
BA
56
9A
12
26
ENDCHAR
STARTCHAR 2F7C
ENCODING 12156
SWIDTH 925 0
DWIDTH 9 0
BBX 8 9 1 -1
BITMAP
10
7E
14
FF
10
66
B8
21
3E
ENDCHAR
STARTCHAR 2F7D
ENCODING 12157
SWIDTH 925 0
DWIDTH 9 0
BBX 8 8 1 -1
BITMAP
FF
10
FE
AA
AA
AA
AA
AA
ENDCHAR
STARTCHAR 2F7F
ENCODING 12159
SWIDTH 925 0
DWIDTH 9 0
BBX 8 8 1 -1
BITMAP
FE
44
7C
44
7C
47
FC
04
ENDCHAR
STARTCHAR 2F80
ENCODING 12160
SWIDTH 925 0
DWIDTH 9 0
BBX 8 9 1 -1
BITMAP
10
7E
FF
12
7E
FE
FF
10
10
ENDCHAR
STARTCHAR 2F81
ENCODING 12161
SWIDTH 925 0
DWIDTH 9 0
BBX 7 9 1 -1
BITMAP
10
10
FE
9A
B6
DA
AE
C2
86
ENDCHAR
STARTCHAR 2F82
ENCODING 12162
SWIDTH 925 0
DWIDTH 9 0
BBX 8 8 1 -1
BITMAP
FE
90
FE
82
FE
90
FF
80
ENDCHAR
STARTCHAR 2F83
ENCODING 12163
SWIDTH 925 0
DWIDTH 9 0
BBX 6 9 2 -1
BITMAP
20
FC
84
84
FC
84
FC
FC
84
ENDCHAR
STARTCHAR 2F84
ENCODING 12164
SWIDTH 925 0
DWIDTH 9 0
BBX 8 8 1 -1
BITMAP
FE
24
FE
02
10
FE
10
FF
ENDCHAR
STARTCHAR 2F85
ENCODING 12165
SWIDTH 925 0
DWIDTH 9 0
BBX 7 8 1 -1
BITMAP
30
EE
82
EE
82
82
FE
82
ENDCHAR
STARTCHAR 2F86
ENCODING 12166
SWIDTH 925 0
DWIDTH 9 0
BBX 8 9 1 -1
BITMAP
06
F8
10
FF
10
7E
42
7E
42
ENDCHAR
STARTCHAR 2F87
ENCODING 12167
SWIDTH 925 0
DWIDTH 9 0
BBX 9 9 0 -1
BITMAP
2100
2100
3700
5500
7500
BF80
2100
6100
4100
ENDCHAR
STARTCHAR 2F88
ENCODING 12168
SWIDTH 925 0
DWIDTH 9 0
BBX 8 9 1 -1
BITMAP
10
7C
52
52
FF
52
52
92
84
ENDCHAR
STARTCHAR 2F89
ENCODING 12169
SWIDTH 925 0
DWIDTH 9 0
BBX 8 8 1 -1
BITMAP
7C
42
7C
7C
52
4C
54
E3
ENDCHAR
STARTCHAR 2F8A
ENCODING 12170
SWIDTH 925 0
DWIDTH 9 0
BBX 8 9 1 -1
BITMAP
20
78
C8
FE
92
7E
80
81
7E
ENDCHAR
STARTCHAR 2F8B
ENCODING 12171
SWIDTH 925 0
DWIDTH 9 0
BBX 8 9 1 -1
BITMAP
44
DD
DD
DD
DD
EF
44
84
84
ENDCHAR
STARTCHAR 2F8E
ENCODING 12174
SWIDTH 925 0
DWIDTH 9 0
BBX 8 9 1 -1
BITMAP
10
10
7E
AA
AA
AA
AA
AA
FF
ENDCHAR
STARTCHAR 2F8F
ENCODING 12175
SWIDTH 925 0
DWIDTH 9 0
BBX 8 9 1 -1
BITMAP
40
CE
A0
5F
C2
C2
42
42
4C
ENDCHAR
STARTCHAR 2F90
ENCODING 12176
SWIDTH 925 0
DWIDTH 9 0
BBX 8 9 1 -1
BITMAP
10
FF
10
2A
4A
C4
A4
2A
F1
ENDCHAR
STARTCHAR 2F92
ENCODING 12178
SWIDTH 925 0
DWIDTH 9 0
BBX 8 8 1 -1
BITMAP
7C
42
7C
7C
42
7C
29
CE
ENDCHAR
STARTCHAR 2F93
ENCODING 12179
SWIDTH 925 0
DWIDTH 9 0
BBX 7 9 1 -1
BITMAP
20
78
FE
92
7E
52
7E
82
86
ENDCHAR
STARTCHAR 2F94
ENCODING 12180
SWIDTH 925 0
DWIDTH 9 0
BBX 8 8 1 -1
BITMAP
7C
FF
00
7C
7C
7C
42
7C
ENDCHAR
STARTCHAR 2F95
ENCODING 12181
SWIDTH 925 0
DWIDTH 9 0
BBX 8 9 1 -1
BITMAP
28
46
92
28
46
FD
44
7C
44
ENDCHAR
STARTCHAR 2F96
ENCODING 12182
SWIDTH 925 0
DWIDTH 9 0
BBX 8 8 1 -1
BITMAP
FE
00
7C
42
7C
24
28
FF
ENDCHAR
STARTCHAR 2F97
ENCODING 12183
SWIDTH 925 0
DWIDTH 9 0
BBX 8 8 1 -1
BITMAP
FE
18
7A
94
74
EA
89
30
ENDCHAR
STARTCHAR 2F99
ENCODING 12185
SWIDTH 925 0
DWIDTH 9 0
BBX 8 8 1 -1
BITMAP
7E
42
7E
42
7E
7E
64
83
ENDCHAR
STARTCHAR 2F9A
ENCODING 12186
SWIDTH 925 0
DWIDTH 9 0
BBX 8 9 1 -1
BITMAP
10
FE
10
FF
28
6C
AA
C9
58
ENDCHAR
STARTCHAR 2F9B
ENCODING 12187
SWIDTH 925 0
DWIDTH 9 0
BBX 8 9 1 -1
BITMAP
10
7E
10
FE
50
5E
50
B0
9F
ENDCHAR
STARTCHAR 2F9C
ENCODING 12188
SWIDTH 925 0
DWIDTH 9 0
BBX 8 8 1 -1
BITMAP
7E
42
42
7E
50
5E
B0
9F
ENDCHAR
STARTCHAR 2F9D
ENCODING 12189
SWIDTH 925 0
DWIDTH 9 0
BBX 8 9 1 -1
BITMAP
10
7C
7C
44
7D
FE
1C
64
8C
ENDCHAR
STARTCHAR 2F9E
ENCODING 12190
SWIDTH 925 0
DWIDTH 9 0
BBX 8 9 1 -1
BITMAP
10
FE
7E
52
7E
7E
FF
10
10
ENDCHAR
STARTCHAR 2F9F
ENCODING 12191
SWIDTH 925 0
DWIDTH 9 0
BBX 8 9 1 -1
BITMAP
10
FE
44
24
FF
FE
10
10
10
ENDCHAR
STARTCHAR 2FA0
ENCODING 12192
SWIDTH 925 0
DWIDTH 9 0
BBX 8 8 1 -1
BITMAP
7E
80
BE
7F
AA
AC
AC
F3
ENDCHAR
STARTCHAR 2FA2
ENCODING 12194
SWIDTH 925 0
DWIDTH 9 0
BBX 8 8 1 -1
BITMAP
7C
7C
00
FE
92
FE
81
FE
ENDCHAR
STARTCHAR 2FA3
ENCODING 12195
SWIDTH 925 0
DWIDTH 9 0
BBX 8 8 1 -1
BITMAP
FF
28
FE
AA
CE
FE
FE
82
ENDCHAR
STARTCHAR 2FA5
ENCODING 12197
SWIDTH 925 0
DWIDTH 9 0
BBX 8 8 1 -1
BITMAP
7E
52
7E
52
7E
FE
10
FF
ENDCHAR
STARTCHAR 2FA6
ENCODING 12198
SWIDTH 925 0
DWIDTH 9 0
BBX 8 9 1 -1
BITMAP
10
28
46
FD
10
FE
54
34
FF
ENDCHAR
STARTCHAR 2FA7
ENCODING 12199
SWIDTH 925 0
DWIDTH 9 0
BBX 8 8 1 -1
BITMAP
7E
7C
40
7C
FF
54
5C
E3
ENDCHAR
STARTCHAR 2FA8
ENCODING 12200
SWIDTH 925 0
DWIDTH 9 0
BBX 7 8 1 -1
BITMAP
EE
EE
AA
EE
82
82
82
86
ENDCHAR
STARTCHAR 2FA9
ENCODING 12201
SWIDTH 925 0
DWIDTH 9 0
BBX 8 9 1 -1
BITMAP
10
7E
7E
40
7E
7E
FF
10
10
ENDCHAR
STARTCHAR 2FAC
ENCODING 12204
SWIDTH 925 0
DWIDTH 9 0
BBX 8 8 1 -1
BITMAP
FF
10
FE
BE
92
B6
92
96
ENDCHAR
STARTCHAR 2FAD
ENCODING 12205
SWIDTH 925 0
DWIDTH 9 0
BBX 8 9 1 -1
BITMAP
10
FE
7E
FF
7E
52
7E
42
46
ENDCHAR
STARTCHAR 2FAE
ENCODING 12206
SWIDTH 925 0
DWIDTH 9 0
BBX 8 9 1 -1
BITMAP
28
28
EF
28
EE
6F
A8
48
88
ENDCHAR
STARTCHAR 2FAF
ENCODING 12207
SWIDTH 925 0
DWIDTH 9 0
BBX 8 8 1 -1
BITMAP
FF
10
FE
BA
AA
BA
FE
82
ENDCHAR
STARTCHAR 2FB0
ENCODING 12208
SWIDTH 925 0
DWIDTH 9 0
BBX 8 9 1 -1
BITMAP
24
FF
3C
10
7E
7E
FF
10
10
ENDCHAR
STARTCHAR 2FB1
ENCODING 12209
SWIDTH 925 0
DWIDTH 9 0
BBX 8 9 1 -1
BITMAP
10
7C
FE
7E
42
7E
FE
FF
08
ENDCHAR
STARTCHAR 2FB3
ENCODING 12211
SWIDTH 925 0
DWIDTH 9 0
BBX 8 9 1 -1
BITMAP
10
FE
24
FF
00
7C
7C
7C
42
ENDCHAR
STARTCHAR 2FB4
ENCODING 12212
SWIDTH 925 0
DWIDTH 9 0
BBX 8 8 1 -1
BITMAP
FE
7E
42
7E
7E
7E
6C
83
ENDCHAR
STARTCHAR 2FB5
ENCODING 12213
SWIDTH 925 0
DWIDTH 9 0
BBX 8 8 1 -1
BITMAP
FE
8A
F2
BA
D6
BB
9F
F5
ENDCHAR
STARTCHAR 2FB6
ENCODING 12214
SWIDTH 925 0
DWIDTH 9 0
BBX 8 9 1 -1
BITMAP
FA
76
D6
55
FB
56
56
95
93
ENDCHAR
STARTCHAR 2FB7
ENCODING 12215
SWIDTH 925 0
DWIDTH 9 0
BBX 8 9 1 -1
BITMAP
38
7C
83
7C
7C
7C
52
7C
C3
ENDCHAR
STARTCHAR 2FB8
ENCODING 12216
SWIDTH 925 0
DWIDTH 9 0
BBX 8 9 1 -1
BITMAP
24
FF
10
7E
42
7E
7E
7E
42
ENDCHAR
STARTCHAR 2FB9
ENCODING 12217
SWIDTH 925 0
DWIDTH 9 0
BBX 8 9 1 -1
BITMAP
0C
F0
FF
74
93
7E
7E
42
7E
ENDCHAR
STARTCHAR 2FBA
ENCODING 12218
SWIDTH 925 0
DWIDTH 9 0
BBX 7 8 1 -1
BITMAP
7E
7E
90
7E
7E
06
B6
A6
ENDCHAR
STARTCHAR 2FBB
ENCODING 12219
SWIDTH 925 0
DWIDTH 9 0
BBX 8 8 1 -1
BITMAP
7C
5C
FF
FD
44
7C
7C
4C
ENDCHAR
STARTCHAR 2FBC
ENCODING 12220
SWIDTH 925 0
DWIDTH 9 0
BBX 8 9 1 -1
BITMAP
FF
00
7C
7C
FE
81
BD
BD
86
ENDCHAR
STARTCHAR 2FC1
ENCODING 12225
SWIDTH 925 0
DWIDTH 9 0
BBX 8 9 1 -1
BITMAP
10
7E
92
7E
7E
34
36
4D
8E
ENDCHAR
STARTCHAR 2FC2
ENCODING 12226
SWIDTH 925 0
DWIDTH 9 0
BBX 8 9 1 -1
BITMAP
20
78
C8
FE
7E
7E
00
AA
A9
ENDCHAR
STARTCHAR 2FC3
ENCODING 12227
SWIDTH 925 0
DWIDTH 9 0
BBX 8 9 1 -1
BITMAP
10
7C
7C
7C
80
7F
01
B6
AE
ENDCHAR
STARTCHAR 2FC4
ENCODING 12228
SWIDTH 925 0
DWIDTH 9 0
BBX 7 9 1 -1
BITMAP
10
1E
FE
96
AA
DE
A6
FE
82
ENDCHAR
STARTCHAR 2FC5
ENCODING 12229
SWIDTH 925 0
DWIDTH 9 0
BBX 9 9 0 -1
BITMAP
0800
7F80
7F00
5500
7F00
5500
5A00
5C80
B300
ENDCHAR
STARTCHAR 2FC6
ENCODING 12230
SWIDTH 925 0
DWIDTH 9 0
BBX 8 9 1 -1
BITMAP
10
FF
56
3A
76
9D
E4
3C
C3
ENDCHAR
STARTCHAR 2FC7
ENCODING 12231
SWIDTH 925 0
DWIDTH 9 0
BBX 9 9 0 -1
BITMAP
0800
7F80
5200
7F00
7F00
7F00
7F80
5780
9200
ENDCHAR
STARTCHAR 2FC8
ENCODING 12232
SWIDTH 925 0
DWIDTH 9 0
BBX 8 9 1 -1
BITMAP
24
FE
00
FF
7E
7E
7E
64
83
ENDCHAR
STARTCHAR 2FC9
ENCODING 12233
SWIDTH 925 0
DWIDTH 9 0
BBX 8 9 1 -1
BITMAP
FE
10
FF
74
AB
D7
3C
54
B3
ENDCHAR
STARTCHAR 2FCA
ENCODING 12234
SWIDTH 925 0
DWIDTH 9 0
BBX 8 8 1 -1
BITMAP
7E
B6
92
FE
10
FF
AA
A9
ENDCHAR
STARTCHAR 2FCD
ENCODING 12237
SWIDTH 925 0
DWIDTH 9 0
BBX 8 8 1 -1
BITMAP
3C
BE
BE
BE
EE
EF
AA
AA
ENDCHAR
STARTCHAR 2FCE
ENCODING 12238
SWIDTH 925 0
DWIDTH 9 0
BBX 8 9 1 -1
BITMAP
44
F4
FF
04
FE
EA
A4
BA
D1
ENDCHAR
STARTCHAR 2FCF
ENCODING 12239
SWIDTH 925 0
DWIDTH 9 0
BBX 8 9 1 -1
BITMAP
EE
82
EE
FE
DA
B4
BA
FF
93
ENDCHAR
STARTCHAR 2FD0
ENCODING 12240
SWIDTH 925 0
DWIDTH 9 0
BBX 8 9 1 -1
BITMAP
10
7C
7C
7C
FE
92
FF
78
C4
ENDCHAR
STARTCHAR 2FD1
ENCODING 12241
SWIDTH 925 0
DWIDTH 9 0
BBX 8 9 1 -1
BITMAP
FF
28
F6
D6
99
7C
42
FC
82
ENDCHAR
STARTCHAR 2FD2
ENCODING 12242
SWIDTH 925 0
DWIDTH 9 0
BBX 8 9 1 -1
BITMAP
48
4E
FF
AA
DE
FE
AA
DE
FE
ENDCHAR
STARTCHAR 2FD3
ENCODING 12243
SWIDTH 925 0
DWIDTH 9 0
BBX 8 9 1 -1
BITMAP
48
FF
FE
0E
E8
EE
AE
E9
AF
ENDCHAR
STARTCHAR 2FD4
ENCODING 12244
SWIDTH 925 0
DWIDTH 9 0
BBX 8 9 1 -1
BITMAP
20
78
FE
6E
EE
DE
EE
59
1E
ENDCHAR
STARTCHAR 3000
ENCODING 12288
SWIDTH 925 0
DWIDTH 9 0
BBX 0 0 0 0
BITMAP
ENDCHAR
STARTCHAR 3001
ENCODING 12289
SWIDTH 925 0
DWIDTH 9 0
BBX 2 2 1 -2
BITMAP
80
40
ENDCHAR
STARTCHAR 3002
ENCODING 12290
SWIDTH 925 0
DWIDTH 9 0
BBX 3 2 0 -2
BITMAP
E0
E0
ENDCHAR
STARTCHAR 3003
ENCODING 12291
SWIDTH 925 0
DWIDTH 9 0
BBX 3 2 3 1
BITMAP
A0
A0
ENDCHAR
STARTCHAR 3008
ENCODING 12296
SWIDTH 514 0
DWIDTH 5 0
BBX 3 8 1 -1
BITMAP
20
40
80
80
80
80
40
20
ENDCHAR
STARTCHAR 3009
ENCODING 12297
SWIDTH 514 0
DWIDTH 5 0
BBX 3 6 1 0
BITMAP
80
40
20
20
40
80
ENDCHAR
STARTCHAR 300A
ENCODING 12298
SWIDTH 514 0
DWIDTH 5 0
BBX 4 8 0 -1
BITMAP
30
60
60
C0
C0
60
60
30
ENDCHAR
STARTCHAR 300B
ENCODING 12299
SWIDTH 514 0
DWIDTH 5 0
BBX 3 8 1 -1
BITMAP
80
C0
40
60
60
40
C0
80
ENDCHAR
STARTCHAR 300C
ENCODING 12300
SWIDTH 411 0
DWIDTH 4 0
BBX 2 4 0 3
BITMAP
C0
80
80
80
ENDCHAR
STARTCHAR 300D
ENCODING 12301
SWIDTH 411 0
DWIDTH 4 0
BBX 2 4 1 -1
BITMAP
40
40
40
C0
ENDCHAR
STARTCHAR 300E
ENCODING 12302
SWIDTH 411 0
DWIDTH 4 0
BBX 3 4 0 3
BITMAP
E0
80
80
80
ENDCHAR
STARTCHAR 300F
ENCODING 12303
SWIDTH 411 0
DWIDTH 4 0
BBX 3 4 0 -1
BITMAP
20
20
20
E0
ENDCHAR
STARTCHAR 3010
ENCODING 12304
SWIDTH 411 0
DWIDTH 4 0
BBX 3 8 0 -1
BITMAP
E0
C0
80
80
80
80
C0
E0
ENDCHAR
STARTCHAR 3011
ENCODING 12305
SWIDTH 411 0
DWIDTH 4 0
BBX 3 8 1 -1
BITMAP
E0
60
60
20
20
60
60
E0
ENDCHAR
STARTCHAR 3012
ENCODING 12306
SWIDTH 925 0
DWIDTH 9 0
BBX 8 8 1 -1
BITMAP
FF
00
00
FE
10
10
10
10
ENDCHAR
STARTCHAR 3013
ENCODING 12307
SWIDTH 925 0
DWIDTH 9 0
BBX 5 2 2 2
BITMAP
F8
F8
ENDCHAR
STARTCHAR 3014
ENCODING 12308
SWIDTH 308 0
DWIDTH 3 0
BBX 3 8 0 -1
BITMAP
60
80
80
80
80
80
80
60
ENDCHAR
STARTCHAR 3015
ENCODING 12309
SWIDTH 411 0
DWIDTH 4 0
BBX 2 8 1 -1
BITMAP
80
40
40
40
40
40
40
80
ENDCHAR
STARTCHAR 3016
ENCODING 12310
SWIDTH 411 0
DWIDTH 4 0
BBX 2 8 1 -1
BITMAP
C0
40
40
40
40
40
40
C0
ENDCHAR
STARTCHAR 3017
ENCODING 12311
SWIDTH 411 0
DWIDTH 4 0
BBX 2 8 1 -1
BITMAP
C0
C0
C0
C0
C0
C0
C0
C0
ENDCHAR
STARTCHAR 3018
ENCODING 12312
SWIDTH 411 0
DWIDTH 4 0
BBX 3 8 0 -1
BITMAP
60
80
80
80
80
80
80
60
ENDCHAR
STARTCHAR 3019
ENCODING 12313
SWIDTH 411 0
DWIDTH 4 0
BBX 3 8 1 -1
BITMAP
C0
20
20
20
20
20
20
C0
ENDCHAR
STARTCHAR 301C
ENCODING 12316
SWIDTH 925 0
DWIDTH 9 0
BBX 5 1 2 3
BITMAP
F8
ENDCHAR
STARTCHAR 301E
ENCODING 12318
SWIDTH 411 0
DWIDTH 4 0
BBX 3 2 0 5
BITMAP
60
80
ENDCHAR
STARTCHAR 301F
ENCODING 12319
SWIDTH 411 0
DWIDTH 4 0
BBX 3 2 0 -1
BITMAP
60
80
ENDCHAR
STARTCHAR 3020
ENCODING 12320
SWIDTH 925 0
DWIDTH 9 0
BBX 7 6 1 0
BITMAP
38
4E
AA
84
66
3C
ENDCHAR
STARTCHAR 3036
ENCODING 12342
SWIDTH 925 0
DWIDTH 9 0
BBX 9 8 0 -1
BITMAP
3F00
4080
BE80
B680
8880
8880
4880
3F00
ENDCHAR
STARTCHAR 3041
ENCODING 12353
SWIDTH 925 0
DWIDTH 9 0
BBX 5 6 2 0
BITMAP
30
50
78
A8
E8
10
ENDCHAR
STARTCHAR 3042
ENCODING 12354
SWIDTH 925 0
DWIDTH 9 0
BBX 7 8 1 -1
BITMAP
10
78
28
3C
6A
B2
F2
04
ENDCHAR
STARTCHAR 3043
ENCODING 12355
SWIDTH 925 0
DWIDTH 9 0
BBX 6 4 2 0
BITMAP
88
88
84
40
ENDCHAR
STARTCHAR 3044
ENCODING 12356
SWIDTH 925 0
DWIDTH 9 0
BBX 7 6 1 0
BITMAP
80
84
82
82
40
60
ENDCHAR
STARTCHAR 3045
ENCODING 12357
SWIDTH 925 0
DWIDTH 9 0
BBX 4 6 3 -1
BITMAP
40
20
E0
10
10
20
ENDCHAR
STARTCHAR 3046
ENCODING 12358
SWIDTH 925 0
DWIDTH 9 0
BBX 4 8 3 -1
BITMAP
60
00
60
90
10
10
20
60
ENDCHAR
STARTCHAR 3047
ENCODING 12359
SWIDTH 925 0
DWIDTH 9 0
BBX 5 6 2 0
BITMAP
20
00
F0
20
60
98
ENDCHAR
STARTCHAR 3048
ENCODING 12360
SWIDTH 925 0
DWIDTH 9 0
BBX 6 8 2 -1
BITMAP
20
10
60
A0
20
50
90
1C
ENDCHAR
STARTCHAR 3049
ENCODING 12361
SWIDTH 925 0
DWIDTH 9 0
BBX 5 6 2 0
BITMAP
48
40
78
C8
C8
10
ENDCHAR
STARTCHAR 304A
ENCODING 12362
SWIDTH 925 0
DWIDTH 9 0
BBX 7 8 1 -1
BITMAP
20
24
62
28
74
A2
A4
48
ENDCHAR
STARTCHAR 304B
ENCODING 12363
SWIDTH 925 0
DWIDTH 9 0
BBX 8 8 1 -1
BITMAP
20
20
FA
29
48
48
88
90
ENDCHAR
STARTCHAR 304C
ENCODING 12364
SWIDTH 925 0
DWIDTH 9 0
BBX 8 8 1 -1
BITMAP
21
22
F4
4A
48
48
90
20
ENDCHAR
STARTCHAR 304D
ENCODING 12365
SWIDTH 925 0
DWIDTH 9 0
BBX 5 8 2 -1
BITMAP
20
F0
28
F0
28
D8
80
70
ENDCHAR
STARTCHAR 304E
ENCODING 12366
SWIDTH 925 0
DWIDTH 9 0
BBX 7 8 1 -1
BITMAP
26
70
18
70
28
58
80
70
ENDCHAR
STARTCHAR 304F
ENCODING 12367
SWIDTH 925 0
DWIDTH 9 0
BBX 3 8 3 -1
BITMAP
20
40
40
80
80
40
20
20
ENDCHAR
STARTCHAR 3050
ENCODING 12368
SWIDTH 925 0
DWIDTH 9 0
BBX 5 8 2 -1
BITMAP
20
48
48
80
80
40
20
20
ENDCHAR
STARTCHAR 3051
ENCODING 12369
SWIDTH 925 0
DWIDTH 9 0
BBX 7 8 1 -1
BITMAP
04
44
9E
84
84
C4
48
18
ENDCHAR
STARTCHAR 3052
ENCODING 12370
SWIDTH 925 0
DWIDTH 9 0
BBX 8 8 1 -1
BITMAP
09
88
BC
88
88
88
90
10
ENDCHAR
STARTCHAR 3053
ENCODING 12371
SWIDTH 925 0
DWIDTH 9 0
BBX 5 6 2 0
BITMAP
78
00
00
00
80
F8
ENDCHAR
STARTCHAR 3054
ENCODING 12372
SWIDTH 925 0
DWIDTH 9 0
BBX 7 7 1 0
BITMAP
02
78
00
00
00
80
FC
ENDCHAR
STARTCHAR 3055
ENCODING 12373
SWIDTH 925 0
DWIDTH 9 0
BBX 5 8 2 -1
BITMAP
20
38
D0
10
78
88
80
70
ENDCHAR
STARTCHAR 3056
ENCODING 12374
SWIDTH 925 0
DWIDTH 9 0
BBX 7 8 1 0
BITMAP
26
28
F0
10
78
88
80
70
ENDCHAR
STARTCHAR 3057
ENCODING 12375
SWIDTH 925 0
DWIDTH 9 0
BBX 5 8 2 -1
BITMAP
80
80
80
80
80
80
88
70
ENDCHAR
STARTCHAR 3058
ENCODING 12376
SWIDTH 925 0
DWIDTH 9 0
BBX 5 8 2 -1
BITMAP
88
80
80
80
80
80
88
70
ENDCHAR
STARTCHAR 3059
ENCODING 12377
SWIDTH 925 0
DWIDTH 9 0
BBX 6 8 2 -1
BITMAP
10
FC
10
60
90
70
20
60
ENDCHAR
STARTCHAR 305A
ENCODING 12378
SWIDTH 925 0
DWIDTH 9 0
BBX 7 9 1 -1
BITMAP
02
12
7E
90
30
50
70
10
20
ENDCHAR
STARTCHAR 305B
ENCODING 12379
SWIDTH 925 0
DWIDTH 9 0
BBX 8 6 1 0
BITMAP
24
24
FF
24
28
3C
ENDCHAR
STARTCHAR 305C
ENCODING 12380
SWIDTH 925 0
DWIDTH 9 0
BBX 8 7 1 0
BITMAP
4B
48
FE
48
58
40
38
ENDCHAR
STARTCHAR 305D
ENCODING 12381
SWIDTH 925 0
DWIDTH 9 0
BBX 5 8 2 -1
BITMAP
F0
20
40
F8
20
20
20
38
ENDCHAR
STARTCHAR 305E
ENCODING 12382
SWIDTH 925 0
DWIDTH 9 0
BBX 5 8 2 -1
BITMAP
E0
28
C0
F8
20
40
40
30
ENDCHAR
STARTCHAR 305F
ENCODING 12383
SWIDTH 925 0
DWIDTH 9 0
BBX 7 8 1 -1
BITMAP
20
20
F0
2E
40
40
50
8E
ENDCHAR
STARTCHAR 3060
ENCODING 12384
SWIDTH 925 0
DWIDTH 9 0
BBX 7 8 1 -1
BITMAP
20
20
E0
5C
40
40
80
9E
ENDCHAR
STARTCHAR 3061
ENCODING 12385
SWIDTH 925 0
DWIDTH 9 0
BBX 6 8 2 -1
BITMAP
40
50
E0
40
78
44
04
38
ENDCHAR
STARTCHAR 3062
ENCODING 12386
SWIDTH 925 0
DWIDTH 9 0
BBX 7 8 1 -1
BITMAP
26
38
E0
20
5C
24
04
18
ENDCHAR
STARTCHAR 3063
ENCODING 12387
SWIDTH 925 0
DWIDTH 9 0
BBX 6 4 2 0
BITMAP
F8
04
08
30
ENDCHAR
STARTCHAR 3064
ENCODING 12388
SWIDTH 925 0
DWIDTH 9 0
BBX 6 5 2 0
BITMAP
FC
04
04
04
18
ENDCHAR
STARTCHAR 3065
ENCODING 12389
SWIDTH 925 0
DWIDTH 9 0
BBX 8 7 1 0
BITMAP
01
02
FC
02
02
04
18
ENDCHAR
STARTCHAR 3066
ENCODING 12390
SWIDTH 925 0
DWIDTH 9 0
BBX 6 6 2 -1
BITMAP
FC
10
20
20
20
18
ENDCHAR
STARTCHAR 3067
ENCODING 12391
SWIDTH 925 0
DWIDTH 9 0
BBX 7 6 1 -1
BITMAP
FC
10
22
20
30
18
ENDCHAR
STARTCHAR 3068
ENCODING 12392
SWIDTH 925 0
DWIDTH 9 0
BBX 5 8 2 -1
BITMAP
40
40
58
60
40
80
80
78
ENDCHAR
STARTCHAR 3069
ENCODING 12393
SWIDTH 925 0
DWIDTH 9 0
BBX 7 8 1 -1
BITMAP
42
44
48
30
40
80
80
78
ENDCHAR
STARTCHAR 306A
ENCODING 12394
SWIDTH 925 0
DWIDTH 9 0
BBX 6 8 2 -1
BITMAP
40
60
C4
90
90
38
54
30
ENDCHAR
STARTCHAR 306B
ENCODING 12395
SWIDTH 925 0
DWIDTH 9 0
BBX 7 6 1 -1
BITMAP
4E
80
80
80
C0
5E
ENDCHAR
STARTCHAR 306C
ENCODING 12396
SWIDTH 925 0
DWIDTH 9 0
BBX 8 6 1 1
BITMAP
10
BC
52
E2
AE
FF
ENDCHAR
STARTCHAR 306D
ENCODING 12397
SWIDTH 925 0
DWIDTH 9 0
BBX 8 8 1 -1
BITMAP
40
60
DC
62
42
CE
57
48
ENDCHAR
STARTCHAR 306E
ENCODING 12398
SWIDTH 925 0
DWIDTH 9 0
BBX 7 6 1 0
BITMAP
3C
52
92
92
A2
44
ENDCHAR
STARTCHAR 306F
ENCODING 12399
SWIDTH 925 0
DWIDTH 9 0
BBX 7 8 1 -1
BITMAP
08
88
9C
88
88
DC
AA
18
ENDCHAR
STARTCHAR 3070
ENCODING 12400
SWIDTH 925 0
DWIDTH 9 0
BBX 8 8 1 -1
BITMAP
0B
88
BC
88
88
9C
AA
90
ENDCHAR
STARTCHAR 3071
ENCODING 12401
SWIDTH 925 0
DWIDTH 9 0
BBX 8 9 1 -1
BITMAP
02
0D
8A
BC
88
88
9C
AA
90
ENDCHAR
STARTCHAR 3072
ENCODING 12402
SWIDTH 925 0
DWIDTH 9 0
BBX 7 8 1 -1
BITMAP
04
E4
46
44
84
88
48
30
ENDCHAR
STARTCHAR 3073
ENCODING 12403
SWIDTH 925 0
DWIDTH 9 0
BBX 8 8 1 0
BITMAP
03
C8
4C
88
88
88
90
70
ENDCHAR
STARTCHAR 3074
ENCODING 12404
SWIDTH 925 0
DWIDTH 9 0
BBX 8 8 1 0
BITMAP
03
C8
4C
88
88
88
88
70
ENDCHAR
STARTCHAR 3075
ENCODING 12405
SWIDTH 925 0
DWIDTH 9 0
BBX 7 8 1 -1
BITMAP
10
18
00
10
08
CA
08
18
ENDCHAR
STARTCHAR 3076
ENCODING 12406
SWIDTH 925 0
DWIDTH 9 0
BBX 8 8 1 -1
BITMAP
01
18
00
30
08
CA
08
38
ENDCHAR
STARTCHAR 3077
ENCODING 12407
SWIDTH 925 0
DWIDTH 9 0
BBX 8 8 1 -1
BITMAP
07
1A
00
30
08
CA
08
38
ENDCHAR
STARTCHAR 3078
ENCODING 12408
SWIDTH 925 0
DWIDTH 9 0
BBX 8 4 1 1
BITMAP
20
58
84
03
ENDCHAR
STARTCHAR 3079
ENCODING 12409
SWIDTH 925 0
DWIDTH 9 0
BBX 8 5 1 1
BITMAP
02
20
50
8C
03
ENDCHAR
STARTCHAR 307A
ENCODING 12410
SWIDTH 925 0
DWIDTH 9 0
BBX 8 5 1 1
BITMAP
06
26
50
8C
03
ENDCHAR
STARTCHAR 307B
ENCODING 12411
SWIDTH 925 0
DWIDTH 9 0
BBX 7 8 1 -1
BITMAP
14
88
8A
BC
88
DC
AA
18
ENDCHAR
STARTCHAR 307C
ENCODING 12412
SWIDTH 925 0
DWIDTH 9 0
BBX 8 8 1 -1
BITMAP
10
8B
88
B8
88
9C
AA
30
ENDCHAR
STARTCHAR 307D
ENCODING 12413
SWIDTH 925 0
DWIDTH 9 0
BBX 8 8 1 -1
BITMAP
10
8B
88
B8
88
9C
AA
30
ENDCHAR
STARTCHAR 307E
ENCODING 12414
SWIDTH 925 0
DWIDTH 9 0
BBX 5 8 2 -1
BITMAP
20
F8
20
F8
20
70
A8
E0
ENDCHAR
STARTCHAR 307F
ENCODING 12415
SWIDTH 925 0
DWIDTH 9 0
BBX 7 7 1 -1
BITMAP
70
14
34
EC
C6
C8
08
ENDCHAR
STARTCHAR 3080
ENCODING 12416
SWIDTH 925 0
DWIDTH 9 0
BBX 7 8 1 -1
BITMAP
20
70
22
60
A0
E0
22
3C
ENDCHAR
STARTCHAR 3081
ENCODING 12417
SWIDTH 925 0
DWIDTH 9 0
BBX 8 7 1 -1
BITMAP
10
7C
52
E1
A2
D2
04
ENDCHAR
STARTCHAR 3082
ENCODING 12418
SWIDTH 925 0
DWIDTH 9 0
BBX 5 8 2 -1
BITMAP
20
20
70
40
E0
48
48
38
ENDCHAR
STARTCHAR 3083
ENCODING 12419
SWIDTH 925 0
DWIDTH 9 0
BBX 6 6 2 -1
BITMAP
A8
B4
C4
58
20
20
ENDCHAR
STARTCHAR 3084
ENCODING 12420
SWIDTH 925 0
DWIDTH 9 0
BBX 8 8 1 -1
BITMAP
10
4C
5A
69
A6
20
10
10
ENDCHAR
STARTCHAR 3085
ENCODING 12421
SWIDTH 925 0
DWIDTH 9 0
BBX 5 6 2 -1
BITMAP
90
F8
98
B8
90
20
ENDCHAR
STARTCHAR 3086
ENCODING 12422
SWIDTH 925 0
DWIDTH 9 0
BBX 7 8 1 -1
BITMAP
08
9C
AA
CA
CA
9C
08
10
ENDCHAR
STARTCHAR 3087
ENCODING 12423
SWIDTH 925 0
DWIDTH 9 0
BBX 5 5 2 0
BITMAP
20
30
20
30
E8
ENDCHAR
STARTCHAR 3088
ENCODING 12424
SWIDTH 925 0
DWIDTH 9 0
BBX 5 8 2 -1
BITMAP
20
20
38
20
20
70
A8
E0
ENDCHAR
STARTCHAR 3089
ENCODING 12425
SWIDTH 925 0
DWIDTH 9 0
BBX 5 8 2 -1
BITMAP
40
20
80
80
B0
48
08
30
ENDCHAR
STARTCHAR 308A
ENCODING 12426
SWIDTH 925 0
DWIDTH 9 0
BBX 5 8 2 -1
BITMAP
48
48
88
C8
48
08
10
10
ENDCHAR
STARTCHAR 308B
ENCODING 12427
SWIDTH 925 0
DWIDTH 9 0
BBX 6 8 2 -1
BITMAP
70
10
20
78
84
24
58
30
ENDCHAR
STARTCHAR 308C
ENCODING 12428
SWIDTH 925 0
DWIDTH 9 0
BBX 8 8 1 -1
BITMAP
40
60
DC
64
44
C4
45
46
ENDCHAR
STARTCHAR 308D
ENCODING 12429
SWIDTH 925 0
DWIDTH 9 0
BBX 6 8 2 -1
BITMAP
30
50
20
78
84
04
08
10
ENDCHAR
STARTCHAR 308E
ENCODING 12430
SWIDTH 925 0
DWIDTH 9 0
BBX 6 6 2 0
BITMAP
40
40
F8
44
C4
48
ENDCHAR
STARTCHAR 308F
ENCODING 12431
SWIDTH 925 0
DWIDTH 9 0
BBX 7 8 1 -1
BITMAP
20
20
6C
32
42
A2
26
04
ENDCHAR
STARTCHAR 3090
ENCODING 12432
SWIDTH 925 0
DWIDTH 9 0
BBX 7 8 1 -1
BITMAP
10
28
10
3C
62
AA
D6
0C
ENDCHAR
STARTCHAR 3091
ENCODING 12433
SWIDTH 925 0
DWIDTH 9 0
BBX 7 8 1 -1
BITMAP
38
10
3C
54
2C
30
6C
92
ENDCHAR
STARTCHAR 3092
ENCODING 12434
SWIDTH 925 0
DWIDTH 9 0
BBX 5 7 2 0
BITMAP
F0
40
E0
98
30
40
38
ENDCHAR
STARTCHAR 3093
ENCODING 12435
SWIDTH 925 0
DWIDTH 9 0
BBX 6 8 2 -1
BITMAP
20
20
20
40
60
94
94
08
ENDCHAR
STARTCHAR 30A1
ENCODING 12449
SWIDTH 925 0
DWIDTH 9 0
BBX 4 5 3 -1
BITMAP
F0
50
60
40
80
ENDCHAR
STARTCHAR 30A2
ENCODING 12450
SWIDTH 925 0
DWIDTH 9 0
BBX 6 6 2 -1
BITMAP
FC
28
30
20
20
40
ENDCHAR
STARTCHAR 30A3
ENCODING 12451
SWIDTH 925 0
DWIDTH 9 0
BBX 4 5 3 -1
BITMAP
10
60
A0
20
20
ENDCHAR
STARTCHAR 30A4
ENCODING 12452
SWIDTH 925 0
DWIDTH 9 0
BBX 5 7 2 0
BITMAP
08
10
70
90
10
10
10
ENDCHAR
STARTCHAR 30A5
ENCODING 12453
SWIDTH 925 0
DWIDTH 9 0
BBX 5 6 2 -1
BITMAP
70
88
88
08
10
20
ENDCHAR
STARTCHAR 30A6
ENCODING 12454
SWIDTH 925 0
DWIDTH 9 0
BBX 6 8 2 -1
BITMAP
20
FC
84
84
08
08
10
20
ENDCHAR
STARTCHAR 30A7
ENCODING 12455
SWIDTH 925 0
DWIDTH 9 0
BBX 5 4 2 0
BITMAP
70
20
20
F8
ENDCHAR
STARTCHAR 30A8
ENCODING 12456
SWIDTH 925 0
DWIDTH 9 0
BBX 7 5 1 0
BITMAP
7C
10
10
10
FE
ENDCHAR
STARTCHAR 30A9
ENCODING 12457
SWIDTH 925 0
DWIDTH 9 0
BBX 5 6 2 -1
BITMAP
10
F8
30
50
90
20
ENDCHAR
STARTCHAR 30AA
ENCODING 12458
SWIDTH 925 0
DWIDTH 9 0
BBX 6 8 2 -1
BITMAP
10
10
FC
30
50
90
10
20
ENDCHAR
STARTCHAR 30AB
ENCODING 12459
SWIDTH 925 0
DWIDTH 9 0
BBX 6 8 2 -1
BITMAP
20
20
FC
24
24
44
88
18
ENDCHAR
STARTCHAR 30AC
ENCODING 12460
SWIDTH 925 0
DWIDTH 9 0
BBX 8 8 1 -1
BITMAP
21
22
FC
24
24
44
C4
98
ENDCHAR
STARTCHAR 30AD
ENCODING 12461
SWIDTH 925 0
DWIDTH 9 0
BBX 6 8 2 -1
BITMAP
20
20
F8
20
7C
A0
20
10
ENDCHAR
STARTCHAR 30AE
ENCODING 12462
SWIDTH 925 0
DWIDTH 9 0
BBX 6 8 1 -1
BITMAP
20
20
F8
10
3C
D0
10
10
ENDCHAR
STARTCHAR 30AF
ENCODING 12463
SWIDTH 925 0
DWIDTH 9 0
BBX 6 8 2 -1
BITMAP
20
38
44
88
18
10
60
80
ENDCHAR
STARTCHAR 30B0
ENCODING 12464
SWIDTH 925 0
DWIDTH 9 0
BBX 8 7 1 -1
BITMAP
21
3A
44
88
08
10
60
ENDCHAR
STARTCHAR 30B1
ENCODING 12465
SWIDTH 925 0
DWIDTH 9 0
BBX 7 7 1 0
BITMAP
20
5E
88
08
08
10
20
ENDCHAR
STARTCHAR 30B2
ENCODING 12466
SWIDTH 925 0
DWIDTH 9 0
BBX 8 8 1 -1
BITMAP
23
40
7C
88
10
10
20
20
ENDCHAR
STARTCHAR 30B3
ENCODING 12467
SWIDTH 925 0
DWIDTH 9 0
BBX 5 6 2 0
BITMAP
F8
08
08
08
08
F8
ENDCHAR
STARTCHAR 30B4
ENCODING 12468
SWIDTH 925 0
DWIDTH 9 0
BBX 6 6 1 1
BITMAP
78
04
04
04
04
FC
ENDCHAR
STARTCHAR 30B5
ENCODING 12469
SWIDTH 925 0
DWIDTH 9 0
BBX 7 8 1 -1
BITMAP
24
24
FE
24
24
08
08
10
ENDCHAR
STARTCHAR 30B6
ENCODING 12470
SWIDTH 925 0
DWIDTH 9 0
BBX 8 8 1 -1
BITMAP
4B
48
FC
48
48
10
10
20
ENDCHAR
STARTCHAR 30B7
ENCODING 12471
SWIDTH 925 0
DWIDTH 9 0
BBX 6 6 2 0
BITMAP
40
00
84
08
30
C0
ENDCHAR
STARTCHAR 30B8
ENCODING 12472
SWIDTH 925 0
DWIDTH 9 0
BBX 6 7 2 0
BITMAP
04
40
00
84
08
30
C0
ENDCHAR
STARTCHAR 30B9
ENCODING 12473
SWIDTH 925 0
DWIDTH 9 0
BBX 6 6 2 0
BITMAP
F0
10
10
30
48
84
ENDCHAR
STARTCHAR 30BA
ENCODING 12474
SWIDTH 925 0
DWIDTH 9 0
BBX 7 7 1 0
BITMAP
06
78
08
08
18
24
C4
ENDCHAR
STARTCHAR 30BB
ENCODING 12475
SWIDTH 925 0
DWIDTH 9 0
BBX 7 7 1 -1
BITMAP
20
3E
E2
24
20
20
1C
ENDCHAR
STARTCHAR 30BC
ENCODING 12476
SWIDTH 925 0
DWIDTH 9 0
BBX 8 8 1 -1
BITMAP
01
40
5C
E4
48
40
40
3C
ENDCHAR
STARTCHAR 30BD
ENCODING 12477
SWIDTH 925 0
DWIDTH 9 0
BBX 6 7 2 -1
BITMAP
84
88
08
10
10
20
40
ENDCHAR
STARTCHAR 30BE
ENCODING 12478
SWIDTH 925 0
DWIDTH 9 0
BBX 8 8 1 0
BITMAP
03
84
88
08
10
10
20
40
ENDCHAR
STARTCHAR 30BF
ENCODING 12479
SWIDTH 925 0
DWIDTH 9 0
BBX 6 8 2 -1
BITMAP
20
38
44
88
30
30
68
80
ENDCHAR
STARTCHAR 30C0
ENCODING 12480
SWIDTH 925 0
DWIDTH 9 0
BBX 8 8 1 -1
BITMAP
21
3A
44
88
28
10
68
80
ENDCHAR
STARTCHAR 30C1
ENCODING 12481
SWIDTH 925 0
DWIDTH 9 0
BBX 7 8 1 -1
BITMAP
0C
70
10
FE
10
10
20
60
ENDCHAR
STARTCHAR 30C2
ENCODING 12482
SWIDTH 925 0
DWIDTH 9 0
BBX 8 8 1 -1
BITMAP
08
73
10
FC
10
20
20
C0
ENDCHAR
STARTCHAR 30C3
ENCODING 12483
SWIDTH 925 0
DWIDTH 9 0
BBX 5 5 2 -1
BITMAP
20
A8
08
10
20
ENDCHAR
STARTCHAR 30C4
ENCODING 12484
SWIDTH 925 0
DWIDTH 9 0
BBX 7 7 1 -1
BITMAP
92
52
04
04
08
10
20
ENDCHAR
STARTCHAR 30C5
ENCODING 12485
SWIDTH 925 0
DWIDTH 9 0
BBX 9 7 0 -1
BITMAP
0180
9200
5200
0400
0400
0800
1000
ENDCHAR
STARTCHAR 30C6
ENCODING 12486
SWIDTH 925 0
DWIDTH 9 0
BBX 6 7 2 -1
BITMAP
70
DC
20
20
20
40
40
ENDCHAR
STARTCHAR 30C7
ENCODING 12487
SWIDTH 925 0
DWIDTH 9 0
BBX 7 8 1 0
BITMAP
7A
00
EC
10
10
20
20
40
ENDCHAR
STARTCHAR 30C8
ENCODING 12488
SWIDTH 925 0
DWIDTH 9 0
BBX 3 8 3 -1
BITMAP
80
80
80
E0
80
80
80
80
ENDCHAR
STARTCHAR 30C9
ENCODING 12489
SWIDTH 925 0
DWIDTH 9 0
BBX 5 8 2 -1
BITMAP
88
90
80
E0
90
80
80
80
ENDCHAR
STARTCHAR 30CA
ENCODING 12490
SWIDTH 925 0
DWIDTH 9 0
BBX 7 7 1 -1
BITMAP
10
10
FE
10
10
10
20
ENDCHAR
STARTCHAR 30CB
ENCODING 12491
SWIDTH 925 0
DWIDTH 9 0
BBX 6 6 2 0
BITMAP
F8
00
00
00
00
FC
ENDCHAR
STARTCHAR 30CC
ENCODING 12492
SWIDTH 925 0
DWIDTH 9 0
BBX 5 6 2 0
BITMAP
78
08
70
10
28
C0
ENDCHAR
STARTCHAR 30CD
ENCODING 12493
SWIDTH 925 0
DWIDTH 9 0
BBX 7 8 1 -1
BITMAP
10
78
04
08
34
D2
10
10
ENDCHAR
STARTCHAR 30CE
ENCODING 12494
SWIDTH 925 0
DWIDTH 9 0
BBX 5 7 2 -1
BITMAP
08
08
10
10
20
40
80
ENDCHAR
STARTCHAR 30CF
ENCODING 12495
SWIDTH 925 0
DWIDTH 9 0
BBX 7 4 1 1
BITMAP
24
22
42
82
ENDCHAR
STARTCHAR 30D0
ENCODING 12496
SWIDTH 925 0
DWIDTH 9 0
BBX 7 5 1 2
BITMAP
02
24
44
42
82
ENDCHAR
STARTCHAR 30D1
ENCODING 12497
SWIDTH 925 0
DWIDTH 9 0
BBX 8 6 1 1
BITMAP
03
03
24
44
42
82
ENDCHAR
STARTCHAR 30D2
ENCODING 12498
SWIDTH 925 0
DWIDTH 9 0
BBX 5 6 2 0
BITMAP
80
98
E0
80
80
F8
ENDCHAR
STARTCHAR 30D3
ENCODING 12499
SWIDTH 925 0
DWIDTH 9 0
BBX 7 8 1 -1
BITMAP
06
80
98
E0
80
80
80
7C
ENDCHAR
STARTCHAR 30D4
ENCODING 12500
SWIDTH 925 0
DWIDTH 9 0
BBX 7 8 1 -1
BITMAP
06
80
98
E0
80
80
80
7C
ENDCHAR
STARTCHAR 30D5
ENCODING 12501
SWIDTH 925 0
DWIDTH 9 0
BBX 6 6 2 -1
BITMAP
F8
04
08
10
10
60
ENDCHAR
STARTCHAR 30D6
ENCODING 12502
SWIDTH 925 0
DWIDTH 9 0
BBX 7 9 1 -1
BITMAP
02
02
FC
04
08
08
10
20
40
ENDCHAR
STARTCHAR 30D7
ENCODING 12503
SWIDTH 925 0
DWIDTH 9 0
BBX 7 9 1 -1
BITMAP
02
06
FC
04
08
08
10
20
40
ENDCHAR
STARTCHAR 30D8
ENCODING 12504
SWIDTH 925 0
DWIDTH 9 0
BBX 8 4 1 1
BITMAP
20
58
84
03
ENDCHAR
STARTCHAR 30D9
ENCODING 12505
SWIDTH 925 0
DWIDTH 9 0
BBX 8 5 1 1
BITMAP
02
20
50
8C
03
ENDCHAR
STARTCHAR 30DA
ENCODING 12506
SWIDTH 925 0
DWIDTH 9 0
BBX 8 5 1 1
BITMAP
06
26
50
8C
03
ENDCHAR
STARTCHAR 30DB
ENCODING 12507
SWIDTH 925 0
DWIDTH 9 0
BBX 6 8 2 -1
BITMAP
20
20
FC
20
A4
A4
20
20
ENDCHAR
STARTCHAR 30DC
ENCODING 12508
SWIDTH 925 0
DWIDTH 9 0
BBX 7 8 1 -1
BITMAP
10
10
FE
10
54
92
10
30
ENDCHAR
STARTCHAR 30DD
ENCODING 12509
SWIDTH 925 0
DWIDTH 9 0
BBX 7 9 1 -1
BITMAP
02
16
10
FE
10
54
92
10
30
ENDCHAR
STARTCHAR 30DE
ENCODING 12510
SWIDTH 925 0
DWIDTH 9 0
BBX 6 5 2 0
BITMAP
FC
08
50
20
10
ENDCHAR
STARTCHAR 30DF
ENCODING 12511
SWIDTH 925 0
DWIDTH 9 0
BBX 4 7 3 0
BITMAP
80
60
00
E0
00
C0
30
ENDCHAR
STARTCHAR 30E0
ENCODING 12512
SWIDTH 925 0
DWIDTH 9 0
BBX 7 6 1 0
BITMAP
10
10
20
24
42
FE
ENDCHAR
STARTCHAR 30E1
ENCODING 12513
SWIDTH 925 0
DWIDTH 9 0
BBX 6 6 2 0
BITMAP
04
08
30
38
68
80
ENDCHAR
STARTCHAR 30E2
ENCODING 12514
SWIDTH 925 0
DWIDTH 9 0
BBX 7 6 1 0
BITMAP
3C
10
FE
10
10
1C
ENDCHAR
STARTCHAR 30E3
ENCODING 12515
SWIDTH 925 0
DWIDTH 9 0
BBX 5 6 2 -1
BITMAP
40
78
A8
20
20
20
ENDCHAR
STARTCHAR 30E4
ENCODING 12516
SWIDTH 925 0
DWIDTH 9 0
BBX 7 8 1 -1
BITMAP
20
20
3E
E2
14
10
10
10
ENDCHAR
STARTCHAR 30E5
ENCODING 12517
SWIDTH 925 0
DWIDTH 9 0
BBX 6 4 2 0
BITMAP
70
10
10
FC
ENDCHAR
STARTCHAR 30E6
ENCODING 12518
SWIDTH 925 0
DWIDTH 9 0
BBX 7 6 1 0
BITMAP
7C
04
04
04
04
FE
ENDCHAR
STARTCHAR 30E7
ENCODING 12519
SWIDTH 925 0
DWIDTH 9 0
BBX 5 4 2 0
BITMAP
78
78
08
F8
ENDCHAR
STARTCHAR 30E8
ENCODING 12520
SWIDTH 925 0
DWIDTH 9 0
BBX 5 6 2 0
BITMAP
F8
08
78
08
08
F8
ENDCHAR
STARTCHAR 30E9
ENCODING 12521
SWIDTH 925 0
DWIDTH 9 0
BBX 6 8 2 -1
BITMAP
70
00
F8
04
08
10
30
40
ENDCHAR
STARTCHAR 30EA
ENCODING 12522
SWIDTH 925 0
DWIDTH 9 0
BBX 4 8 3 -1
BITMAP
10
90
90
90
10
20
20
40
ENDCHAR
STARTCHAR 30EB
ENCODING 12523
SWIDTH 925 0
DWIDTH 9 0
BBX 7 6 1 0
BITMAP
50
50
50
52
54
98
ENDCHAR
STARTCHAR 30EC
ENCODING 12524
SWIDTH 925 0
DWIDTH 9 0
BBX 5 6 2 0
BITMAP
80
80
80
88
90
E0
ENDCHAR
STARTCHAR 30ED
ENCODING 12525
SWIDTH 925 0
DWIDTH 9 0
BBX 6 6 2 0
BITMAP
FC
84
84
84
84
FC
ENDCHAR
STARTCHAR 30EE
ENCODING 12526
SWIDTH 925 0
DWIDTH 9 0
BBX 5 6 2 -1
BITMAP
F8
88
88
08
10
20
ENDCHAR
STARTCHAR 30EF
ENCODING 12527
SWIDTH 925 0
DWIDTH 9 0
BBX 6 6 2 -1
BITMAP
FC
84
88
08
08
10
ENDCHAR
STARTCHAR 30F0
ENCODING 12528
SWIDTH 925 0
DWIDTH 9 0
BBX 7 8 1 -1
BITMAP
08
08
7E
48
48
FE
08
08
ENDCHAR
STARTCHAR 30F1
ENCODING 12529
SWIDTH 925 0
DWIDTH 9 0
BBX 7 6 1 0
BITMAP
7E
04
1C
10
10
FE
ENDCHAR
STARTCHAR 30F2
ENCODING 12530
SWIDTH 925 0
DWIDTH 9 0
BBX 6 6 2 -1
BITMAP
7C
08
F8
08
10
60
ENDCHAR
STARTCHAR 30F3
ENCODING 12531
SWIDTH 925 0
DWIDTH 9 0
BBX 6 6 2 0
BITMAP
80
04
08
10
20
C0
ENDCHAR
STARTCHAR 30F4
ENCODING 12532
SWIDTH 925 0
DWIDTH 9 0
BBX 7 8 1 0
BITMAP
22
FC
84
84
08
08
10
20
ENDCHAR
STARTCHAR 30F5
ENCODING 12533
SWIDTH 925 0
DWIDTH 9 0
BBX 4 6 3 -1
BITMAP
40
F0
50
50
90
20
ENDCHAR
STARTCHAR 30F6
ENCODING 12534
SWIDTH 925 0
DWIDTH 9 0
BBX 6 6 2 -1
BITMAP
40
7C
90
10
20
40
ENDCHAR
STARTCHAR 30FB
ENCODING 12539
SWIDTH 308 0
DWIDTH 3 0
BBX 1 1 1 3
BITMAP
80
ENDCHAR
STARTCHAR 30FC
ENCODING 12540
SWIDTH 925 0
DWIDTH 9 0
BBX 8 1 1 2
BITMAP
FF
ENDCHAR
STARTCHAR 3131
ENCODING 12593
SWIDTH 925 0
DWIDTH 9 0
BBX 5 4 2 1
BITMAP
F8
08
08
08
ENDCHAR
STARTCHAR 3132
ENCODING 12594
SWIDTH 925 0
DWIDTH 9 0
BBX 6 4 2 1
BITMAP
DC
24
24
24
ENDCHAR
STARTCHAR 3133
ENCODING 12595
SWIDTH 925 0
DWIDTH 9 0
BBX 7 4 1 1
BITMAP
E4
24
2C
32
ENDCHAR
STARTCHAR 3134
ENCODING 12596
SWIDTH 925 0
DWIDTH 9 0
BBX 5 4 2 1
BITMAP
80
80
80
F8
ENDCHAR
STARTCHAR 3135
ENCODING 12597
SWIDTH 925 0
DWIDTH 9 0
BBX 7 4 1 1
BITMAP
9E
84
8C
F2
ENDCHAR
STARTCHAR 3136
ENCODING 12598
SWIDTH 925 0
DWIDTH 9 0
BBX 7 5 1 1
BITMAP
0C
80
9E
92
EC
ENDCHAR
STARTCHAR 3137
ENCODING 12599
SWIDTH 925 0
DWIDTH 9 0
BBX 5 4 2 1
BITMAP
F8
80
80
F8
ENDCHAR
STARTCHAR 3138
ENCODING 12600
SWIDTH 925 0
DWIDTH 9 0
BBX 6 4 2 1
BITMAP
DC
90
90
DC
ENDCHAR
STARTCHAR 3139
ENCODING 12601
SWIDTH 925 0
DWIDTH 9 0
BBX 5 4 2 1
BITMAP
F8
F8
80
F8
ENDCHAR
STARTCHAR 313A
ENCODING 12602
SWIDTH 925 0
DWIDTH 9 0
BBX 6 4 2 1
BITMAP
FC
E4
84
E4
ENDCHAR
STARTCHAR 313B
ENCODING 12603
SWIDTH 925 0
DWIDTH 9 0
BBX 6 4 2 1
BITMAP
DC
D4
94
FC
ENDCHAR
STARTCHAR 313C
ENCODING 12604
SWIDTH 925 0
DWIDTH 9 0
BBX 6 4 2 1
BITMAP
D4
DC
94
FC
ENDCHAR
STARTCHAR 313D
ENCODING 12605
SWIDTH 925 0
DWIDTH 9 0
BBX 7 4 1 1
BITMAP
E4
E4
8C
F2
ENDCHAR
STARTCHAR 313E
ENCODING 12606
SWIDTH 925 0
DWIDTH 9 0
BBX 6 4 2 1
BITMAP
DC
DC
90
FC
ENDCHAR
STARTCHAR 313F
ENCODING 12607
SWIDTH 925 0
DWIDTH 9 0
BBX 7 4 1 1
BITMAP
EE
EC
8C
EE
ENDCHAR
STARTCHAR 3140
ENCODING 12608
SWIDTH 925 0
DWIDTH 9 0
BBX 7 4 1 1
BITMAP
EC
FE
8E
EE
ENDCHAR
STARTCHAR 3141
ENCODING 12609
SWIDTH 925 0
DWIDTH 9 0
BBX 5 4 2 1
BITMAP
F8
88
88
F8
ENDCHAR
STARTCHAR 3142
ENCODING 12610
SWIDTH 925 0
DWIDTH 9 0
BBX 5 4 2 1
BITMAP
88
F8
88
F8
ENDCHAR
STARTCHAR 3143
ENCODING 12611
SWIDTH 925 0
DWIDTH 9 0
BBX 6 4 2 1
BITMAP
B4
DC
B4
DC
ENDCHAR
STARTCHAR 3144
ENCODING 12612
SWIDTH 925 0
DWIDTH 9 0
BBX 7 4 1 1
BITMAP
A4
E4
AC
F2
ENDCHAR
STARTCHAR 3145
ENCODING 12613
SWIDTH 925 0
DWIDTH 9 0
BBX 5 4 2 1
BITMAP
20
20
50
88
ENDCHAR
STARTCHAR 3146
ENCODING 12614
SWIDTH 925 0
DWIDTH 9 0
BBX 7 4 1 1
BITMAP
24
2C
DE
10
ENDCHAR
STARTCHAR 3147
ENCODING 12615
SWIDTH 925 0
DWIDTH 9 0
BBX 5 4 2 1
BITMAP
70
88
88
70
ENDCHAR
STARTCHAR 3148
ENCODING 12616
SWIDTH 925 0
DWIDTH 9 0
BBX 6 4 2 1
BITMAP
F8
10
70
8C
ENDCHAR
STARTCHAR 3149
ENCODING 12617
SWIDTH 925 0
DWIDTH 9 0
BBX 7 4 1 1
BITMAP
6C
24
DE
10
ENDCHAR
STARTCHAR 314A
ENCODING 12618
SWIDTH 925 0
DWIDTH 9 0
BBX 6 5 2 1
BITMAP
70
F8
10
70
8C
ENDCHAR
STARTCHAR 314B
ENCODING 12619
SWIDTH 925 0
DWIDTH 9 0
BBX 5 4 2 1
BITMAP
F8
F8
08
08
ENDCHAR
STARTCHAR 314C
ENCODING 12620
SWIDTH 925 0
DWIDTH 9 0
BBX 5 4 2 1
BITMAP
F8
F8
80
F8
ENDCHAR
STARTCHAR 314D
ENCODING 12621
SWIDTH 925 0
DWIDTH 9 0
BBX 6 4 2 1
BITMAP
F8
50
50
FC
ENDCHAR
STARTCHAR 314E
ENCODING 12622
SWIDTH 925 0
DWIDTH 9 0
BBX 6 6 2 0
BITMAP
70
FC
70
88
88
70
ENDCHAR
STARTCHAR 314F
ENCODING 12623
SWIDTH 925 0
DWIDTH 9 0
BBX 2 9 4 -1
BITMAP
80
80
80
80
C0
80
80
80
80
ENDCHAR
STARTCHAR 3150
ENCODING 12624
SWIDTH 925 0
DWIDTH 9 0
BBX 3 9 3 -1
BITMAP
A0
A0
A0
A0
E0
A0
A0
A0
A0
ENDCHAR
STARTCHAR 3151
ENCODING 12625
SWIDTH 925 0
DWIDTH 9 0
BBX 2 9 4 -1
BITMAP
80
80
80
C0
80
C0
80
80
80
ENDCHAR
STARTCHAR 3152
ENCODING 12626
SWIDTH 925 0
DWIDTH 9 0
BBX 3 9 3 -1
BITMAP
A0
A0
A0
E0
A0
E0
A0
A0
A0
ENDCHAR
STARTCHAR 3153
ENCODING 12627
SWIDTH 925 0
DWIDTH 9 0
BBX 3 9 3 -1
BITMAP
20
20
20
20
E0
20
20
20
20
ENDCHAR
STARTCHAR 3154
ENCODING 12628
SWIDTH 925 0
DWIDTH 9 0
BBX 4 9 3 -1
BITMAP
50
50
50
50
D0
50
50
50
50
ENDCHAR
STARTCHAR 3155
ENCODING 12629
SWIDTH 925 0
DWIDTH 9 0
BBX 3 9 3 -1
BITMAP
20
20
20
E0
20
E0
20
20
20
ENDCHAR
STARTCHAR 3156
ENCODING 12630
SWIDTH 925 0
DWIDTH 9 0
BBX 4 9 3 -1
BITMAP
50
50
50
D0
50
D0
50
50
50
ENDCHAR
STARTCHAR 3157
ENCODING 12631
SWIDTH 925 0
DWIDTH 9 0
BBX 9 3 0 1
BITMAP
0800
0800
FF80
ENDCHAR
STARTCHAR 3158
ENCODING 12632
SWIDTH 925 0
DWIDTH 9 0
BBX 9 9 0 -1
BITMAP
0100
0100
0100
0100
1180
1100
FD00
0100
0100
ENDCHAR
STARTCHAR 3159
ENCODING 12633
SWIDTH 925 0
DWIDTH 9 0
BBX 8 9 1 -1
BITMAP
05
05
05
05
27
25
FD
05
05
ENDCHAR
STARTCHAR 315A
ENCODING 12634
SWIDTH 925 0
DWIDTH 9 0
BBX 7 9 1 -1
BITMAP
02
02
02
02
12
12
FE
02
02
ENDCHAR
STARTCHAR 315B
ENCODING 12635
SWIDTH 925 0
DWIDTH 9 0
BBX 9 3 0 1
BITMAP
1200
1200
FF80
ENDCHAR
STARTCHAR 315C
ENCODING 12636
SWIDTH 925 0
DWIDTH 9 0
BBX 9 4 0 0
BITMAP
FF80
0800
0800
0800
ENDCHAR
STARTCHAR 315D
ENCODING 12637
SWIDTH 925 0
DWIDTH 9 0
BBX 8 9 1 -1
BITMAP
01
01
01
01
FD
21
27
21
21
ENDCHAR
STARTCHAR 315E
ENCODING 12638
SWIDTH 925 0
DWIDTH 9 0
BBX 8 9 1 -1
BITMAP
05
05
05
05
FD
25
2D
25
05
ENDCHAR
STARTCHAR 315F
ENCODING 12639
SWIDTH 925 0
DWIDTH 9 0
BBX 8 9 1 -1
BITMAP
01
01
01
01
FD
21
21
21
21
ENDCHAR
STARTCHAR 3160
ENCODING 12640
SWIDTH 925 0
DWIDTH 9 0
BBX 9 4 0 0
BITMAP
FF80
1200
1200
1200
ENDCHAR
STARTCHAR 3161
ENCODING 12641
SWIDTH 925 0
DWIDTH 9 0
BBX 9 1 0 2
BITMAP
FF80
ENDCHAR
STARTCHAR 3162
ENCODING 12642
SWIDTH 925 0
DWIDTH 9 0
BBX 8 9 1 -1
BITMAP
01
01
01
01
01
01
FD
01
01
ENDCHAR
STARTCHAR 3163
ENCODING 12643
SWIDTH 925 0
DWIDTH 9 0
BBX 1 9 4 -1
BITMAP
80
80
80
80
80
80
80
80
80
ENDCHAR
STARTCHAR 3164
ENCODING 12644
SWIDTH 925 0
DWIDTH 9 0
BBX 0 0 0 0
BITMAP
ENDCHAR
STARTCHAR 3165
ENCODING 12645
SWIDTH 925 0
DWIDTH 9 0
BBX 6 4 2 1
BITMAP
90
90
90
FC
ENDCHAR
STARTCHAR 3166
ENCODING 12646
SWIDTH 925 0
DWIDTH 9 0
BBX 6 4 2 1
BITMAP
98
90
90
FC
ENDCHAR
STARTCHAR 3167
ENCODING 12647
SWIDTH 925 0
DWIDTH 9 0
BBX 7 4 1 1
BITMAP
84
84
8C
F2
ENDCHAR
STARTCHAR 3168
ENCODING 12648
SWIDTH 925 0
DWIDTH 9 0
BBX 6 4 2 1
BITMAP
88
98
98
FC
ENDCHAR
STARTCHAR 3169
ENCODING 12649
SWIDTH 925 0
DWIDTH 9 0
BBX 8 4 1 1
BITMAP
DA
4A
8E
CD
ENDCHAR
STARTCHAR 316A
ENCODING 12650
SWIDTH 925 0
DWIDTH 9 0
BBX 6 4 2 1
BITMAP
D8
50
90
FC
ENDCHAR
STARTCHAR 316B
ENCODING 12651
SWIDTH 925 0
DWIDTH 9 0
BBX 8 4 1 1
BITMAP
EA
7A
AE
FD
ENDCHAR
STARTCHAR 316C
ENCODING 12652
SWIDTH 925 0
DWIDTH 9 0
BBX 6 4 2 1
BITMAP
C8
48
98
DC
ENDCHAR
STARTCHAR 316D
ENCODING 12653
SWIDTH 925 0
DWIDTH 9 0
BBX 7 4 1 1
BITMAP
6C
6C
8A
EE
ENDCHAR
STARTCHAR 316E
ENCODING 12654
SWIDTH 925 0
DWIDTH 9 0
BBX 6 4 2 1
BITMAP
F4
BC
B4
FC
ENDCHAR
STARTCHAR 316F
ENCODING 12655
SWIDTH 925 0
DWIDTH 9 0
BBX 7 4 1 1
BITMAP
E4
A4
AC
F2
ENDCHAR
STARTCHAR 3170
ENCODING 12656
SWIDTH 925 0
DWIDTH 9 0
BBX 6 4 2 1
BITMAP
C8
D8
D8
DC
ENDCHAR
STARTCHAR 3171
ENCODING 12657
SWIDTH 925 0
DWIDTH 9 0
BBX 5 6 2 0
BITMAP
F8
88
F8
00
70
70
ENDCHAR
STARTCHAR 3172
ENCODING 12658
SWIDTH 925 0
DWIDTH 9 0
BBX 6 4 2 1
BITMAP
BC
E4
A4
E4
ENDCHAR
STARTCHAR 3173
ENCODING 12659
SWIDTH 925 0
DWIDTH 9 0
BBX 5 4 2 1
BITMAP
B8
D0
B0
F8
ENDCHAR
STARTCHAR 3174
ENCODING 12660
SWIDTH 925 0
DWIDTH 9 0
BBX 7 4 1 1
BITMAP
AA
CA
BA
F6
ENDCHAR
STARTCHAR 3175
ENCODING 12661
SWIDTH 925 0
DWIDTH 9 0
BBX 7 4 1 1
BITMAP
D6
D4
D4
EE
ENDCHAR
STARTCHAR 3176
ENCODING 12662
SWIDTH 925 0
DWIDTH 9 0
BBX 7 4 1 1
BITMAP
BC
E4
AC
F2
ENDCHAR
STARTCHAR 3177
ENCODING 12663
SWIDTH 925 0
DWIDTH 9 0
BBX 5 4 2 1
BITMAP
B8
D8
B0
F8
ENDCHAR
STARTCHAR 3178
ENCODING 12664
SWIDTH 925 0
DWIDTH 9 0
BBX 5 6 2 0
BITMAP
88
F8
F8
00
70
70
ENDCHAR
STARTCHAR 3179
ENCODING 12665
SWIDTH 925 0
DWIDTH 9 0
BBX 6 6 2 0
BITMAP
B4
FC
B4
48
70
70
ENDCHAR
STARTCHAR 317A
ENCODING 12666
SWIDTH 925 0
DWIDTH 9 0
BBX 6 4 2 1
BITMAP
5C
44
64
94
ENDCHAR
STARTCHAR 317B
ENCODING 12667
SWIDTH 925 0
DWIDTH 9 0
BBX 6 4 2 1
BITMAP
50
50
D0
BC
ENDCHAR
STARTCHAR 317C
ENCODING 12668
SWIDTH 925 0
DWIDTH 9 0
BBX 6 4 2 1
BITMAP
58
50
D0
BC
ENDCHAR
STARTCHAR 317D
ENCODING 12669
SWIDTH 925 0
DWIDTH 9 0
BBX 6 4 2 1
BITMAP
54
5C
D4
BC
ENDCHAR
STARTCHAR 317E
ENCODING 12670
SWIDTH 925 0
DWIDTH 9 0
BBX 7 4 1 1
BITMAP
4E
42
64
AA
ENDCHAR
STARTCHAR 317F
ENCODING 12671
SWIDTH 925 0
DWIDTH 9 0
BBX 4 4 3 1
BITMAP
40
60
A0
F0
ENDCHAR
STARTCHAR 3180
ENCODING 12672
SWIDTH 925 0
DWIDTH 9 0
BBX 7 4 1 1
BITMAP
6E
AA
AA
6E
ENDCHAR
STARTCHAR 3181
ENCODING 12673
SWIDTH 925 0
DWIDTH 9 0
BBX 5 6 2 0
BITMAP
20
70
88
88
48
30
ENDCHAR
STARTCHAR 3182
ENCODING 12674
SWIDTH 925 0
DWIDTH 9 0
BBX 7 4 1 2
BITMAP
64
94
9C
EA
ENDCHAR
STARTCHAR 3183
ENCODING 12675
SWIDTH 925 0
DWIDTH 9 0
BBX 7 4 1 2
BITMAP
64
94
9A
7E
ENDCHAR
STARTCHAR 3184
ENCODING 12676
SWIDTH 925 0
DWIDTH 9 0
BBX 5 6 2 0
BITMAP
78
50
50
A8
70
70
ENDCHAR
STARTCHAR 3185
ENCODING 12677
SWIDTH 925 0
DWIDTH 9 0
BBX 7 5 1 1
BITMAP
66
2A
44
AA
EE
ENDCHAR
STARTCHAR 3186
ENCODING 12678
SWIDTH 925 0
DWIDTH 9 0
BBX 5 6 2 0
BITMAP
F8
20
58
88
48
30
ENDCHAR
STARTCHAR 3187
ENCODING 12679
SWIDTH 925 0
DWIDTH 9 0
BBX 8 8 1 0
BITMAP
02
02
03
52
52
5B
A2
02
ENDCHAR
STARTCHAR 3188
ENCODING 12680
SWIDTH 925 0
DWIDTH 9 0
BBX 8 9 1 -1
BITMAP
05
05
05
07
55
55
7F
85
05
ENDCHAR
STARTCHAR 3189
ENCODING 12681
SWIDTH 925 0
DWIDTH 9 0
BBX 6 8 2 0
BITMAP
04
04
04
54
54
5C
A4
04
ENDCHAR
STARTCHAR 318A
ENCODING 12682
SWIDTH 925 0
DWIDTH 9 0
BBX 7 8 1 0
BITMAP
02
02
02
FE
56
52
56
12
ENDCHAR
STARTCHAR 318B
ENCODING 12683
SWIDTH 925 0
DWIDTH 9 0
BBX 8 9 1 -1
BITMAP
05
05
05
05
FD
5D
55
5D
55
ENDCHAR
STARTCHAR 318C
ENCODING 12684
SWIDTH 925 0
DWIDTH 9 0
BBX 7 8 1 0
BITMAP
02
02
02
36
CA
4A
4A
0A
ENDCHAR
STARTCHAR 318D
ENCODING 12685
SWIDTH 925 0
DWIDTH 9 0
BBX 1 1 4 3
BITMAP
80
ENDCHAR
STARTCHAR 318E
ENCODING 12686
SWIDTH 925 0
DWIDTH 9 0
BBX 3 8 3 0
BITMAP
20
20
20
A0
20
20
20
20
ENDCHAR
STARTCHAR 3200
ENCODING 12800
SWIDTH 925 0
DWIDTH 9 0
BBX 9 10 0 -2
BITMAP
4000
4080
8080
BE80
8280
8280
8280
8280
4080
4000
ENDCHAR
STARTCHAR 3201
ENCODING 12801
SWIDTH 925 0
DWIDTH 9 0
BBX 9 10 0 -2
BITMAP
4000
4080
A080
A080
A080
A080
BE80
8080
4080
4000
ENDCHAR
STARTCHAR 3202
ENCODING 12802
SWIDTH 925 0
DWIDTH 9 0
BBX 9 10 0 -2
BITMAP
4000
4080
8080
BE80
A080
A080
BE80
8080
4080
4000
ENDCHAR
STARTCHAR 3203
ENCODING 12803
SWIDTH 925 0
DWIDTH 9 0
BBX 9 10 0 -2
BITMAP
4000
4080
8080
BE80
8280
BE80
BE80
8080
4000
4000
ENDCHAR
STARTCHAR 3204
ENCODING 12804
SWIDTH 925 0
DWIDTH 9 0
BBX 9 10 0 -2
BITMAP
4000
4080
8080
BE80
A280
A280
BE80
8080
4080
4000
ENDCHAR
STARTCHAR 3205
ENCODING 12805
SWIDTH 925 0
DWIDTH 9 0
BBX 9 10 0 -2
BITMAP
4000
4080
8080
A280
BE80
A280
BE80
8080
4080
4000
ENDCHAR
STARTCHAR 3206
ENCODING 12806
SWIDTH 925 0
DWIDTH 9 0
BBX 9 10 0 -2
BITMAP
4000
4080
8880
8880
8880
9480
A380
8080
4080
4000
ENDCHAR
STARTCHAR 3207
ENCODING 12807
SWIDTH 925 0
DWIDTH 9 0
BBX 9 10 0 -2
BITMAP
4000
4080
9C80
A280
A280
A280
A280
9C80
4080
4000
ENDCHAR
STARTCHAR 3208
ENCODING 12808
SWIDTH 925 0
DWIDTH 9 0
BBX 9 10 0 -2
BITMAP
4000
4080
8080
BE80
8880
8880
9480
A380
4080
4000
ENDCHAR
STARTCHAR 3209
ENCODING 12809
SWIDTH 925 0
DWIDTH 9 0
BBX 9 10 0 -2
BITMAP
4000
4080
9C80
BE80
8880
8880
9480
A380
4080
4000
ENDCHAR
STARTCHAR 320A
ENCODING 12810
SWIDTH 925 0
DWIDTH 9 0
BBX 9 10 0 -2
BITMAP
4000
4080
8080
BE80
8E80
9280
8280
8280
4080
4000
ENDCHAR
STARTCHAR 320B
ENCODING 12811
SWIDTH 925 0
DWIDTH 9 0
BBX 9 10 0 -2
BITMAP
4000
4080
8080
BE80
A080
BE80
BE80
8080
4080
4000
ENDCHAR
STARTCHAR 320C
ENCODING 12812
SWIDTH 925 0
DWIDTH 9 0
BBX 9 10 0 -2
BITMAP
4000
4080
BE80
8080
9280
9480
BF80
8080
4080
4000
ENDCHAR
STARTCHAR 320D
ENCODING 12813
SWIDTH 925 0
DWIDTH 9 0
BBX 9 10 0 -2
BITMAP
4000
4080
9C80
BF80
8080
9C80
A280
9C80
4080
4000
ENDCHAR
STARTCHAR 320E
ENCODING 12814
SWIDTH 925 0
DWIDTH 9 0
BBX 9 10 0 -2
BITMAP
4000
4280
BA80
8A80
8A80
8A80
9280
A280
4280
4000
ENDCHAR
STARTCHAR 320F
ENCODING 12815
SWIDTH 925 0
DWIDTH 9 0
BBX 9 10 0 -2
BITMAP
4000
4280
A280
A280
A380
A280
BE80
8280
4280
4000
ENDCHAR
STARTCHAR 3210
ENCODING 12816
SWIDTH 925 0
DWIDTH 9 0
BBX 9 10 0 -2
BITMAP
4000
4280
BA80
A280
A380
A280
BE80
8280
4280
4000
ENDCHAR
STARTCHAR 3211
ENCODING 12817
SWIDTH 925 0
DWIDTH 9 0
BBX 9 10 0 -2
BITMAP
4000
4280
BA80
8680
8680
BA80
A280
BE80
4280
4000
ENDCHAR
STARTCHAR 3212
ENCODING 12818
SWIDTH 925 0
DWIDTH 9 0
BBX 9 10 0 -2
BITMAP
4000
4280
FA80
CA80
C980
CA80
BA80
8280
4280
4000
ENDCHAR
STARTCHAR 3213
ENCODING 12819
SWIDTH 925 0
DWIDTH 9 0
BBX 9 10 0 -2
BITMAP
4000
4280
AA80
AA80
B980
AA80
BA80
8280
4280
4000
ENDCHAR
STARTCHAR 3214
ENCODING 12820
SWIDTH 925 0
DWIDTH 9 0
BBX 9 10 0 -2
BITMAP
4000
4280
9280
9280
9380
AA80
C680
8280
4280
4000
ENDCHAR
STARTCHAR 3215
ENCODING 12821
SWIDTH 925 0
DWIDTH 9 0
BBX 9 10 0 -2
BITMAP
4000
4280
BA80
CA80
C780
CA80
BA80
8280
4280
4000
ENDCHAR
STARTCHAR 3216
ENCODING 12822
SWIDTH 925 0
DWIDTH 9 0
BBX 9 10 0 -2
BITMAP
4000
4280
9A80
9280
9180
AA80
C680
8280
4280
4000
ENDCHAR
STARTCHAR 3217
ENCODING 12823
SWIDTH 925 0
DWIDTH 9 0
BBX 9 10 0 -2
BITMAP
4000
4280
8280
BE80
9180
9280
AA80
4680
4280
4000
ENDCHAR
STARTCHAR 3218
ENCODING 12824
SWIDTH 925 0
DWIDTH 9 0
BBX 9 10 0 -2
BITMAP
4000
4280
BA80
8680
BA80
8980
9280
A280
4280
4000
ENDCHAR
STARTCHAR 3219
ENCODING 12825
SWIDTH 925 0
DWIDTH 9 0
BBX 9 10 0 -2
BITMAP
4000
4280
BA80
C280
C380
F280
BE80
8280
4280
4000
ENDCHAR
STARTCHAR 321A
ENCODING 12826
SWIDTH 925 0
DWIDTH 9 0
BBX 9 10 0 -2
BITMAP
4000
4280
BE80
8280
A980
AA80
FE80
8280
4280
4000
ENDCHAR
STARTCHAR 321B
ENCODING 12827
SWIDTH 925 0
DWIDTH 9 0
BBX 9 10 0 -2
BITMAP
4000
4280
9A80
A280
8180
BA80
A680
BA80
4280
4000
ENDCHAR
STARTCHAR 321C
ENCODING 12828
SWIDTH 925 0
DWIDTH 9 0
BBX 9 10 0 -2
BITMAP
4000
4080
BE80
8C80
B380
FF80
8880
8880
4880
4000
ENDCHAR
STARTCHAR 3231
ENCODING 12849
SWIDTH 925 0
DWIDTH 9 0
BBX 9 10 0 -2
BITMAP
4000
4080
A480
BA80
BA80
A680
E680
AB80
4080
4000
ENDCHAR
STARTCHAR 3239
ENCODING 12857
SWIDTH 925 0
DWIDTH 9 0
BBX 9 10 0 -2
BITMAP
4000
5080
9A80
AA80
E480
A480
A480
A580
6280
4000
ENDCHAR
STARTCHAR 3251
ENCODING 12881
SWIDTH 925 0
DWIDTH 9 0
BBX 9 8 0 -1
BITMAP
3F00
7880
AA80
8A80
9280
A280
7880
3F00
ENDCHAR
STARTCHAR 3252
ENCODING 12882
SWIDTH 925 0
DWIDTH 9 0
BBX 9 8 0 -1
BITMAP
3F00
7680
8980
8980
9280
A480
7F00
3F00
ENDCHAR
STARTCHAR 3253
ENCODING 12883
SWIDTH 925 0
DWIDTH 9 0
BBX 9 8 0 -1
BITMAP
3F00
7280
8980
8A80
9180
A180
7E80
3F00
ENDCHAR
STARTCHAR 3254
ENCODING 12884
SWIDTH 925 0
DWIDTH 9 0
BBX 9 8 0 -1
BITMAP
3F00
7880
8A80
8D80
9580
A380
7880
3F00
ENDCHAR
STARTCHAR 3255
ENCODING 12885
SWIDTH 925 0
DWIDTH 9 0
BBX 9 8 0 -1
BITMAP
3F00
7700
8C80
8F80
9180
A180
7E80
3F00
ENDCHAR
STARTCHAR 3256
ENCODING 12886
SWIDTH 925 0
DWIDTH 9 0
BBX 9 8 0 -1
BITMAP
3F00
7280
8D80
8F80
9580
A580
7A80
3F00
ENDCHAR
STARTCHAR 3257
ENCODING 12887
SWIDTH 925 0
DWIDTH 9 0
BBX 9 8 0 -1
BITMAP
3F00
7700
8A80
8A80
9280
A480
7880
3F00
ENDCHAR
STARTCHAR 3258
ENCODING 12888
SWIDTH 925 0
DWIDTH 9 0
BBX 9 8 0 -1
BITMAP
3F00
7680
8D80
8E80
9580
A580
7A80
3F00
ENDCHAR
STARTCHAR 3259
ENCODING 12889
SWIDTH 925 0
DWIDTH 9 0
BBX 9 8 0 -1
BITMAP
3F00
7680
8980
8980
9780
A180
7E80
3F00
ENDCHAR
STARTCHAR 325A
ENCODING 12890
SWIDTH 925 0
DWIDTH 9 0
BBX 9 8 0 -1
BITMAP
3F00
7280
8D80
9580
8980
8D80
7280
3F00
ENDCHAR
STARTCHAR 3260
ENCODING 12896
SWIDTH 925 0
DWIDTH 9 0
BBX 9 8 0 -1
BITMAP
3F00
4080
BE80
8280
8280
8280
4080
3F00
ENDCHAR
STARTCHAR 3261
ENCODING 12897
SWIDTH 925 0
DWIDTH 9 0
BBX 9 8 0 -1
BITMAP
3F00
4080
A080
A080
A080
9E80
4080
3F00
ENDCHAR
STARTCHAR 3262
ENCODING 12898
SWIDTH 925 0
DWIDTH 9 0
BBX 9 8 0 -1
BITMAP
3F00
4080
BE80
A080
A080
BE80
4080
3F00
ENDCHAR
STARTCHAR 3263
ENCODING 12899
SWIDTH 925 0
DWIDTH 9 0
BBX 9 8 0 -1
BITMAP
3F00
4080
BE80
BE80
A080
BE80
4080
3F00
ENDCHAR
STARTCHAR 3264
ENCODING 12900
SWIDTH 925 0
DWIDTH 9 0
BBX 9 8 0 -1
BITMAP
3F00
4080
BE80
A280
A280
BE80
4080
3F00
ENDCHAR
STARTCHAR 3265
ENCODING 12901
SWIDTH 925 0
DWIDTH 9 0
BBX 9 8 0 -1
BITMAP
3F00
4080
A280
BE80
A280
BE80
4080
3F00
ENDCHAR
STARTCHAR 3266
ENCODING 12902
SWIDTH 925 0
DWIDTH 9 0
BBX 9 8 0 -1
BITMAP
3F00
4080
8880
8880
9480
A280
4080
3F00
ENDCHAR
STARTCHAR 3267
ENCODING 12903
SWIDTH 925 0
DWIDTH 9 0
BBX 9 8 0 -1
BITMAP
3E00
4180
9C80
A280
A280
9C80
4080
3F00
ENDCHAR
STARTCHAR 3268
ENCODING 12904
SWIDTH 925 0
DWIDTH 9 0
BBX 9 8 0 -1
BITMAP
3F00
4080
BE80
8880
9480
A380
4080
3F00
ENDCHAR
STARTCHAR 3269
ENCODING 12905
SWIDTH 925 0
DWIDTH 9 0
BBX 9 8 0 -1
BITMAP
3F00
5C80
8080
BE80
8C80
B380
4080
3F00
ENDCHAR
STARTCHAR 326A
ENCODING 12906
SWIDTH 925 0
DWIDTH 9 0
BBX 9 8 0 -1
BITMAP
3F00
4080
BE80
8280
BE80
8280
4080
3F00
ENDCHAR
STARTCHAR 326B
ENCODING 12907
SWIDTH 925 0
DWIDTH 9 0
BBX 9 8 0 -1
BITMAP
3F00
4080
BE80
A080
BE80
BE80
4080
3F00
ENDCHAR
STARTCHAR 326C
ENCODING 12908
SWIDTH 925 0
DWIDTH 9 0
BBX 9 8 0 -1
BITMAP
3F00
4080
BE80
9480
9480
BE80
4080
3F00
ENDCHAR
STARTCHAR 326D
ENCODING 12909
SWIDTH 925 0
DWIDTH 9 0
BBX 9 8 0 -1
BITMAP
3F00
5C80
BF80
8080
9E80
9E80
4080
3F00
ENDCHAR
STARTCHAR 326E
ENCODING 12910
SWIDTH 925 0
DWIDTH 9 0
BBX 9 8 0 -1
BITMAP
3F00
4280
9A80
8A80
9280
A280
4280
3F00
ENDCHAR
STARTCHAR 326F
ENCODING 12911
SWIDTH 925 0
DWIDTH 9 0
BBX 9 8 0 -1
BITMAP
3F00
4280
A280
A280
BA80
8280
4280
3F00
ENDCHAR
STARTCHAR 3270
ENCODING 12912
SWIDTH 925 0
DWIDTH 9 0
BBX 9 8 0 -1
BITMAP
3F00
4280
B280
A280
A280
BA80
4280
3F00
ENDCHAR
STARTCHAR 3271
ENCODING 12913
SWIDTH 925 0
DWIDTH 9 0
BBX 9 8 0 -1
BITMAP
3F00
4280
9A80
8A80
B280
BA80
4280
3F00
ENDCHAR
STARTCHAR 3272
ENCODING 12914
SWIDTH 925 0
DWIDTH 9 0
BBX 9 8 0 -1
BITMAP
3F00
4280
BA80
AA80
AA80
AA80
5280
3F00
ENDCHAR
STARTCHAR 3273
ENCODING 12915
SWIDTH 925 0
DWIDTH 9 0
BBX 9 8 0 -1
BITMAP
3F00
4280
AA80
BA80
AA80
AA80
5280
3F00
ENDCHAR
STARTCHAR 3274
ENCODING 12916
SWIDTH 925 0
DWIDTH 9 0
BBX 9 8 0 -1
BITMAP
3F00
4280
9280
9280
9A80
A280
4280
3F00
ENDCHAR
STARTCHAR 3275
ENCODING 12917
SWIDTH 925 0
DWIDTH 9 0
BBX 9 8 0 -1
BITMAP
3F00
4280
BA80
AA80
AA80
BA80
4280
3F00
ENDCHAR
STARTCHAR 3276
ENCODING 12918
SWIDTH 925 0
DWIDTH 9 0
BBX 9 8 0 -1
BITMAP
3F00
4280
9A80
9280
9A80
A680
4280
3F00
ENDCHAR
STARTCHAR 3277
ENCODING 12919
SWIDTH 925 0
DWIDTH 9 0
BBX 9 8 0 -1
BITMAP
3F00
4280
9A80
9280
9A80
A680
4280
3F00
ENDCHAR
STARTCHAR 3278
ENCODING 12920
SWIDTH 925 0
DWIDTH 9 0
BBX 9 8 0 -1
BITMAP
3F00
4280
9E80
9A80
9280
A280
4280
3F00
ENDCHAR
STARTCHAR 3279
ENCODING 12921
SWIDTH 925 0
DWIDTH 9 0
BBX 9 8 0 -1
BITMAP
3F00
4280
B280
A280
B280
BA80
4280
3F00
ENDCHAR
STARTCHAR 327A
ENCODING 12922
SWIDTH 925 0
DWIDTH 9 0
BBX 9 8 0 -1
BITMAP
3F00
4280
9A80
AA80
AA80
BE80
4280
3F00
ENDCHAR
STARTCHAR 327B
ENCODING 12923
SWIDTH 925 0
DWIDTH 9 0
BBX 9 8 0 -1
BITMAP
3F00
4280
8280
9A80
BA80
BA80
4280
3F00
ENDCHAR
STARTCHAR 327F
ENCODING 12927
SWIDTH 925 0
DWIDTH 9 0
BBX 9 8 0 -1
BITMAP
1E00
2100
5480
9800
DB80
5480
6100
1E00
ENDCHAR
STARTCHAR 328A
ENCODING 12938
SWIDTH 925 0
DWIDTH 9 0
BBX 9 8 0 -1
BITMAP
3E00
5F00
9A80
9280
9E80
9280
6300
3E00
ENDCHAR
STARTCHAR 328B
ENCODING 12939
SWIDTH 925 0
DWIDTH 9 0
BBX 9 8 0 -1
BITMAP
3E00
4900
A980
AA80
8880
9480
6300
3E00
ENDCHAR
STARTCHAR 328C
ENCODING 12940
SWIDTH 925 0
DWIDTH 9 0
BBX 9 8 0 -1
BITMAP
3E00
4100
BA80
9480
9C80
AA80
4900
3E00
ENDCHAR
STARTCHAR 328D
ENCODING 12941
SWIDTH 925 0
DWIDTH 9 0
BBX 9 8 0 -1
BITMAP
3E00
4900
BF80
8880
9C80
AA80
4900
3E00
ENDCHAR
STARTCHAR 328E
ENCODING 12942
SWIDTH 925 0
DWIDTH 9 0
BBX 9 8 0 -1
BITMAP
3E00
4900
9680
A980
9E80
9A80
7F00
3E00
ENDCHAR
STARTCHAR 328F
ENCODING 12943
SWIDTH 925 0
DWIDTH 9 0
BBX 9 8 0 -1
BITMAP
3E00
4900
8880
9C80
8880
8880
7F00
3E00
ENDCHAR
STARTCHAR 3290
ENCODING 12944
SWIDTH 925 0
DWIDTH 9 0
BBX 9 8 0 -1
BITMAP
3E00
5F00
A280
9E80
A280
A280
5F00
3E00
ENDCHAR
STARTCHAR 3294
ENCODING 12948
SWIDTH 925 0
DWIDTH 9 0
BBX 9 8 0 -1
BITMAP
3F00
5C80
B480
9880
FE80
9280
5E80
3F00
ENDCHAR
STARTCHAR 329E
ENCODING 12958
SWIDTH 925 0
DWIDTH 9 0
BBX 9 8 0 -1
BITMAP
3F00
5E80
A580
B580
A580
B480
4080
3F00
ENDCHAR
STARTCHAR 32A5
ENCODING 12965
SWIDTH 925 0
DWIDTH 9 0
BBX 9 8 0 -1
BITMAP
3F00
4880
BE80
AA80
BE80
8880
4880
3F00
ENDCHAR
STARTCHAR 3380
ENCODING 13184
SWIDTH 925 0
DWIDTH 9 0
BBX 8 8 1 -2
BITMAP
04
04
6A
AA
9E
92
B1
C0
ENDCHAR
STARTCHAR 3381
ENCODING 13185
SWIDTH 925 0
DWIDTH 9 0
BBX 8 7 1 0
BITMAP
04
04
CA
AA
AE
B1
B1
ENDCHAR
STARTCHAR 3382
ENCODING 13186
SWIDTH 925 0
DWIDTH 9 0
BBX 9 8 0 -2
BITMAP
0200
0200
2D00
2D00
5700
5480
5880
A000
ENDCHAR
STARTCHAR 3383
ENCODING 13187
SWIDTH 925 0
DWIDTH 9 0
BBX 9 7 0 0
BITMAP
0200
0200
D300
B500
B700
B480
A880
ENDCHAR
STARTCHAR 3384
ENCODING 13188
SWIDTH 925 0
DWIDTH 9 0
BBX 8 7 1 0
BITMAP
04
84
AA
CA
CE
D1
B1
ENDCHAR
STARTCHAR 3388
ENCODING 13192
SWIDTH 925 0
DWIDTH 9 0
BBX 8 8 1 -1
BITMAP
01
01
4D
B3
8D
93
B5
48
ENDCHAR
STARTCHAR 3389
ENCODING 13193
SWIDTH 925 0
DWIDTH 9 0
BBX 8 8 1 -1
BITMAP
01
81
D5
A3
A7
AB
6B
14
ENDCHAR
STARTCHAR 338A
ENCODING 13194
SWIDTH 925 0
DWIDTH 9 0
BBX 8 8 1 -2
BITMAP
0F
08
68
9E
98
98
A8
C0
ENDCHAR
STARTCHAR 338B
ENCODING 13195
SWIDTH 925 0
DWIDTH 9 0
BBX 8 7 1 0
BITMAP
0F
08
68
9E
98
98
98
ENDCHAR
STARTCHAR 338C
ENCODING 13196
SWIDTH 925 0
DWIDTH 9 0
BBX 8 8 1 -2
BITMAP
0F
08
58
5F
68
A8
A8
C0
ENDCHAR
STARTCHAR 338D
ENCODING 13197
SWIDTH 925 0
DWIDTH 9 0
BBX 8 7 1 -2
BITMAP
17
59
59
A9
AF
C9
06
ENDCHAR
STARTCHAR 338E
ENCODING 13198
SWIDTH 925 0
DWIDTH 9 0
BBX 8 7 1 -2
BITMAP
E7
D9
D9
D9
5F
09
06
ENDCHAR
STARTCHAR 338F
ENCODING 13199
SWIDTH 925 0
DWIDTH 9 0
BBX 7 8 1 -1
BITMAP
80
A6
CA
CA
AA
AE
02
0E
ENDCHAR
STARTCHAR 3390
ENCODING 13200
SWIDTH 925 0
DWIDTH 9 0
BBX 8 7 1 0
BITMAP
10
90
9F
F2
92
94
9E
ENDCHAR
STARTCHAR 3391
ENCODING 13201
SWIDTH 925 0
DWIDTH 9 0
BBX 9 7 0 0
BITMAP
9000
9400
B380
DC80
D500
B500
B100
ENDCHAR
STARTCHAR 3392
ENCODING 13202
SWIDTH 925 0
DWIDTH 9 0
BBX 9 7 0 0
BITMAP
9000
9200
9380
FC80
F300
B300
B100
ENDCHAR
STARTCHAR 3393
ENCODING 13203
SWIDTH 925 0
DWIDTH 9 0
BBX 9 8 0 -1
BITMAP
6000
5200
8B80
8C80
B300
9300
5000
2100
ENDCHAR
STARTCHAR 3394
ENCODING 13204
SWIDTH 925 0
DWIDTH 9 0
BBX 9 7 0 0
BITMAP
E000
5200
5380
4C80
5300
5300
4100
ENDCHAR
STARTCHAR 3395
ENCODING 13205
SWIDTH 925 0
DWIDTH 9 0
BBX 8 8 1 -2
BITMAP
02
05
0D
55
56
94
AC
D2
ENDCHAR
STARTCHAR 3396
ENCODING 13206
SWIDTH 925 0
DWIDTH 9 0
BBX 8 7 1 0
BITMAP
02
05
F5
D5
D6
D4
CE
ENDCHAR
STARTCHAR 3397
ENCODING 13207
SWIDTH 925 0
DWIDTH 9 0
BBX 8 8 1 -1
BITMAP
12
15
75
96
96
94
9C
62
ENDCHAR
STARTCHAR 3398
ENCODING 13208
SWIDTH 925 0
DWIDTH 9 0
BBX 7 7 1 0
BITMAP
82
86
96
A6
CA
A4
9E
ENDCHAR
STARTCHAR 3399
ENCODING 13209
SWIDTH 925 0
DWIDTH 9 0
BBX 7 7 1 0
BITMAP
40
40
DA
56
56
56
56
ENDCHAR
STARTCHAR 339A
ENCODING 13210
SWIDTH 925 0
DWIDTH 9 0
BBX 8 5 1 0
BITMAP
5E
B5
B5
B5
B5
ENDCHAR
STARTCHAR 339B
ENCODING 13211
SWIDTH 925 0
DWIDTH 9 0
BBX 8 6 1 -2
BITMAP
5F
5B
6D
AD
A9
C0
ENDCHAR
STARTCHAR 339C
ENCODING 13212
SWIDTH 925 0
DWIDTH 9 0
BBX 8 5 1 0
BITMAP
E7
DD
D5
D5
41
ENDCHAR
STARTCHAR 339D
ENCODING 13213
SWIDTH 925 0
DWIDTH 9 0
BBX 8 6 1 -1
BITMAP
6F
8D
8D
8D
AD
40
ENDCHAR
STARTCHAR 339E
ENCODING 13214
SWIDTH 925 0
DWIDTH 9 0
BBX 8 6 1 1
BITMAP
80
AE
CD
CD
CD
AD
ENDCHAR
STARTCHAR 339F
ENCODING 13215
SWIDTH 925 0
DWIDTH 9 0
BBX 8 7 1 0
BITMAP
01
03
E7
DD
D5
D5
41
ENDCHAR
STARTCHAR 33A0
ENCODING 13216
SWIDTH 925 0
DWIDTH 9 0
BBX 8 8 1 -1
BITMAP
01
03
6F
8D
8D
8D
AD
40
ENDCHAR
STARTCHAR 33A1
ENCODING 13217
SWIDTH 925 0
DWIDTH 9 0
BBX 7 6 1 1
BITMAP
02
EC
92
92
92
92
ENDCHAR
STARTCHAR 33A2
ENCODING 13218
SWIDTH 925 0
DWIDTH 9 0
BBX 8 7 1 0
BITMAP
01
83
AE
CD
CD
CD
AD
ENDCHAR
STARTCHAR 33A3
ENCODING 13219
SWIDTH 925 0
DWIDTH 9 0
BBX 8 7 1 0
BITMAP
01
01
EF
D5
D5
D5
CD
ENDCHAR
STARTCHAR 33A4
ENCODING 13220
SWIDTH 925 0
DWIDTH 9 0
BBX 8 8 1 -1
BITMAP
01
03
6F
8D
8D
8D
AD
40
ENDCHAR
STARTCHAR 33A5
ENCODING 13221
SWIDTH 925 0
DWIDTH 9 0
BBX 7 7 1 0
BITMAP
02
02
EC
92
92
92
92
ENDCHAR
STARTCHAR 33A6
ENCODING 13222
SWIDTH 925 0
DWIDTH 9 0
BBX 8 7 1 0
BITMAP
01
83
AE
CD
D5
D5
B5
ENDCHAR
STARTCHAR 33A7
ENCODING 13223
SWIDTH 925 0
DWIDTH 9 0
BBX 8 8 1 -1
BITMAP
E2
D4
D4
5A
0D
16
21
26
ENDCHAR
STARTCHAR 33A8
ENCODING 13224
SWIDTH 925 0
DWIDTH 9 0
BBX 8 8 1 -1
BITMAP
A4
E5
E9
4C
18
16
21
06
ENDCHAR
STARTCHAR 33A9
ENCODING 13225
SWIDTH 925 0
DWIDTH 9 0
BBX 7 8 1 -1
BITMAP
E0
90
9C
B2
CE
92
92
0C
ENDCHAR
STARTCHAR 33AA
ENCODING 13226
SWIDTH 925 0
DWIDTH 9 0
BBX 8 8 1 -1
BITMAP
18
A8
EA
AD
B3
E5
45
02
ENDCHAR
STARTCHAR 33AB
ENCODING 13227
SWIDTH 925 0
DWIDTH 9 0
BBX 9 8 0 -1
BITMAP
9C00
9200
9300
F680
F980
B280
B280
0100
ENDCHAR
STARTCHAR 33AC
ENCODING 13228
SWIDTH 925 0
DWIDTH 9 0
BBX 9 8 0 -1
BITMAP
6C00
5200
8B00
8E80
B180
9280
5280
2100
ENDCHAR
STARTCHAR 33AD
ENCODING 13229
SWIDTH 925 0
DWIDTH 9 0
BBX 8 8 1 -1
BITMAP
01
01
37
D5
B9
D9
55
22
ENDCHAR
STARTCHAR 33AE
ENCODING 13230
SWIDTH 925 0
DWIDTH 9 0
BBX 8 8 1 -1
BITMAP
09
DA
EC
FE
05
0A
15
02
ENDCHAR
STARTCHAR 33AF
ENCODING 13231
SWIDTH 925 0
DWIDTH 9 0
BBX 9 8 0 -1
BITMAP
0100
E900
B680
FD80
0600
0500
0A80
0100
ENDCHAR
STARTCHAR 33B0
ENCODING 13232
SWIDTH 925 0
DWIDTH 9 0
BBX 8 6 1 -2
BITMAP
66
98
96
91
99
E6
ENDCHAR
STARTCHAR 33B1
ENCODING 13233
SWIDTH 925 0
DWIDTH 9 0
BBX 7 6 1 -1
BITMAP
EE
98
9C
92
9A
04
ENDCHAR
STARTCHAR 33B2
ENCODING 13234
SWIDTH 925 0
DWIDTH 9 0
BBX 8 6 1 -2
BITMAP
16
59
56
A1
A9
D6
ENDCHAR
STARTCHAR 33B3
ENCODING 13235
SWIDTH 925 0
DWIDTH 9 0
BBX 8 6 1 -1
BITMAP
F6
D9
D6
D1
D9
06
ENDCHAR
STARTCHAR 33B4
ENCODING 13236
SWIDTH 925 0
DWIDTH 9 0
BBX 8 8 1 -2
BITMAP
11
12
6A
9A
9A
9C
94
E0
ENDCHAR
STARTCHAR 33B5
ENCODING 13237
SWIDTH 925 0
DWIDTH 9 0
BBX 7 7 1 0
BITMAP
10
12
72
9A
9A
9C
94
ENDCHAR
STARTCHAR 33B6
ENCODING 13238
SWIDTH 925 0
DWIDTH 9 0
BBX 8 8 1 -2
BITMAP
11
11
0A
5A
5A
A4
A4
D0
ENDCHAR
STARTCHAR 33B7
ENCODING 13239
SWIDTH 925 0
DWIDTH 9 0
BBX 8 7 1 0
BITMAP
01
09
FA
DA
DA
D4
D4
ENDCHAR
STARTCHAR 33B8
ENCODING 13240
SWIDTH 925 0
DWIDTH 9 0
BBX 7 7 1 0
BITMAP
10
92
B2
CA
CA
AC
A4
ENDCHAR
STARTCHAR 33B9
ENCODING 13241
SWIDTH 925 0
DWIDTH 9 0
BBX 9 7 0 0
BITMAP
8C80
CC80
DC80
DD00
DB00
AB00
AA00
ENDCHAR
STARTCHAR 33BA
ENCODING 13242
SWIDTH 925 0
DWIDTH 9 0
BBX 9 9 0 -2
BITMAP
0A80
0A80
EA80
9D00
9D00
9500
D500
A000
8000
ENDCHAR
STARTCHAR 33BB
ENCODING 13243
SWIDTH 925 0
DWIDTH 9 0
BBX 8 7 1 0
BITMAP
05
15
DD
BD
BA
AA
AA
ENDCHAR
STARTCHAR 33BC
ENCODING 13244
SWIDTH 925 0
DWIDTH 9 0
BBX 9 8 0 -2
BITMAP
0A80
0A80
2A80
2A80
5500
5500
5500
A000
ENDCHAR
STARTCHAR 33BD
ENCODING 13245
SWIDTH 925 0
DWIDTH 9 0
BBX 8 7 1 0
BITMAP
15
15
B5
DA
DA
DA
4A
ENDCHAR
STARTCHAR 33BE
ENCODING 13246
SWIDTH 925 0
DWIDTH 9 0
BBX 8 7 1 0
BITMAP
15
95
B5
DD
DA
CA
AA
ENDCHAR
STARTCHAR 33BF
ENCODING 13247
SWIDTH 925 0
DWIDTH 9 0
BBX 8 7 1 0
BITMAP
05
B5
AB
AA
AA
DA
4A
ENDCHAR
STARTCHAR 33C0
ENCODING 13248
SWIDTH 925 0
DWIDTH 9 0
BBX 8 7 1 0
BITMAP
0E
91
B1
D1
D1
CA
3B
ENDCHAR
STARTCHAR 33C1
ENCODING 13249
SWIDTH 925 0
DWIDTH 9 0
BBX 8 7 1 0
BITMAP
2E
B1
B1
B1
E9
E6
47
ENDCHAR
STARTCHAR 33C2
ENCODING 13250
SWIDTH 925 0
DWIDTH 9 0
BBX 8 6 0 -1
BITMAP
67
2B
6B
AB
A0
40
ENDCHAR
STARTCHAR 33C3
ENCODING 13251
SWIDTH 925 0
DWIDTH 9 0
BBX 8 9 1 -2
BITMAP
E0
A0
A7
E9
91
91
AB
45
01
ENDCHAR
STARTCHAR 33C4
ENCODING 13252
SWIDTH 925 0
DWIDTH 9 0
BBX 8 6 1 -1
BITMAP
66
89
88
88
99
66
ENDCHAR
STARTCHAR 33C5
ENCODING 13253
SWIDTH 925 0
DWIDTH 9 0
BBX 8 8 1 -1
BITMAP
01
01
67
89
91
89
AB
44
ENDCHAR
STARTCHAR 33C6
ENCODING 13254
SWIDTH 925 0
DWIDTH 9 0
BBX 8 8 1 -1
BITMAP
D0
90
A0
F0
32
55
5D
43
ENDCHAR
STARTCHAR 33C7
ENCODING 13255
SWIDTH 925 0
DWIDTH 9 0
BBX 8 8 1 -1
BITMAP
60
90
84
8A
8A
8A
AB
44
ENDCHAR
STARTCHAR 33C8
ENCODING 13256
SWIDTH 925 0
DWIDTH 9 0
BBX 8 8 1 -1
BITMAP
0E
19
69
9E
99
99
AB
44
ENDCHAR
STARTCHAR 33C9
ENCODING 13257
SWIDTH 925 0
DWIDTH 9 0
BBX 8 9 1 -2
BITMAP
60
90
89
89
B6
96
92
64
04
ENDCHAR
STARTCHAR 33CA
ENCODING 13258
SWIDTH 925 0
DWIDTH 9 0
BBX 7 7 1 0
BITMAP
80
EE
A2
96
9A
92
0C
ENDCHAR
STARTCHAR 33CB
ENCODING 13259
SWIDTH 925 0
DWIDTH 9 0
BBX 7 7 1 0
BITMAP
9C
92
92
F2
9C
90
90
ENDCHAR
STARTCHAR 33CF
ENCODING 13263
SWIDTH 925 0
DWIDTH 9 0
BBX 7 7 1 0
BITMAP
80
84
9E
A4
E4
A4
94
ENDCHAR
STARTCHAR 33D0
ENCODING 13264
SWIDTH 925 0
DWIDTH 9 0
BBX 7 7 1 0
BITMAP
80
80
96
AA
AA
AA
AA
ENDCHAR
STARTCHAR 33D3
ENCODING 13267
SWIDTH 925 0
DWIDTH 9 0
BBX 5 6 2 1
BITMAP
80
C0
A8
90
A8
A8
ENDCHAR
STARTCHAR 33D6
ENCODING 13270
SWIDTH 925 0
DWIDTH 9 0
BBX 8 8 1 -1
BITMAP
01
01
E5
DB
D1
D1
5B
04
ENDCHAR
STARTCHAR 33D8
ENCODING 13272
SWIDTH 925 0
DWIDTH 9 0
BBX 8 7 0 -2
BITMAP
E7
AB
AB
AB
A0
C0
80
ENDCHAR
STARTCHAR 33DB
ENCODING 13275
SWIDTH 925 0
DWIDTH 9 0
BBX 6 6 2 -1
BITMAP
C4
B8
D0
30
B0
40
ENDCHAR
STARTCHAR 33DC
ENCODING 13276
SWIDTH 925 0
DWIDTH 9 0
BBX 8 8 1 -1
BITMAP
60
90
89
E9
16
16
94
60
ENDCHAR
STARTCHAR 33DD
ENCODING 13277
SWIDTH 925 0
DWIDTH 9 0
BBX 9 8 0 -1
BITMAP
AC00
AC00
AF00
5C80
5480
5480
5480
0300
ENDCHAR
STARTCHAR 4E00
ENCODING 19968
SWIDTH 925 0
DWIDTH 9 0
BBX 8 1 1 3
BITMAP
FF
ENDCHAR
STARTCHAR 4E01
ENCODING 19969
SWIDTH 925 0
DWIDTH 9 0
BBX 7 8 1 -1
BITMAP
FE
10
10
10
10
10
10
30
ENDCHAR
STARTCHAR 4E03
ENCODING 19971
SWIDTH 925 0
DWIDTH 9 0
BBX 7 8 1 -1
BITMAP
20
20
26
F8
20
20
22
3E
ENDCHAR
STARTCHAR 4E07
ENCODING 19975
SWIDTH 925 0
DWIDTH 9 0
BBX 8 8 1 -1
BITMAP
FF
20
20
3E
22
42
C2
8C
ENDCHAR
STARTCHAR 4E08
ENCODING 19976
SWIDTH 925 0
DWIDTH 9 0
BBX 8 9 1 -1
BITMAP
08
08
FE
08
68
B0
10
6C
83
ENDCHAR
STARTCHAR 4E09
ENCODING 19977
SWIDTH 925 0
DWIDTH 9 0
BBX 8 7 1 0
BITMAP
FE
00
00
7C
00
00
FF
ENDCHAR
STARTCHAR 4E0A
ENCODING 19978
SWIDTH 925 0
DWIDTH 9 0
BBX 8 9 1 -1
BITMAP
10
10
10
1E
10
10
10
10
FF
ENDCHAR
STARTCHAR 4E0B
ENCODING 19979
SWIDTH 925 0
DWIDTH 9 0
BBX 8 8 1 -1
BITMAP
FF
10
10
1C
14
10
10
10
ENDCHAR
STARTCHAR 4E0D
ENCODING 19981
SWIDTH 925 0
DWIDTH 9 0
BBX 8 8 1 -1
BITMAP
FE
08
1C
32
51
90
10
10
ENDCHAR
STARTCHAR 4E11
ENCODING 19985
SWIDTH 925 0
DWIDTH 9 0
BBX 8 8 1 -1
BITMAP
7C
24
24
24
FF
24
44
FF
ENDCHAR
STARTCHAR 4E14
ENCODING 19988
SWIDTH 925 0
DWIDTH 9 0
BBX 8 8 1 -1
BITMAP
7C
44
7C
44
44
7C
44
FF
ENDCHAR
STARTCHAR 4E15
ENCODING 19989
SWIDTH 925 0
DWIDTH 9 0
BBX 8 8 1 -1
BITMAP
FE
08
18
36
51
90
10
FF
ENDCHAR
STARTCHAR 4E16
ENCODING 19990
SWIDTH 925 0
DWIDTH 9 0
BBX 8 9 1 -1
BITMAP
54
54
FF
54
54
54
5C
7E
40
ENDCHAR
STARTCHAR 4E18
ENCODING 19992
SWIDTH 925 0
DWIDTH 9 0
BBX 8 9 1 -1
BITMAP
06
78
40
40
7E
48
48
48
FF
ENDCHAR
STARTCHAR 4E19
ENCODING 19993
SWIDTH 925 0
DWIDTH 9 0
BBX 8 8 1 -1
BITMAP
FF
10
FE
92
AA
C6
82
86
ENDCHAR
STARTCHAR 4E1E
ENCODING 19998
SWIDTH 925 0
DWIDTH 9 0
BBX 8 8 1 -1
BITMAP
7C
08
FA
34
52
92
30
FF
ENDCHAR
STARTCHAR 4E2D
ENCODING 20013
SWIDTH 925 0
DWIDTH 9 0
BBX 7 9 1 -1
BITMAP
10
10
FE
92
92
FE
10
10
10
ENDCHAR
STARTCHAR 4E32
ENCODING 20018
SWIDTH 925 0
DWIDTH 9 0
BBX 7 9 1 -1
BITMAP
10
7E
92
7E
FE
92
FE
90
10
ENDCHAR
STARTCHAR 4E38
ENCODING 20024
SWIDTH 925 0
DWIDTH 9 0
BBX 8 9 1 -1
BITMAP
20
20
FC
24
64
74
34
45
87
ENDCHAR
STARTCHAR 4E39
ENCODING 20025
SWIDTH 925 0
DWIDTH 9 0
BBX 8 8 1 -1
BITMAP
7C
54
54
FF
44
44
84
8C
ENDCHAR
STARTCHAR 4E3B
ENCODING 20027
SWIDTH 925 0
DWIDTH 9 0
BBX 8 9 1 -1
BITMAP
10
10
FE
10
10
FE
10
10
FF
ENDCHAR
STARTCHAR 4E42
ENCODING 20034
SWIDTH 925 0
DWIDTH 9 0
BBX 8 9 1 -1
BITMAP
42
44
C4
A8
18
18
2C
46
81
ENDCHAR
STARTCHAR 4E43
ENCODING 20035
SWIDTH 925 0
DWIDTH 9 0
BBX 7 8 1 -1
BITMAP
F8
28
28
2E
4A
42
82
8E
ENDCHAR
STARTCHAR 4E45
ENCODING 20037
SWIDTH 925 0
DWIDTH 9 0
BBX 8 9 1 -1
BITMAP
20
3C
44
88
88
18
3C
C6
81
ENDCHAR
STARTCHAR 4E4B
ENCODING 20043
SWIDTH 925 0
DWIDTH 9 0
BBX 8 9 1 -1
BITMAP
10
10
FE
04
08
B0
C0
C0
BF
ENDCHAR
STARTCHAR 4E4D
ENCODING 20045
SWIDTH 925 0
DWIDTH 9 0
BBX 8 9 1 -1
BITMAP
20
7F
50
90
9E
1E
10
10
10
ENDCHAR
STARTCHAR 4E4E
ENCODING 20046
SWIDTH 925 0
DWIDTH 9 0
BBX 8 9 1 -1
BITMAP
06
FA
54
54
10
FF
10
10
30
ENDCHAR
STARTCHAR 4E4F
ENCODING 20047
SWIDTH 925 0
DWIDTH 9 0
BBX 8 9 1 -1
BITMAP
06
F8
10
FE
04
18
E0
C0
BF
ENDCHAR
STARTCHAR 4E56
ENCODING 20054
SWIDTH 925 0
DWIDTH 9 0
BBX 8 9 1 -1
BITMAP
06
F8
FF
34
D6
36
D7
30
10
ENDCHAR
STARTCHAR 4E58
ENCODING 20056
SWIDTH 925 0
DWIDTH 9 0
BBX 8 9 1 -1
BITMAP
06
F8
FF
F6
77
BE
54
93
10
ENDCHAR
STARTCHAR 4E59
ENCODING 20057
SWIDTH 925 0
DWIDTH 9 0
BBX 8 8 1 -1
BITMAP
FC
08
10
20
20
40
81
FE
ENDCHAR
STARTCHAR 4E5D
ENCODING 20061
SWIDTH 925 0
DWIDTH 9 0
BBX 8 9 1 -1
BITMAP
20
20
FC
24
24
24
45
C5
87
ENDCHAR
STARTCHAR 4E5E
ENCODING 20062
SWIDTH 925 0
DWIDTH 9 0
BBX 8 9 1 -1
BITMAP
20
40
FF
80
78
10
21
41
7E
ENDCHAR
STARTCHAR 4E5F
ENCODING 20063
SWIDTH 925 0
DWIDTH 9 0
BBX 8 9 1 -1
BITMAP
10
50
5E
F2
52
52
56
41
7E
ENDCHAR
STARTCHAR 4E6B
ENCODING 20075
SWIDTH 925 0
DWIDTH 9 0
BBX 8 9 1 -1
BITMAP
40
FE
59
9E
A9
FC
30
41
7E
ENDCHAR
STARTCHAR 4E6D
ENCODING 20077
SWIDTH 925 0
DWIDTH 9 0
BBX 8 8 1 -1
BITMAP
FE
7E
C2
3E
F8
10
61
7F
ENDCHAR
STARTCHAR 4E73
ENCODING 20083
SWIDTH 925 0
DWIDTH 9 0
BBX 8 9 1 -1
BITMAP
18
F8
D8
F8
28
58
E8
49
47
ENDCHAR
STARTCHAR 4E76
ENCODING 20086
SWIDTH 925 0
DWIDTH 9 0
BBX 8 9 1 -1
BITMAP
14
FF
FE
FE
FE
00
F8
21
7E
ENDCHAR
STARTCHAR 4E77
ENCODING 20087
SWIDTH 925 0
DWIDTH 9 0
BBX 8 9 1 -1
BITMAP
48
1A
AB
4C
B0
FC
30
41
7E
ENDCHAR
STARTCHAR 4E7E
ENCODING 20094
SWIDTH 925 0
DWIDTH 9 0
BBX 8 9 1 -1
BITMAP
48
FE
E8
BC
E2
A4
48
F1
4F
ENDCHAR
STARTCHAR 4E82
ENCODING 20098
SWIDTH 925 0
DWIDTH 9 0
BBX 8 9 1 -1
BITMAP
F4
AC
F4
64
FC
FC
FC
AD
DF
ENDCHAR
STARTCHAR 4E86
ENCODING 20102
SWIDTH 925 0
DWIDTH 9 0
BBX 7 8 1 -1
BITMAP
FE
04
18
10
10
10
10
30
ENDCHAR
STARTCHAR 4E88
ENCODING 20104
SWIDTH 925 0
DWIDTH 9 0
BBX 8 8 1 -1
BITMAP
7C
04
18
FF
12
14
10
30
ENDCHAR
STARTCHAR 4E8B
ENCODING 20107
SWIDTH 925 0
DWIDTH 9 0
BBX 8 9 1 -1
BITMAP
10
FF
7E
7E
FE
F3
1E
FE
30
ENDCHAR
STARTCHAR 4E8C
ENCODING 20108
SWIDTH 925 0
DWIDTH 9 0
BBX 8 6 1 0
BITMAP
7E
00
00
00
00
FF
ENDCHAR
STARTCHAR 4E8E
ENCODING 20110
SWIDTH 925 0
DWIDTH 9 0
BBX 8 8 1 -1
BITMAP
FE
10
10
FF
10
10
10
30
ENDCHAR
STARTCHAR 4E90
ENCODING 20112
SWIDTH 925 0
DWIDTH 9 0
BBX 8 8 1 -1
BITMAP
FE
20
FF
20
3E
42
02
0C
ENDCHAR
STARTCHAR 4E91
ENCODING 20113
SWIDTH 925 0
DWIDTH 9 0
BBX 8 8 1 -1
BITMAP
7E
00
00
FF
24
22
5E
A1
ENDCHAR
STARTCHAR 4E92
ENCODING 20114
SWIDTH 925 0
DWIDTH 9 0
BBX 8 8 1 -1
BITMAP
FE
20
3C
44
44
7C
44
FF
ENDCHAR
STARTCHAR 4E94
ENCODING 20116
SWIDTH 925 0
DWIDTH 9 0
BBX 8 8 1 -1
BITMAP
FE
10
10
7C
24
24
24
FF
ENDCHAR
STARTCHAR 4E95
ENCODING 20117
SWIDTH 925 0
DWIDTH 9 0
BBX 8 9 1 -1
BITMAP
24
24
FE
24
24
FF
44
44
84
ENDCHAR
STARTCHAR 4E98
ENCODING 20120
SWIDTH 925 0
DWIDTH 9 0
BBX 8 8 1 -1
BITMAP
FE
00
7C
42
7C
7C
00
FF
ENDCHAR
STARTCHAR 4E9B
ENCODING 20123
SWIDTH 925 0
DWIDTH 9 0
BBX 8 9 1 -1
BITMAP
28
AA
BC
A9
BF
C0
7E
00
FF
ENDCHAR
STARTCHAR 4E9E
ENCODING 20126
SWIDTH 925 0
DWIDTH 9 0
BBX 8 8 1 -1
BITMAP
FF
28
EE
82
EE
28
28
FF
ENDCHAR
STARTCHAR 4EA1
ENCODING 20129
SWIDTH 925 0
DWIDTH 9 0
BBX 8 9 1 -1
BITMAP
10
10
FF
40
40
40
40
40
7E
ENDCHAR
STARTCHAR 4EA2
ENCODING 20130
SWIDTH 925 0
DWIDTH 9 0
BBX 8 9 1 -1
BITMAP
10
FE
00
38
28
48
48
C9
87
ENDCHAR
STARTCHAR 4EA4
ENCODING 20132
SWIDTH 925 0
DWIDTH 9 0
BBX 7 9 1 -1
BITMAP
10
FE
64
82
24
28
10
6C
82
ENDCHAR
STARTCHAR 4EA5
ENCODING 20133
SWIDTH 925 0
DWIDTH 9 0
BBX 8 9 1 -1
BITMAP
10
FF
10
68
32
24
D8
66
C2
ENDCHAR
STARTCHAR 4EA6
ENCODING 20134
SWIDTH 925 0
DWIDTH 9 0
BBX 8 9 1 -1
BITMAP
10
10
FF
6C
AA
AA
A9
48
98
ENDCHAR
STARTCHAR 4EA8
ENCODING 20136
SWIDTH 925 0
DWIDTH 9 0
BBX 8 9 1 -1
BITMAP
FF
00
7C
7C
00
FE
18
10
30
ENDCHAR
STARTCHAR 4EAB
ENCODING 20139
SWIDTH 925 0
DWIDTH 9 0
BBX 8 9 1 -1
BITMAP
FF
00
7C
7C
00
FC
FF
10
30
ENDCHAR
STARTCHAR 4EAC
ENCODING 20140
SWIDTH 925 0
DWIDTH 9 0
BBX 8 9 1 -1
BITMAP
10
FF
00
7E
42
7E
54
D2
B1
ENDCHAR
STARTCHAR 4EAD
ENCODING 20141
SWIDTH 925 0
DWIDTH 9 0
BBX 8 9 1 -1
BITMAP
FF
00
7C
7C
00
FE
7D
10
30
ENDCHAR
STARTCHAR 4EAE
ENCODING 20142
SWIDTH 925 0
DWIDTH 9 0
BBX 8 9 1 -1
BITMAP
FF
00
7C
7C
00
FE
28
29
CF
ENDCHAR
STARTCHAR 4EB6
ENCODING 20150
SWIDTH 925 0
DWIDTH 9 0
BBX 8 9 1 -1
BITMAP
FF
00
FE
A6
FE
7C
7C
7C
FF
ENDCHAR
STARTCHAR 4EBA
ENCODING 20154
SWIDTH 925 0
DWIDTH 9 0
BBX 8 9 1 -1
BITMAP
10
10
10
10
18
28
64
C2
81
ENDCHAR
STARTCHAR 4EC0
ENCODING 20160
SWIDTH 925 0
DWIDTH 9 0
BBX 8 9 1 -1
BITMAP
48
C8
88
BF
88
88
88
88
88
ENDCHAR
STARTCHAR 4EC1
ENCODING 20161
SWIDTH 925 0
DWIDTH 9 0
BBX 8 9 1 -1
BITMAP
40
40
BE
80
40
40
40
7F
40
ENDCHAR
STARTCHAR 4EC4
ENCODING 20164
SWIDTH 925 0
DWIDTH 9 0
BBX 8 8 1 -1
BITMAP
FF
88
88
88
98
94
A2
C1
ENDCHAR
STARTCHAR 4EC7
ENCODING 20167
SWIDTH 925 0
DWIDTH 9 0
BBX 8 9 1 -1
BITMAP
50
50
BC
94
94
94
A4
A5
C7
ENDCHAR
STARTCHAR 4ECA
ENCODING 20170
SWIDTH 925 0
DWIDTH 9 0
BBX 8 9 1 -1
BITMAP
10
28
46
BD
00
FE
04
0C
08
ENDCHAR
STARTCHAR 4ECB
ENCODING 20171
SWIDTH 925 0
DWIDTH 9 0
BBX 8 9 1 -1
BITMAP
10
28
46
A5
24
24
44
C4
84
ENDCHAR
STARTCHAR 4ECD
ENCODING 20173
SWIDTH 925 0
DWIDTH 9 0
BBX 8 9 0 -1
BITMAP
3E
2A
4A
4B
CB
49
51
51
23
ENDCHAR
STARTCHAR 4ED4
ENCODING 20180
SWIDTH 925 0
DWIDTH 9 0
BBX 8 9 1 -1
BITMAP
40
5E
44
88
BF
88
88
88
98
ENDCHAR
STARTCHAR 4ED5
ENCODING 20181
SWIDTH 925 0
DWIDTH 9 0
BBX 8 9 1 -1
BITMAP
48
48
48
BF
88
48
48
48
7E
ENDCHAR
STARTCHAR 4ED6
ENCODING 20182
SWIDTH 925 0
DWIDTH 9 0
BBX 9 9 0 -1
BITMAP
2400
3500
3300
5D00
B500
3300
3400
3080
2F00
ENDCHAR
STARTCHAR 4ED7
ENCODING 20183
SWIDTH 925 0
DWIDTH 9 0
BBX 8 9 1 -1
BITMAP
44
44
7F
84
98
48
48
56
61
ENDCHAR
STARTCHAR 4ED8
ENCODING 20184
SWIDTH 925 0
DWIDTH 9 0
BBX 8 9 1 -1
BITMAP
22
42
7F
C2
D2
4A
42
42
4E
ENDCHAR
STARTCHAR 4ED9
ENCODING 20185
SWIDTH 925 0
DWIDTH 9 0
BBX 7 9 1 -1
BITMAP
48
48
AA
AA
AA
6A
6A
5E
62
ENDCHAR
STARTCHAR 4EDD
ENCODING 20189
SWIDTH 925 0
DWIDTH 9 0
BBX 8 9 1 -1
BITMAP
10
28
24
C2
81
7C
10
10
FE
ENDCHAR
STARTCHAR 4EDF
ENCODING 20191
SWIDTH 925 0
DWIDTH 9 0
BBX 8 9 1 -1
BITMAP
46
7C
88
88
BF
48
48
48
48
ENDCHAR
STARTCHAR 4EE3
ENCODING 20195
SWIDTH 925 0
DWIDTH 9 0
BBX 8 9 1 -1
BITMAP
4C
4A
48
BF
48
48
48
45
42
ENDCHAR
STARTCHAR 4EE4
ENCODING 20196
SWIDTH 925 0
DWIDTH 9 0
BBX 8 9 1 -1
BITMAP
10
28
C6
BD
00
FE
12
16
10
ENDCHAR
STARTCHAR 4EE5
ENCODING 20197
SWIDTH 925 0
DWIDTH 9 0
BBX 8 8 1 -1
BITMAP
82
B2
92
82
94
64
9A
11
ENDCHAR
STARTCHAR 4EF0
ENCODING 20208
SWIDTH 925 0
DWIDTH 9 0
BBX 7 9 1 -1
BITMAP
50
66
AA
AA
AA
BA
EA
88
88
ENDCHAR
STARTCHAR 4EF2
ENCODING 20210
SWIDTH 925 0
DWIDTH 9 0
BBX 8 9 1 -1
BITMAP
48
48
7F
A9
A9
7F
48
48
48
ENDCHAR
STARTCHAR 4EF6
ENCODING 20214
SWIDTH 925 0
DWIDTH 9 0
BBX 9 9 0 -1
BITMAP
2C00
2C00
5F00
5400
A400
3F80
2400
2400
2400
ENDCHAR
STARTCHAR 4EF7
ENCODING 20215
SWIDTH 925 0
DWIDTH 9 0
BBX 9 9 0 -1
BITMAP
2400
2A00
5900
5A80
AA00
2A00
2A00
3200
2200
ENDCHAR
STARTCHAR 4EFB
ENCODING 20219
SWIDTH 925 0
DWIDTH 9 0
BBX 8 9 1 -1
BITMAP
46
7C
88
88
BF
48
48
7F
40
ENDCHAR
STARTCHAR 4F01
ENCODING 20225
SWIDTH 925 0
DWIDTH 9 0
BBX 8 9 1 -1
BITMAP
10
28
24
D2
D1
4E
50
50
FF
ENDCHAR
STARTCHAR 4F09
ENCODING 20233
SWIDTH 925 0
DWIDTH 9 0
BBX 9 9 0 -1
BITMAP
2400
3F80
4000
4E00
CA00
4A00
4A00
5280
5380
ENDCHAR
STARTCHAR 4F0A
ENCODING 20234
SWIDTH 925 0
DWIDTH 9 0
BBX 8 9 1 -1
BITMAP
40
7E
8A
BF
8A
7E
48
50
60
ENDCHAR
STARTCHAR 4F0B
ENCODING 20235
SWIDTH 925 0
DWIDTH 9 0
BBX 8 9 1 -1
BITMAP
40
7C
94
96
5A
94
A4
AA
91
ENDCHAR
STARTCHAR 4F0D
ENCODING 20237
SWIDTH 925 0
DWIDTH 9 0
BBX 8 9 1 -1
BITMAP
40
7E
88
88
BE
92
92
92
BF
ENDCHAR
STARTCHAR 4F0E
ENCODING 20238
SWIDTH 925 0
DWIDTH 9 0
BBX 8 9 1 -1
BITMAP
48
48
BF
88
BE
92
8C
9C
A3
ENDCHAR
STARTCHAR 4F0F
ENCODING 20239
SWIDTH 925 0
DWIDTH 9 0
BBX 8 9 1 -1
BITMAP
4C
4A
48
BF
88
54
54
62
61
ENDCHAR
STARTCHAR 4F10
ENCODING 20240
SWIDTH 925 0
DWIDTH 9 0
BBX 8 9 1 -1
BITMAP
34
52
4F
BA
8C
8C
8C
95
A2
ENDCHAR
STARTCHAR 4F11
ENCODING 20241
SWIDTH 925 0
DWIDTH 9 0
BBX 8 9 1 -1
BITMAP
48
48
7F
88
9C
9A
6A
49
48
ENDCHAR
STARTCHAR 4F2F
ENCODING 20271
SWIDTH 925 0
DWIDTH 9 0
BBX 7 9 1 -1
BITMAP
48
48
BE
A2
BE
A2
A2
BE
A2
ENDCHAR
STARTCHAR 4F34
ENCODING 20276
SWIDTH 925 0
DWIDTH 9 0
BBX 8 9 1 -1
BITMAP
48
5A
A9
BE
88
BF
88
88
88
ENDCHAR
STARTCHAR 4F36
ENCODING 20278
SWIDTH 925 0
DWIDTH 9 0
BBX 8 9 1 -1
BITMAP
48
54
A2
BD
80
BE
8A
8A
88
ENDCHAR
STARTCHAR 4F38
ENCODING 20280
SWIDTH 925 0
DWIDTH 9 0
BBX 7 9 1 -1
BITMAP
48
7E
AA
AA
BE
6A
7E
48
48
ENDCHAR
STARTCHAR 4F3A
ENCODING 20282
SWIDTH 925 0
DWIDTH 9 0
BBX 7 9 1 -1
BITMAP
7E
42
BE
82
BE
A6
BE
82
86
ENDCHAR
STARTCHAR 4F3C
ENCODING 20284
SWIDTH 925 0
DWIDTH 9 0
BBX 8 9 1 -1
BITMAP
42
6A
AA
A2
A2
A2
BE
BF
89
ENDCHAR
STARTCHAR 4F3D
ENCODING 20285
SWIDTH 925 0
DWIDTH 9 0
BBX 8 9 1 -1
BITMAP
60
67
BD
AD
AD
AD
AD
AF
55
ENDCHAR
STARTCHAR 4F43
ENCODING 20291
SWIDTH 925 0
DWIDTH 9 0
BBX 7 9 1 -1
BITMAP
40
5E
6A
AA
9E
6A
6A
5E
62
ENDCHAR
STARTCHAR 4F46
ENCODING 20294
SWIDTH 925 0
DWIDTH 9 0
BBX 8 9 1 -1
BITMAP
40
5E
62
9E
A2
A2
9E
80
BF
ENDCHAR
STARTCHAR 4F47
ENCODING 20295
SWIDTH 925 0
DWIDTH 9 0
BBX 8 9 1 -1
BITMAP
48
7F
61
80
BF
48
48
48
58
ENDCHAR
STARTCHAR 4F48
ENCODING 20296
SWIDTH 925 0
DWIDTH 9 0
BBX 8 9 1 -1
BITMAP
48
7F
94
94
BE
E5
A5
A6
84
ENDCHAR
STARTCHAR 4F4D
ENCODING 20301
SWIDTH 925 0
DWIDTH 9 0
BBX 8 9 1 -1
BITMAP
48
7E
80
92
92
94
94
84
BF
ENDCHAR
STARTCHAR 4F4E
ENCODING 20302
SWIDTH 925 0
DWIDTH 9 0
BBX 8 9 1 -1
BITMAP
4E
74
A4
9E
64
64
7D
43
7C
ENDCHAR
STARTCHAR 4F4F
ENCODING 20303
SWIDTH 925 0
DWIDTH 9 0
BBX 8 9 1 -1
BITMAP
48
44
7F
88
88
7E
48
48
7F
ENDCHAR
STARTCHAR 4F50
ENCODING 20304
SWIDTH 925 0
DWIDTH 9 0
BBX 8 9 1 -1
BITMAP
48
48
7F
90
90
BE
A8
88
BF
ENDCHAR
STARTCHAR 4F51
ENCODING 20305
SWIDTH 925 0
DWIDTH 9 0
BBX 8 9 1 -1
BITMAP
48
48
7F
90
90
BE
B2
9E
92
ENDCHAR
STARTCHAR 4F55
ENCODING 20309
SWIDTH 925 0
DWIDTH 9 0
BBX 8 9 1 -1
BITMAP
40
7F
82
9A
AA
5A
6A
42
46
ENDCHAR
STARTCHAR 4F59
ENCODING 20313
SWIDTH 925 0
DWIDTH 9 0
BBX 8 9 1 -1
BITMAP
10
28
46
FF
10
FE
54
D2
B1
ENDCHAR
STARTCHAR 4F5A
ENCODING 20314
SWIDTH 925 0
DWIDTH 9 0
BBX 8 9 1 -1
BITMAP
48
58
9E
A8
BF
48
4C
52
61
ENDCHAR
STARTCHAR 4F5B
ENCODING 20315
SWIDTH 925 0
DWIDTH 9 0
BBX 8 9 1 -1
BITMAP
54
7E
96
BE
B4
BF
95
A6
A4
ENDCHAR
STARTCHAR 4F5C
ENCODING 20316
SWIDTH 925 0
DWIDTH 9 0
BBX 8 9 1 -1
BITMAP
50
50
9F
A8
AE
4F
48
48
48
ENDCHAR
STARTCHAR 4F69
ENCODING 20329
SWIDTH 925 0
DWIDTH 9 0
BBX 8 9 1 -1
BITMAP
7E
42
BE
AA
BE
AE
AE
DF
C9
ENDCHAR
STARTCHAR 4F6F
ENCODING 20335
SWIDTH 925 0
DWIDTH 9 0
BBX 8 9 1 -1
BITMAP
52
54
7F
88
BE
7F
48
48
48
ENDCHAR
STARTCHAR 4F70
ENCODING 20336
SWIDTH 925 0
DWIDTH 9 0
BBX 8 9 1 -1
BITMAP
7F
48
BE
A2
A2
BE
A2
BE
A2
ENDCHAR
STARTCHAR 4F73
ENCODING 20339
SWIDTH 925 0
DWIDTH 9 0
BBX 9 9 0 -1
BITMAP
2400
3F00
2400
5F80
4400
A400
3F00
2400
3F80
ENDCHAR
STARTCHAR 4F76
ENCODING 20342
SWIDTH 925 0
DWIDTH 9 0
BBX 8 9 1 -1
BITMAP
48
48
BF
BE
80
9E
A2
9E
A2
ENDCHAR
STARTCHAR 4F7A
ENCODING 20346
SWIDTH 925 0
DWIDTH 9 0
BBX 9 9 0 -1
BITMAP
2C00
2600
2A00
5100
DF80
4F00
4400
4400
5F80
ENDCHAR
STARTCHAR 4F7E
ENCODING 20350
SWIDTH 925 0
DWIDTH 9 0
BBX 8 9 1 -1
BITMAP
4C
52
A2
BF
9E
52
5E
62
66
ENDCHAR
STARTCHAR 4F7F
ENCODING 20351
SWIDTH 925 0
DWIDTH 9 0
BBX 8 9 1 -1
BITMAP
48
7F
88
BE
A9
9E
B8
9C
A7
ENDCHAR
STARTCHAR 4F81
ENCODING 20353
SWIDTH 925 0
DWIDTH 9 0
BBX 8 9 1 -1
BITMAP
48
58
9E
A8
BF
94
94
95
A7
ENDCHAR
STARTCHAR 4F83
ENCODING 20355
SWIDTH 925 0
DWIDTH 9 0
BBX 9 9 0 -1
BITMAP
3F00
3100
5100
5F00
D600
5600
5600
5680
2580
ENDCHAR
STARTCHAR 4F84
ENCODING 20356
SWIDTH 925 0
DWIDTH 9 0
BBX 8 9 1 -1
BITMAP
40
7F
92
BF
88
88
BE
88
BF
ENDCHAR
STARTCHAR 4F86
ENCODING 20358
SWIDTH 925 0
DWIDTH 9 0
BBX 8 9 1 -1
BITMAP
10
FE
54
56
BA
38
56
91
10
ENDCHAR
STARTCHAR 4F88
ENCODING 20360
SWIDTH 925 0
DWIDTH 9 0
BBX 8 9 1 -1
BITMAP
48
5E
B4
9C
AC
9F
B2
8C
B0
ENDCHAR
STARTCHAR 4F8A
ENCODING 20362
SWIDTH 925 0
DWIDTH 9 0
BBX 8 9 1 -1
BITMAP
48
6A
9A
88
BF
94
94
B5
A7
ENDCHAR
STARTCHAR 4F8B
ENCODING 20363
SWIDTH 925 0
DWIDTH 9 0
BBX 7 9 1 -1
BITMAP
42
7A
9E
AE
AE
96
96
A2
A6
ENDCHAR
STARTCHAR 4F8D
ENCODING 20365
SWIDTH 925 0
DWIDTH 9 0
BBX 8 9 1 -1
BITMAP
48
7E
88
BF
82
BF
92
92
84
ENDCHAR
STARTCHAR 4F8F
ENCODING 20367
SWIDTH 925 0
DWIDTH 9 0
BBX 8 9 1 -1
BITMAP
48
58
9E
A8
BF
8C
9A
A9
88
ENDCHAR
STARTCHAR 4F91
ENCODING 20369
SWIDTH 925 0
DWIDTH 9 0
BBX 8 9 1 -1
BITMAP
48
7F
90
9E
B2
BE
9E
92
96
ENDCHAR
STARTCHAR 4F96
ENCODING 20374
SWIDTH 925 0
DWIDTH 9 0
BBX 8 9 1 -1
BITMAP
18
24
7E
81
7E
AA
7E
AA
AE
ENDCHAR
STARTCHAR 4F98
ENCODING 20376
SWIDTH 925 0
DWIDTH 9 0
BBX 8 9 1 -1
BITMAP
48
7F
A7
B8
88
BF
88
89
8E
ENDCHAR
STARTCHAR 4F9B
ENCODING 20379
SWIDTH 925 0
DWIDTH 9 0
BBX 8 9 1 -1
BITMAP
54
54
BE
94
94
BF
94
A2
A1
ENDCHAR
STARTCHAR 4F9D
ENCODING 20381
SWIDTH 925 0
DWIDTH 9 0
BBX 8 9 1 -1
BITMAP
48
7F
88
94
B6
B4
92
9E
B1
ENDCHAR
STARTCHAR 4FAE
ENCODING 20398
SWIDTH 925 0
DWIDTH 9 0
BBX 9 9 0 -1
BITMAP
2800
3F80
5000
4F00
CB00
5F80
5300
5F00
5300
ENDCHAR
STARTCHAR 4FAF
ENCODING 20399
SWIDTH 925 0
DWIDTH 9 0
BBX 8 9 1 -1
BITMAP
5E
42
BF
90
BE
A8
BF
94
E3
ENDCHAR
STARTCHAR 4FB5
ENCODING 20405
SWIDTH 925 0
DWIDTH 9 0
BBX 9 9 0 -1
BITMAP
2F00
2100
5F80
4000
DF80
5F80
4A00
4600
5980
ENDCHAR
STARTCHAR 4FB6
ENCODING 20406
SWIDTH 925 0
DWIDTH 9 0
BBX 7 9 1 -1
BITMAP
5E
62
A2
9E
88
BE
A2
BE
A2
ENDCHAR
STARTCHAR 4FBF
ENCODING 20415
SWIDTH 925 0
DWIDTH 9 0
BBX 9 9 0 -1
BITMAP
3F80
2400
5F00
5F00
D480
5F00
4C00
4E00
5380
ENDCHAR
STARTCHAR 4FC2
ENCODING 20418
SWIDTH 925 0
DWIDTH 9 0
BBX 8 9 1 -1
BITMAP
46
78
74
98
8A
BE
9B
A9
88
ENDCHAR
STARTCHAR 4FC3
ENCODING 20419
SWIDTH 925 0
DWIDTH 9 0
BBX 9 9 0 -1
BITMAP
2F00
3100
5100
4F00
AC00
2B80
2C00
3C00
2380
ENDCHAR
STARTCHAR 4FC4
ENCODING 20420
SWIDTH 925 0
DWIDTH 9 0
BBX 8 9 1 -1
BITMAP
4C
76
94
BF
94
BE
94
95
BA
ENDCHAR
STARTCHAR 4FC9
ENCODING 20425
SWIDTH 925 0
DWIDTH 9 0
BBX 8 9 1 -1
BITMAP
7F
48
BE
92
BF
BE
A2
A2
BE
ENDCHAR
STARTCHAR 4FCA
ENCODING 20426
SWIDTH 925 0
DWIDTH 9 0
BBX 8 9 1 -1
BITMAP
48
52
7F
97
A8
9E
B4
8C
B3
ENDCHAR
STARTCHAR 4FCE
ENCODING 20430
SWIDTH 925 0
DWIDTH 9 0
BBX 8 9 1 -1
BITMAP
5E
52
52
BE
52
52
7E
B2
9F
ENDCHAR
STARTCHAR 4FD1
ENCODING 20433
SWIDTH 925 0
DWIDTH 9 0
BBX 8 9 0 -1
BITMAP
3F
22
44
5F
DF
55
5F
55
55
ENDCHAR
STARTCHAR 4FD3
ENCODING 20435
SWIDTH 925 0
DWIDTH 9 0
BBX 8 9 1 -1
BITMAP
7E
56
6A
AA
96
80
BE
88
BF
ENDCHAR
STARTCHAR 4FD4
ENCODING 20436
SWIDTH 925 0
DWIDTH 9 0
BBX 8 9 1 -1
BITMAP
7E
62
BE
A2
7E
7E
54
55
67
ENDCHAR
STARTCHAR 4FD7
ENCODING 20439
SWIDTH 925 0
DWIDTH 9 0
BBX 8 9 1 -1
BITMAP
54
62
AA
94
A2
BF
A2
9E
A2
ENDCHAR
STARTCHAR 4FDA
ENCODING 20442
SWIDTH 925 0
DWIDTH 9 0
BBX 8 9 1 -1
BITMAP
7E
6A
BE
AA
BE
88
BE
88
BF
ENDCHAR
STARTCHAR 4FDD
ENCODING 20445
SWIDTH 925 0
DWIDTH 9 0
BBX 8 9 1 -1
BITMAP
5E
62
A2
9C
BF
4C
5A
79
68
ENDCHAR
STARTCHAR 4FDF
ENCODING 20447
SWIDTH 925 0
DWIDTH 9 0
BBX 8 9 1 -1
BITMAP
4A
56
B9
90
9E
A8
BF
94
A3
ENDCHAR
STARTCHAR 4FE0
ENCODING 20448
SWIDTH 925 0
DWIDTH 9 0
BBX 8 9 1 -1
BITMAP
48
7F
AA
AA
BA
49
54
72
61
ENDCHAR
STARTCHAR 4FE1
ENCODING 20449
SWIDTH 925 0
DWIDTH 9 0
BBX 8 9 1 -1
BITMAP
5E
40
7F
9E
5E
40
5E
5E
62
ENDCHAR
STARTCHAR 4FEE
ENCODING 20462
SWIDTH 925 0
DWIDTH 9 0
BBX 8 9 1 -1
BITMAP
48
5F
BA
AC
B7
BA
AD
BE
98
ENDCHAR
STARTCHAR 4FEF
ENCODING 20463
SWIDTH 925 0
DWIDTH 9 0
BBX 8 9 1 -1
BITMAP
48
7F
AA
AF
B6
B6
B2
B2
D6
ENDCHAR
STARTCHAR 4FF1
ENCODING 20465
SWIDTH 925 0
DWIDTH 9 0
BBX 8 9 1 -1
BITMAP
5E
62
9E
9E
A2
9E
BF
96
A1
ENDCHAR
STARTCHAR 4FF3
ENCODING 20467
SWIDTH 925 0
DWIDTH 9 0
BBX 8 9 1 -1
BITMAP
54
54
B7
94
B7
97
B4
94
A4
ENDCHAR
STARTCHAR 4FF5
ENCODING 20469
SWIDTH 925 0
DWIDTH 9 0
BBX 8 9 1 -1
BITMAP
48
7E
BE
88
B7
96
B4
9A
B1
ENDCHAR
STARTCHAR 4FF8
ENCODING 20472
SWIDTH 925 0
DWIDTH 9 0
BBX 8 9 1 -1
BITMAP
48
7E
BE
94
BF
BF
BE
88
88
ENDCHAR
STARTCHAR 4FFA
ENCODING 20474
SWIDTH 925 0
DWIDTH 9 0
BBX 9 9 0 -1
BITMAP
2400
3F80
4A00
5F00
D580
5F00
5F00
4480
4700
ENDCHAR
STARTCHAR 5002
ENCODING 20482
SWIDTH 925 0
DWIDTH 9 0
BBX 8 9 1 -1
BITMAP
52
52
BF
92
9A
B7
92
A2
A2
ENDCHAR
STARTCHAR 5006
ENCODING 20486
SWIDTH 925 0
DWIDTH 9 0
BBX 8 9 1 -1
BITMAP
40
7F
BE
A9
BD
BA
AE
A9
AA
ENDCHAR
STARTCHAR 5009
ENCODING 20489
SWIDTH 925 0
DWIDTH 9 0
BBX 8 9 1 -1
BITMAP
38
7C
83
7C
7C
7C
7E
C2
BE
ENDCHAR
STARTCHAR 500B
ENCODING 20491
SWIDTH 925 0
DWIDTH 9 0
BBX 9 9 0 -1
BITMAP
3F80
3480
5F80
5480
BE80
5980
5E80
5F80
5080
ENDCHAR
STARTCHAR 500D
ENCODING 20493
SWIDTH 925 0
DWIDTH 9 0
BBX 9 9 0 -1
BITMAP
2400
3F80
4900
5F80
C000
4F00
5100
4F00
5100
ENDCHAR
STARTCHAR 5011
ENCODING 20497
SWIDTH 925 0
DWIDTH 9 0
BBX 8 9 1 -1
BITMAP
77
6D
B7
AD
B7
A1
A1
A1
A2
ENDCHAR
STARTCHAR 5012
ENCODING 20498
SWIDTH 925 0
DWIDTH 9 0
BBX 7 9 1 -1
BITMAP
42
7E
AE
BE
96
BE
96
9A
F2
ENDCHAR
STARTCHAR 5016
ENCODING 20502
SWIDTH 925 0
DWIDTH 9 0
BBX 8 9 1 -1
BITMAP
48
7E
88
BF
94
7F
7E
48
48
ENDCHAR
STARTCHAR 5019
ENCODING 20505
SWIDTH 925 0
DWIDTH 9 0
BBX 8 9 1 -1
BITMAP
5E
42
BF
B0
BE
A4
BF
8A
B1
ENDCHAR
STARTCHAR 501A
ENCODING 20506
SWIDTH 925 0
DWIDTH 9 0
BBX 8 9 1 -1
BITMAP
28
7F
4C
F3
FF
5E
5E
66
46
ENDCHAR
STARTCHAR 501C
ENCODING 20508
SWIDTH 925 0
DWIDTH 9 0
BBX 7 9 1 -1
BITMAP
7E
6A
BE
BE
AA
AE
AE
B2
A2
ENDCHAR
STARTCHAR 501E
ENCODING 20510
SWIDTH 925 0
DWIDTH 9 0
BBX 8 9 1 -1
BITMAP
48
7F
40
9E
A2
5E
5A
6A
59
ENDCHAR
STARTCHAR 501F
ENCODING 20511
SWIDTH 925 0
DWIDTH 9 0
BBX 8 9 1 -1
BITMAP
54
7E
94
BF
80
9E
9E
A2
9E
ENDCHAR
STARTCHAR 5021
ENCODING 20513
SWIDTH 925 0
DWIDTH 9 0
BBX 8 9 1 -1
BITMAP
5E
52
9E
9E
80
7F
7F
61
7F
ENDCHAR
STARTCHAR 5023
ENCODING 20515
SWIDTH 925 0
DWIDTH 9 0
BBX 8 9 1 -1
BITMAP
54
54
FF
A9
B6
AA
AA
D5
D9
ENDCHAR
STARTCHAR 5024
ENCODING 20516
SWIDTH 925 0
DWIDTH 9 0
BBX 8 9 1 -1
BITMAP
44
7F
9E
B2
BE
BE
BE
BF
A0
ENDCHAR
STARTCHAR 5026
ENCODING 20518
SWIDTH 925 0
DWIDTH 9 0
BBX 8 9 1 -1
BITMAP
5C
6A
DD
FF
A2
DD
94
91
9E
ENDCHAR
STARTCHAR 5027
ENCODING 20519
SWIDTH 925 0
DWIDTH 9 0
BBX 8 9 1 -1
BITMAP
48
7F
61
9E
80
7F
5A
69
58
ENDCHAR
STARTCHAR 5028
ENCODING 20520
SWIDTH 925 0
DWIDTH 9 0
BBX 9 9 0 -1
BITMAP
3F00
3080
5F00
5200
DF80
5F80
5880
5F80
6880
ENDCHAR
STARTCHAR 502A
ENCODING 20522
SWIDTH 925 0
DWIDTH 9 0
BBX 8 9 1 -1
BITMAP
50
66
B6
A2
BE
94
94
A5
A7
ENDCHAR
STARTCHAR 502B
ENCODING 20523
SWIDTH 925 0
DWIDTH 9 0
BBX 8 9 1 -1
BITMAP
4C
52
BD
80
BE
B6
BE
B6
B6
ENDCHAR
STARTCHAR 502C
ENCODING 20524
SWIDTH 925 0
DWIDTH 9 0
BBX 8 9 1 -1
BITMAP
48
4F
BE
A2
BE
7E
7F
48
48
ENDCHAR
STARTCHAR 502D
ENCODING 20525
SWIDTH 925 0
DWIDTH 9 0
BBX 8 9 1 -1
BITMAP
46
78
BF
9A
A9
BF
94
8C
B3
ENDCHAR
STARTCHAR 503B
ENCODING 20539
SWIDTH 925 0
DWIDTH 9 0
BBX 8 9 1 -1
BITMAP
7F
6D
B6
AE
B5
AD
B7
AC
8C
ENDCHAR
STARTCHAR 5043
ENCODING 20547
SWIDTH 925 0
DWIDTH 9 0
BBX 8 9 1 -1
BITMAP
7F
7E
B2
BE
BE
BF
A6
B8
BF
ENDCHAR
STARTCHAR 5047
ENCODING 20551
SWIDTH 925 0
DWIDTH 9 0
BBX 8 9 1 -1
BITMAP
7E
6A
AE
B8
A6
B6
B6
A6
A9
ENDCHAR
STARTCHAR 5048
ENCODING 20552
SWIDTH 925 0
DWIDTH 9 0
BBX 8 9 1 -1
BITMAP
7E
62
BE
BE
9F
69
B5
BD
A6
ENDCHAR
STARTCHAR 5049
ENCODING 20553
SWIDTH 925 0
DWIDTH 9 0
BBX 8 9 1 -1
BITMAP
48
7E
BF
9E
A2
9E
BE
BF
84
ENDCHAR
STARTCHAR 504F
ENCODING 20559
SWIDTH 925 0
DWIDTH 9 0
BBX 8 9 1 -1
BITMAP
42
7C
BE
BE
A0
BF
BF
DD
DB
ENDCHAR
STARTCHAR 5055
ENCODING 20565
SWIDTH 925 0
DWIDTH 9 0
BBX 9 9 0 -1
BITMAP
3200
3E80
5F80
5380
C400
5F00
5F00
5100
5F00
ENDCHAR
STARTCHAR 505A
ENCODING 20570
SWIDTH 925 0
DWIDTH 9 0
BBX 8 9 1 -1
BITMAP
54
54
B7
9A
B6
B2
B6
B6
89
ENDCHAR
STARTCHAR 505C
ENCODING 20572
SWIDTH 925 0
DWIDTH 9 0
BBX 8 9 1 -1
BITMAP
7F
40
9E
9E
80
BF
BF
88
98
ENDCHAR
STARTCHAR 5065
ENCODING 20581
SWIDTH 925 0
DWIDTH 9 0
BBX 8 9 1 -1
BITMAP
44
6E
BF
A6
9E
D4
5F
A4
5F
ENDCHAR
STARTCHAR 5074
ENCODING 20596
SWIDTH 925 0
DWIDTH 9 0
BBX 7 9 1 -1
BITMAP
7A
6E
BE
AE
BE
AE
BE
AA
CA
ENDCHAR
STARTCHAR 5075
ENCODING 20597
SWIDTH 925 0
DWIDTH 9 0
BBX 8 9 1 -1
BITMAP
48
4F
BE
A2
BE
BE
BE
96
A1
ENDCHAR
STARTCHAR 5076
ENCODING 20598
SWIDTH 925 0
DWIDTH 9 0
BBX 8 9 1 -1
BITMAP
3E
6A
7E
AA
BE
BF
AF
BB
A2
ENDCHAR
STARTCHAR 5078
ENCODING 20600
SWIDTH 925 0
DWIDTH 9 0
BBX 9 9 0 -1
BITMAP
2C00
2B00
5F80
4280
DF00
5F00
5F00
5680
5D80
ENDCHAR
STARTCHAR 5080
ENCODING 20608
SWIDTH 925 0
DWIDTH 9 0
BBX 8 9 1 -1
BITMAP
48
7E
AA
BE
BE
99
97
A9
A7
ENDCHAR
STARTCHAR 5085
ENCODING 20613
SWIDTH 925 0
DWIDTH 9 0
BBX 8 9 1 -1
BITMAP
4A
7F
BE
BE
BE
6A
7F
52
46
ENDCHAR
STARTCHAR 508D
ENCODING 20621
SWIDTH 925 0
DWIDTH 9 0
BBX 8 9 1 -1
BITMAP
48
7E
BF
C1
BF
90
9E
B2
A6
ENDCHAR
STARTCHAR 5091
ENCODING 20625
SWIDTH 925 0
DWIDTH 9 0
BBX 8 9 1 -1
BITMAP
62
7F
B6
BF
AA
BF
9C
BE
A9
ENDCHAR
STARTCHAR 5098
ENCODING 20632
SWIDTH 925 0
DWIDTH 9 0
BBX 8 9 1 -1
BITMAP
10
78
F6
57
BE
5A
FF
10
10
ENDCHAR
STARTCHAR 5099
ENCODING 20633
SWIDTH 925 0
DWIDTH 9 0
BBX 8 9 1 -1
BITMAP
54
7F
94
FF
BE
BE
B5
DE
D6
ENDCHAR
STARTCHAR 50AC
ENCODING 20652
SWIDTH 925 0
DWIDTH 9 0
BBX 9 9 0 -1
BITMAP
3480
3F80
4800
5200
DF80
6F00
4F00
5200
4F80
ENDCHAR
STARTCHAR 50AD
ENCODING 20653
SWIDTH 925 0
DWIDTH 9 0
BBX 9 9 0 -1
BITMAP
2400
3F80
5F00
5F80
D200
5F00
5F00
5F00
6B00
ENDCHAR
STARTCHAR 50B2
ENCODING 20658
SWIDTH 925 0
DWIDTH 9 0
BBX 8 9 1 -1
BITMAP
54
7C
97
FD
FE
A6
BA
AE
D5
ENDCHAR
STARTCHAR 50B3
ENCODING 20659
SWIDTH 925 0
DWIDTH 9 0
BBX 8 9 1 -1
BITMAP
48
7F
BE
AA
BE
BE
BF
94
8C
ENDCHAR
STARTCHAR 50B5
ENCODING 20661
SWIDTH 925 0
DWIDTH 9 0
BBX 8 9 1 -1
BITMAP
48
7E
BF
80
BE
A2
BE
90
A3
ENDCHAR
STARTCHAR 50B7
ENCODING 20663
SWIDTH 925 0
DWIDTH 9 0
BBX 8 9 1 -1
BITMAP
50
7F
BE
9E
80
BF
BE
B5
9A
ENDCHAR
STARTCHAR 50BE
ENCODING 20670
SWIDTH 925 0
DWIDTH 9 0
BBX 8 9 1 -1
BITMAP
5F
44
BE
AE
AA
BE
BE
8A
91
ENDCHAR
STARTCHAR 50C5
ENCODING 20677
SWIDTH 925 0
DWIDTH 9 0
BBX 8 9 1 -1
BITMAP
54
7F
9C
BE
AA
BF
88
BE
BF
ENDCHAR
STARTCHAR 50C9
ENCODING 20681
SWIDTH 925 0
DWIDTH 9 0
BBX 8 9 1 -1
BITMAP
10
28
7E
81
6E
6E
44
6C
AA
ENDCHAR
STARTCHAR 50CA
ENCODING 20682
SWIDTH 925 0
DWIDTH 9 0
BBX 8 9 1 -1
BITMAP
7F
4C
BE
BE
BF
92
BD
92
9E
ENDCHAR
STARTCHAR 50CF
ENCODING 20687
SWIDTH 925 0
DWIDTH 9 0
BBX 9 9 0 -1
BITMAP
2800
2E00
5F00
5480
CF00
5F00
5500
4A80
5400
ENDCHAR
STARTCHAR 50D1
ENCODING 20689
SWIDTH 925 0
DWIDTH 9 0
BBX 8 9 1 -1
BITMAP
46
5C
BF
BF
80
BE
AD
AD
A2
ENDCHAR
STARTCHAR 50D5
ENCODING 20693
SWIDTH 925 0
DWIDTH 9 0
BBX 8 9 1 -1
BITMAP
6E
5E
BF
94
BE
BE
BF
9C
A3
ENDCHAR
STARTCHAR 50D6
ENCODING 20694
SWIDTH 925 0
DWIDTH 9 0
BBX 8 9 1 -1
BITMAP
48
7F
7E
BE
BE
FF
BE
A2
BE
ENDCHAR
STARTCHAR 50DA
ENCODING 20698
SWIDTH 925 0
DWIDTH 9 0
BBX 8 9 1 -1
BITMAP
48
7F
B6
BE
FF
A2
BE
AA
D9
ENDCHAR
STARTCHAR 50DE
ENCODING 20702
SWIDTH 925 0
DWIDTH 9 0
BBX 8 9 1 -1
BITMAP
42
5E
A1
BC
BE
BF
B7
BF
D2
ENDCHAR
STARTCHAR 50E5
ENCODING 20709
SWIDTH 925 0
DWIDTH 9 0
BBX 8 9 1 -1
BITMAP
48
7E
BF
B6
B7
80
BF
95
A7
ENDCHAR
STARTCHAR 50E7
ENCODING 20711
SWIDTH 925 0
DWIDTH 9 0
BBX 8 9 1 -1
BITMAP
4C
52
BF
BA
BE
9E
A2
9E
9E
ENDCHAR
STARTCHAR 50ED
ENCODING 20717
SWIDTH 925 0
DWIDTH 9 0
BBX 8 9 1 -1
BITMAP
76
B6
B7
BB
D7
BE
BE
BE
A2
ENDCHAR
STARTCHAR 50F9
ENCODING 20729
SWIDTH 925 0
DWIDTH 9 0
BBX 8 9 1 -1
BITMAP
7F
7F
B5
8A
BE
BE
BE
80
B3
ENDCHAR
STARTCHAR 50FB
ENCODING 20731
SWIDTH 925 0
DWIDTH 9 0
BBX 8 9 1 -1
BITMAP
72
6F
B6
B6
AF
B2
EF
F2
AA
ENDCHAR
STARTCHAR 50FF
ENCODING 20735
SWIDTH 925 0
DWIDTH 9 0
BBX 8 9 1 -1
BITMAP
48
7F
BE
9E
94
BF
BF
88
BF
ENDCHAR
STARTCHAR 5100
ENCODING 20736
SWIDTH 925 0
DWIDTH 9 0
BBX 8 9 1 -1
BITMAP
54
7F
BE
BF
8E
B4
BF
B6
BB
ENDCHAR
STARTCHAR 5101
ENCODING 20737
SWIDTH 925 0
DWIDTH 9 0
BBX 8 9 1 -1
BITMAP
54
5E
BE
BE
9E
80
B7
AD
A3
ENDCHAR
STARTCHAR 5104
ENCODING 20740
SWIDTH 925 0
DWIDTH 9 0
BBX 8 9 1 -1
BITMAP
48
7E
BF
BE
BE
BE
88
B6
DD
ENDCHAR
STARTCHAR 5106
ENCODING 20742
SWIDTH 925 0
DWIDTH 9 0
BBX 8 9 1 -1
BITMAP
6C
7C
AF
BD
CD
FE
BA
BA
9D
ENDCHAR
STARTCHAR 5109
ENCODING 20745
SWIDTH 925 0
DWIDTH 9 0
BBX 8 9 1 -1
BITMAP
48
76
BD
B6
B6
B6
92
B6
AD
ENDCHAR
STARTCHAR 5112
ENCODING 20754
SWIDTH 925 0
DWIDTH 9 0
BBX 8 9 1 -1
BITMAP
7E
48
BF
88
80
BF
BE
B5
B6
ENDCHAR
STARTCHAR 511F
ENCODING 20767
SWIDTH 925 0
DWIDTH 9 0
BBX 8 9 1 -1
BITMAP
5A
7F
BF
9E
BE
BE
BE
BE
B3
ENDCHAR
STARTCHAR 5121
ENCODING 20769
SWIDTH 925 0
DWIDTH 9 0
BBX 8 9 1 -1
BITMAP
7E
6A
BE
BE
80
B7
B7
B7
C9
ENDCHAR
STARTCHAR 512A
ENCODING 20778
SWIDTH 925 0
DWIDTH 9 0
BBX 8 9 1 -1
BITMAP
7E
5E
9E
A2
BD
B2
9E
B4
BF
ENDCHAR
STARTCHAR 5132
ENCODING 20786
SWIDTH 925 0
DWIDTH 9 0
BBX 8 9 1 -1
BITMAP
74
4E
F6
BF
B6
8E
B6
D9
B6
ENDCHAR
STARTCHAR 5137
ENCODING 20791
SWIDTH 925 0
DWIDTH 9 0
BBX 8 9 1 -1
BITMAP
77
B7
AB
BF
BE
BE
B4
DF
F7
ENDCHAR
STARTCHAR 513A
ENCODING 20794
SWIDTH 925 0
DWIDTH 9 0
BBX 8 9 1 -1
BITMAP
54
7E
B7
FE
F7
F7
FE
B7
CC
ENDCHAR
STARTCHAR 513C
ENCODING 20796
SWIDTH 925 0
DWIDTH 9 0
BBX 8 9 1 -1
BITMAP
7F
7F
BF
DA
BF
DD
DE
DA
DD
ENDCHAR
STARTCHAR 5140
ENCODING 20800
SWIDTH 925 0
DWIDTH 9 0
BBX 8 8 1 -1
BITMAP
FE
28
28
28
28
48
C9
8E
ENDCHAR
STARTCHAR 5141
ENCODING 20801
SWIDTH 925 0
DWIDTH 9 0
BBX 8 9 1 -1
BITMAP
20
24
4E
F2
28
28
28
49
8E
ENDCHAR
STARTCHAR 5143
ENCODING 20803
SWIDTH 925 0
DWIDTH 9 0
BBX 8 8 1 -1
BITMAP
7E
00
FE
28
28
28
49
8E
ENDCHAR
STARTCHAR 5144
ENCODING 20804
SWIDTH 925 0
DWIDTH 9 0
BBX 8 8 1 -1
BITMAP
7E
42
42
7E
28
28
49
8F
ENDCHAR
STARTCHAR 5145
ENCODING 20805
SWIDTH 925 0
DWIDTH 9 0
BBX 8 9 1 -1
BITMAP
10
FE
24
2E
F2
28
28
49
8E
ENDCHAR
STARTCHAR 5146
ENCODING 20806
SWIDTH 925 0
DWIDTH 9 0
BBX 8 9 1 -1
BITMAP
28
AA
6A
6C
2C
EA
28
49
8E
ENDCHAR
STARTCHAR 5147
ENCODING 20807
SWIDTH 925 0
DWIDTH 9 0
BBX 8 9 1 -1
BITMAP
86
AA
9A
A6
7E
28
28
49
8F
ENDCHAR
STARTCHAR 5148
ENCODING 20808
SWIDTH 925 0
DWIDTH 9 0
BBX 8 9 1 -1
BITMAP
10
50
7E
90
FF
28
28
49
8E
ENDCHAR
STARTCHAR 5149
ENCODING 20809
SWIDTH 925 0
DWIDTH 9 0
BBX 8 9 1 -1
BITMAP
12
54
54
10
FF
28
28
49
8E
ENDCHAR
STARTCHAR 514B
ENCODING 20811
SWIDTH 925 0
DWIDTH 9 0
BBX 8 9 1 -1
BITMAP
10
FF
10
7E
42
7E
28
69
8E
ENDCHAR
STARTCHAR 514C
ENCODING 20812
SWIDTH 925 0
DWIDTH 9 0
BBX 8 8 1 -1
BITMAP
3C
46
FD
C4
7C
28
69
8E
ENDCHAR
STARTCHAR 514D
ENCODING 20813
SWIDTH 925 0
DWIDTH 9 0
BBX 8 9 1 -1
BITMAP
20
3C
48
FE
92
7E
18
29
CE
ENDCHAR
STARTCHAR 514E
ENCODING 20814
SWIDTH 925 0
DWIDTH 9 0
BBX 8 9 1 -1
BITMAP
0E
F0
7E
92
92
7E
2A
49
8F
ENDCHAR
STARTCHAR 5152
ENCODING 20818
SWIDTH 925 0
DWIDTH 9 0
BBX 8 9 1 -1
BITMAP
6E
82
6E
82
82
7E
28
49
8E
ENDCHAR
STARTCHAR 515C
ENCODING 20828
SWIDTH 925 0
DWIDTH 9 0
BBX 8 9 1 -1
BITMAP
10
FA
AA
BA
FE
28
28
49
8E
ENDCHAR
STARTCHAR 5162
ENCODING 20834
SWIDTH 925 0
DWIDTH 9 0
BBX 8 9 1 -1
BITMAP
44
EF
44
EE
99
EE
AA
BB
F3
ENDCHAR
STARTCHAR 5165
ENCODING 20837
SWIDTH 925 0
DWIDTH 9 0
BBX 8 8 1 -1
BITMAP
70
10
10
18
28
24
C2
81
ENDCHAR
STARTCHAR 5167
ENCODING 20839
SWIDTH 925 0
DWIDTH 9 0
BBX 7 8 1 -1
BITMAP
70
10
FE
92
AE
C6
82
86
ENDCHAR
STARTCHAR 5168
ENCODING 20840
SWIDTH 925 0
DWIDTH 9 0
BBX 8 9 1 -1
BITMAP
70
18
26
43
FE
10
7C
10
FF
ENDCHAR
STARTCHAR 5169
ENCODING 20841
SWIDTH 925 0
DWIDTH 9 0
BBX 8 8 1 -1
BITMAP
FF
10
FE
DE
B6
DA
92
96
ENDCHAR
STARTCHAR 516A
ENCODING 20842
SWIDTH 925 0
DWIDTH 9 0
BBX 8 8 1 -1
BITMAP
70
28
7E
FB
FA
DA
BA
B5
ENDCHAR
STARTCHAR 516B
ENCODING 20843
SWIDTH 925 0
DWIDTH 9 0
BBX 8 8 1 -1
BITMAP
38
24
24
44
44
42
82
81
ENDCHAR
STARTCHAR 516C
ENCODING 20844
SWIDTH 925 0
DWIDTH 9 0
BBX 8 8 1 -1
BITMAP
38
44
C2
91
20
24
4C
F2
ENDCHAR
STARTCHAR 516D
ENCODING 20845
SWIDTH 925 0
DWIDTH 9 0
BBX 8 9 1 -1
BITMAP
10
FF
00
00
24
44
44
82
81
ENDCHAR
STARTCHAR 516E
ENCODING 20846
SWIDTH 925 0
DWIDTH 9 0
BBX 8 8 1 -1
BITMAP
58
44
FE
A1
3C
44
04
1C
ENDCHAR
STARTCHAR 5171
ENCODING 20849
SWIDTH 925 0
DWIDTH 9 0
BBX 8 9 1 -1
BITMAP
28
28
FE
28
28
FF
28
46
81
ENDCHAR
STARTCHAR 5175
ENCODING 20853
SWIDTH 925 0
DWIDTH 9 0
BBX 8 9 1 -1
BITMAP
06
78
40
7E
44
FF
00
64
82
ENDCHAR
STARTCHAR 5176
ENCODING 20854
SWIDTH 925 0
DWIDTH 9 0
BBX 8 9 1 -1
BITMAP
44
FE
44
7C
44
7C
FF
64
83
ENDCHAR
STARTCHAR 5177
ENCODING 20855
SWIDTH 925 0
DWIDTH 9 0
BBX 8 8 1 -1
BITMAP
7C
7C
44
7C
7C
FF
64
83
ENDCHAR
STARTCHAR 5178
ENCODING 20856
SWIDTH 925 0
DWIDTH 9 0
BBX 8 9 1 -1
BITMAP
28
7E
AA
AA
7E
AA
FF
64
82
ENDCHAR
STARTCHAR 517C
ENCODING 20860
SWIDTH 925 0
DWIDTH 9 0
BBX 8 8 1 -1
BITMAP
58
FE
FD
2A
FF
7C
6C
AB
ENDCHAR
STARTCHAR 5180
ENCODING 20864
SWIDTH 925 0
DWIDTH 9 0
BBX 8 9 1 -1
BITMAP
EB
EE
00
7E
7E
FE
38
FF
C7
ENDCHAR
STARTCHAR 5186
ENCODING 20870
SWIDTH 925 0
DWIDTH 9 0
BBX 7 8 1 -1
BITMAP
FE
92
92
FE
82
82
82
86
ENDCHAR
STARTCHAR 518A
ENCODING 20874
SWIDTH 925 0
DWIDTH 9 0
BBX 8 8 1 -1
BITMAP
7E
AA
AA
FF
AA
AA
AA
86
ENDCHAR
STARTCHAR 518D
ENCODING 20877
SWIDTH 925 0
DWIDTH 9 0
BBX 8 8 1 -1
BITMAP
FE
10
7E
7E
52
FF
42
46
ENDCHAR
STARTCHAR 5192
ENCODING 20882
SWIDTH 925 0
DWIDTH 9 0
BBX 7 8 1 -1
BITMAP
FE
FE
FE
7E
42
7E
7E
7E
ENDCHAR
STARTCHAR 5195
ENCODING 20885
SWIDTH 925 0
DWIDTH 9 0
BBX 8 8 1 -1
BITMAP
7E
82
7E
78
FE
7E
29
CE
ENDCHAR
STARTCHAR 5197
ENCODING 20887
SWIDTH 925 0
DWIDTH 9 0
BBX 8 8 1 -1
BITMAP
FE
81
38
28
28
48
C9
86
ENDCHAR
STARTCHAR 51A0
ENCODING 20896
SWIDTH 925 0
DWIDTH 9 0
BBX 8 8 1 -1
BITMAP
FF
83
6F
FA
66
62
A7
BF
ENDCHAR
STARTCHAR 51A5
ENCODING 20901
SWIDTH 925 0
DWIDTH 9 0
BBX 8 8 1 -1
BITMAP
FE
FD
44
7C
7C
FF
64
83
ENDCHAR
STARTCHAR 51AA
ENCODING 20906
SWIDTH 925 0
DWIDTH 9 0
BBX 8 8 1 -1
BITMAP
FE
FD
7E
42
7E
FF
FF
54
ENDCHAR
STARTCHAR 51AC
ENCODING 20908
SWIDTH 925 0
DWIDTH 9 0
BBX 8 9 1 -1
BITMAP
20
7C
C4
A8
3C
D3
08
70
0C
ENDCHAR
STARTCHAR 51B6
ENCODING 20918
SWIDTH 925 0
DWIDTH 9 0
BBX 8 9 1 -1
BITMAP
88
94
52
3F
00
7E
A2
BE
A2
ENDCHAR
STARTCHAR 51B7
ENCODING 20919
SWIDTH 925 0
DWIDTH 9 0
BBX 8 9 1 -1
BITMAP
88
54
22
5D
00
7E
92
96
10
ENDCHAR
STARTCHAR 51BD
ENCODING 20925
SWIDTH 925 0
DWIDTH 9 0
BBX 7 9 1 -1
BITMAP
FA
A6
BE
2E
6E
96
96
A2
A6
ENDCHAR
STARTCHAR 51C4
ENCODING 20932
SWIDTH 925 0
DWIDTH 9 0
BBX 8 9 1 -1
BITMAP
88
FF
3E
7F
0A
FF
B4
8C
72
ENDCHAR
STARTCHAR 51C6
ENCODING 20934
SWIDTH 925 0
DWIDTH 9 0
BBX 8 9 1 -1
BITMAP
94
94
7F
24
5E
66
9C
9F
A0
ENDCHAR
STARTCHAR 51C9
ENCODING 20937
SWIDTH 925 0
DWIDTH 9 0
BBX 8 9 1 -1
BITMAP
88
BF
40
3E
22
7E
AA
AA
D9
ENDCHAR
STARTCHAR 51CB
ENCODING 20939
SWIDTH 925 0
DWIDTH 9 0
BBX 7 8 1 -1
BITMAP
BE
6A
3E
2A
7E
B6
BE
C2
ENDCHAR
STARTCHAR 51CC
ENCODING 20940
SWIDTH 925 0
DWIDTH 9 0
BBX 8 9 1 -1
BITMAP
08
BE
BF
17
30
7E
B4
9C
E3
ENDCHAR
STARTCHAR 51CD
ENCODING 20941
SWIDTH 925 0
DWIDTH 9 0
BBX 8 9 1 -1
BITMAP
08
FF
BE
2A
3E
7E
9C
AA
C9
ENDCHAR
STARTCHAR 51DC
ENCODING 20956
SWIDTH 925 0
DWIDTH 9 0
BBX 8 9 1 -1
BITMAP
7F
80
BE
3E
3E
78
FF
9C
2B
ENDCHAR
STARTCHAR 51DD
ENCODING 20957
SWIDTH 925 0
DWIDTH 9 0
BBX 8 9 1 -1
BITMAP
57
AA
B6
2F
35
EB
FC
BC
CF
ENDCHAR
STARTCHAR 51DE
ENCODING 20958
SWIDTH 925 0
DWIDTH 9 0
BBX 8 8 1 -1
BITMAP
FE
F9
DE
F9
F6
00
AA
A9
ENDCHAR
STARTCHAR 51E1
ENCODING 20961
SWIDTH 925 0
DWIDTH 9 0
BBX 8 8 1 -1
BITMAP
78
44
64
54
54
44
85
87
ENDCHAR
STARTCHAR 51F0
ENCODING 20976
SWIDTH 925 0
DWIDTH 9 0
BBX 8 8 1 -1
BITMAP
FC
BA
CA
BA
82
FA
BB
FF
ENDCHAR
STARTCHAR 51F1
ENCODING 20977
SWIDTH 925 0
DWIDTH 9 0
BBX 8 9 1 -1
BITMAP
DE
EA
0A
FA
EA
EA
AA
AB
D3
ENDCHAR
STARTCHAR 51F6
ENCODING 20982
SWIDTH 925 0
DWIDTH 9 0
BBX 7 9 1 -1
BITMAP
04
C6
AA
92
9A
AE
C6
FE
82
ENDCHAR
STARTCHAR 51F8
ENCODING 20984
SWIDTH 925 0
DWIDTH 9 0
BBX 7 8 1 -1
BITMAP
38
28
28
E6
82
82
FE
82
ENDCHAR
STARTCHAR 51F9
ENCODING 20985
SWIDTH 925 0
DWIDTH 9 0
BBX 7 8 1 -1
BITMAP
EE
AA
AA
BA
A2
82
FE
82
ENDCHAR
STARTCHAR 51FA
ENCODING 20986
SWIDTH 925 0
DWIDTH 9 0
BBX 7 9 1 -1
BITMAP
10
92
92
7E
10
92
92
FE
82
ENDCHAR
STARTCHAR 51FD
ENCODING 20989
SWIDTH 925 0
DWIDTH 9 0
BBX 8 8 1 -1
BITMAP
FF
10
F5
AD
AD
D2
B1
FE
ENDCHAR
STARTCHAR 5200
ENCODING 20992
SWIDTH 925 0
DWIDTH 9 0
BBX 7 8 1 -1
BITMAP
FE
22
22
22
22
22
42
8E
ENDCHAR
STARTCHAR 5203
ENCODING 20995
SWIDTH 925 0
DWIDTH 9 0
BBX 7 8 1 -1
BITMAP
FE
12
52
52
92
22
42
8E
ENDCHAR
STARTCHAR 5206
ENCODING 20998
SWIDTH 925 0
DWIDTH 9 0
BBX 8 8 1 -1
BITMAP
38
44
82
FD
24
24
44
9C
ENDCHAR
STARTCHAR 5207
ENCODING 20999
SWIDTH 925 0
DWIDTH 9 0
BBX 7 9 1 -1
BITMAP
9E
8A
AA
CA
8A
9A
72
12
26
ENDCHAR
STARTCHAR 5208
ENCODING 21000
SWIDTH 925 0
DWIDTH 9 0
BBX 7 9 1 -1
BITMAP
22
26
A6
66
26
56
56
82
82
ENDCHAR
STARTCHAR 520A
ENCODING 21002
SWIDTH 925 0
DWIDTH 9 0
BBX 7 9 1 -1
BITMAP
02
F6
46
46
F6
46
46
42
46
ENDCHAR
STARTCHAR 520E
ENCODING 21006
SWIDTH 925 0
DWIDTH 9 0
BBX 8 9 0 -1
BITMAP
21
23
7B
6B
BB
5B
6B
69
5B
ENDCHAR
STARTCHAR 5211
ENCODING 21009
SWIDTH 925 0
DWIDTH 9 0
BBX 8 9 1 -1
BITMAP
F1
55
55
55
FD
55
55
91
96
ENDCHAR
STARTCHAR 5217
ENCODING 21015
SWIDTH 925 0
DWIDTH 9 0
BBX 7 9 1 -1
BITMAP
F2
46
46
76
D6
B6
26
42
86
ENDCHAR
STARTCHAR 521D
ENCODING 21021
SWIDTH 925 0
DWIDTH 9 0
BBX 7 9 1 -1
BITMAP
40
5E
EA
2A
6A
EA
4A
52
66
ENDCHAR
STARTCHAR 5224
ENCODING 21028
SWIDTH 925 0
DWIDTH 9 0
BBX 7 9 1 -1
BITMAP
22
B6
AA
F6
46
F6
46
42
86
ENDCHAR
STARTCHAR 5225
ENCODING 21029
SWIDTH 925 0
DWIDTH 9 0
BBX 7 9 1 -1
BITMAP
F6
96
96
F6
46
76
56
92
E6
ENDCHAR
STARTCHAR 5229
ENCODING 21033
SWIDTH 925 0
DWIDTH 9 0
BBX 7 9 1 -1
BITMAP
32
CA
4A
FA
6A
DA
CA
42
46
ENDCHAR
STARTCHAR 522A
ENCODING 21034
SWIDTH 925 0
DWIDTH 9 0
BBX 7 9 1 -1
BITMAP
F2
EE
EE
EE
FE
EE
EE
EA
92
ENDCHAR
STARTCHAR 522E
ENCODING 21038
SWIDTH 925 0
DWIDTH 9 0
BBX 7 9 1 -1
BITMAP
32
E6
46
F6
46
F6
96
F2
92
ENDCHAR
STARTCHAR 5230
ENCODING 21040
SWIDTH 925 0
DWIDTH 9 0
BBX 7 9 1 -1
BITMAP
F2
46
96
F6
26
26
F6
32
C2
ENDCHAR
STARTCHAR 5236
ENCODING 21046
SWIDTH 925 0
DWIDTH 9 0
BBX 8 9 1 -1
BITMAP
A1
F5
A5
FD
25
F5
AD
B1
22
ENDCHAR
STARTCHAR 5237
ENCODING 21047
SWIDTH 925 0
DWIDTH 9 0
BBX 7 9 1 -1
BITMAP
F2
96
F6
A6
F6
EE
EE
72
22
ENDCHAR
STARTCHAR 5238
ENCODING 21048
SWIDTH 925 0
DWIDTH 9 0
BBX 8 9 1 -1
BITMAP
10
54
FE
28
FF
FD
24
64
CC
ENDCHAR
STARTCHAR 5239
ENCODING 21049
SWIDTH 925 0
DWIDTH 9 0
BBX 8 9 1 -1
BITMAP
11
65
55
A5
F5
65
B5
B1
22
ENDCHAR
STARTCHAR 523A
ENCODING 21050
SWIDTH 925 0
DWIDTH 9 0
BBX 7 9 1 -1
BITMAP
22
FE
26
F6
AE
F6
B6
B2
22
ENDCHAR
STARTCHAR 523B
ENCODING 21051
SWIDTH 925 0
DWIDTH 9 0
BBX 7 9 1 -1
BITMAP
22
F6
C6
66
26
56
A6
52
8E
ENDCHAR
STARTCHAR 5243
ENCODING 21059
SWIDTH 925 0
DWIDTH 9 0
BBX 8 9 1 -1
BITMAP
51
F5
2D
F5
A5
FD
4D
B1
22
ENDCHAR
STARTCHAR 5247
ENCODING 21063
SWIDTH 925 0
DWIDTH 9 0
BBX 8 9 1 -1
BITMAP
F1
95
F5
95
F5
95
F5
A1
96
ENDCHAR
STARTCHAR 524A
ENCODING 21066
SWIDTH 925 0
DWIDTH 9 0
BBX 7 9 1 -1
BITMAP
B2
B6
AA
F6
F6
96
F6
92
B6
ENDCHAR
STARTCHAR 524B
ENCODING 21067
SWIDTH 925 0
DWIDTH 9 0
BBX 8 9 1 -1
BITMAP
42
FA
4A
FA
9A
FA
66
A1
BE
ENDCHAR
STARTCHAR 524C
ENCODING 21068
SWIDTH 925 0
DWIDTH 9 0
BBX 7 9 1 -1
BITMAP
22
F6
26
F6
B6
F6
A6
B2
26
ENDCHAR
STARTCHAR 524D
ENCODING 21069
SWIDTH 925 0
DWIDTH 9 0
BBX 8 9 1 -1
BITMAP
24
FF
00
EA
AA
EA
EA
A2
A6
ENDCHAR
STARTCHAR 5254
ENCODING 21076
SWIDTH 925 0
DWIDTH 9 0
BBX 8 9 1 -1
BITMAP
F1
95
F5
F5
45
FD
5D
E9
D2
ENDCHAR
STARTCHAR 5256
ENCODING 21078
SWIDTH 925 0
DWIDTH 9 0
BBX 7 9 1 -1
BITMAP
22
F6
96
FE
06
F6
96
F2
96
ENDCHAR
STARTCHAR 525B
ENCODING 21083
SWIDTH 925 0
DWIDTH 9 0
BBX 7 9 1 -1
BITMAP
FA
DE
EE
FE
FE
FE
FE
DA
9A
ENDCHAR
STARTCHAR 525D
ENCODING 21085
SWIDTH 925 0
DWIDTH 9 0
BBX 7 9 1 -1
BITMAP
42
76
F6
26
FE
B6
76
AA
46
ENDCHAR
STARTCHAR 5261
ENCODING 21089
SWIDTH 925 0
DWIDTH 9 0
BBX 7 9 1 -1
BITMAP
B6
B6
56
96
26
B6
F6
D2
8A
ENDCHAR
STARTCHAR 5269
ENCODING 21097
SWIDTH 925 0
DWIDTH 9 0
BBX 8 9 1 -1
BITMAP
19
E5
FD
FD
F5
FD
F5
A9
23
ENDCHAR
STARTCHAR 526A
ENCODING 21098
SWIDTH 925 0
DWIDTH 9 0
BBX 8 9 1 -1
BITMAP
24
FF
FA
FA
FA
B6
FE
22
C6
ENDCHAR
STARTCHAR 526F
ENCODING 21103
SWIDTH 925 0
DWIDTH 9 0
BBX 7 9 1 -1
BITMAP
F2
06
F6
F6
06
F6
F6
F2
8A
ENDCHAR
STARTCHAR 5272
ENCODING 21106
SWIDTH 925 0
DWIDTH 9 0
BBX 7 9 1 -1
BITMAP
22
F6
F6
F6
FE
06
F6
92
F6
ENDCHAR
STARTCHAR 5275
ENCODING 21109
SWIDTH 925 0
DWIDTH 9 0
BBX 8 9 0 -1
BITMAP
33
7B
47
3B
3B
7B
7B
65
B9
ENDCHAR
STARTCHAR 527D
ENCODING 21117
SWIDTH 925 0
DWIDTH 9 0
BBX 7 9 1 -1
BITMAP
FA
66
FE
FE
06
F6
FE
B2
EA
ENDCHAR
STARTCHAR 527F
ENCODING 21119
SWIDTH 925 0
DWIDTH 9 0
BBX 7 9 1 -1
BITMAP
AA
D6
AE
F6
F6
F6
FE
72
AA
ENDCHAR
STARTCHAR 5283
ENCODING 21123
SWIDTH 925 0
DWIDTH 9 0
BBX 7 9 1 -1
BITMAP
22
F6
FE
FE
FE
F6
F6
F2
FE
ENDCHAR
STARTCHAR 5287
ENCODING 21127
SWIDTH 925 0
DWIDTH 9 0
BBX 7 9 1 -1
BITMAP
32
FE
FE
BE
FE
EE
D6
F2
7A
ENDCHAR
STARTCHAR 5288
ENCODING 21128
SWIDTH 925 0
DWIDTH 9 0
BBX 8 9 1 -1
BITMAP
E4
9F
EF
EF
E4
00
FE
22
C6
ENDCHAR
STARTCHAR 5289
ENCODING 21129
SWIDTH 925 0
DWIDTH 9 0
BBX 7 9 1 -1
BITMAP
7A
9E
EE
FE
56
FE
F6
7A
C2
ENDCHAR
STARTCHAR 528D
ENCODING 21133
SWIDTH 925 0
DWIDTH 9 0
BBX 7 9 1 -1
BITMAP
22
D6
FE
06
DE
DE
56
D2
AA
ENDCHAR
STARTCHAR 5291
ENCODING 21137
SWIDTH 925 0
DWIDTH 9 0
BBX 8 9 1 -1
BITMAP
FD
45
FD
FD
F5
F5
8D
F5
8B
ENDCHAR
STARTCHAR 5292
ENCODING 21138
SWIDTH 925 0
DWIDTH 9 0
BBX 9 9 0 -1
BITMAP
3780
4A80
7A80
7E80
7E80
7A80
5280
7C80
9F00
ENDCHAR
STARTCHAR 529B
ENCODING 21147
SWIDTH 925 0
DWIDTH 9 0
BBX 7 9 1 -1
BITMAP
10
10
FE
12
12
22
22
42
8C
ENDCHAR
STARTCHAR 529F
ENCODING 21151
SWIDTH 925 0
DWIDTH 9 0
BBX 7 9 1 -1
BITMAP
08
E8
5E
4A
4A
6A
CA
12
26
ENDCHAR
STARTCHAR 52A0
ENCODING 21152
SWIDTH 925 0
DWIDTH 9 0
BBX 7 9 1 -1
BITMAP
40
46
FA
5A
5A
5A
5A
96
AA
ENDCHAR
STARTCHAR 52A3
ENCODING 21155
SWIDTH 925 0
DWIDTH 9 0
BBX 8 9 1 -1
BITMAP
10
56
B5
38
D0
FE
12
22
C6
ENDCHAR
STARTCHAR 52A4
ENCODING 21156
SWIDTH 925 0
DWIDTH 9 0
BBX 7 9 1 -1
BITMAP
34
E4
8E
F6
AA
AA
AA
AA
36
ENDCHAR
STARTCHAR 52A9
ENCODING 21161
SWIDTH 925 0
DWIDTH 9 0
BBX 8 9 1 -1
BITMAP
E4
A4
BF
E5
A9
E9
A9
D2
16
ENDCHAR
STARTCHAR 52AA
ENCODING 21162
SWIDTH 925 0
DWIDTH 9 0
BBX 8 9 1 -1
BITMAP
40
EE
A6
76
99
FE
22
62
8C
ENDCHAR
STARTCHAR 52AB
ENCODING 21163
SWIDTH 925 0
DWIDTH 9 0
BBX 8 9 1 -1
BITMAP
44
44
FF
45
F5
55
B9
C9
16
ENDCHAR
STARTCHAR 52BE
ENCODING 21182
SWIDTH 925 0
DWIDTH 9 0
BBX 8 9 1 -1
BITMAP
44
F4
4F
A5
55
E5
A5
DA
96
ENDCHAR
STARTCHAR 52C1
ENCODING 21185
SWIDTH 925 0
DWIDTH 9 0
BBX 8 9 1 -1
BITMAP
F4
B4
EE
D5
B5
F5
49
7A
D6
ENDCHAR
STARTCHAR 52C3
ENCODING 21187
SWIDTH 925 0
DWIDTH 9 0
BBX 8 9 1 -1
BITMAP
44
F4
4F
F5
E5
75
C9
49
D6
ENDCHAR
STARTCHAR 52C5
ENCODING 21189
SWIDTH 925 0
DWIDTH 9 0
BBX 9 9 0 -1
BITMAP
2200
7A00
2780
7A80
6A80
7A80
7480
AD00
2B00
ENDCHAR
STARTCHAR 52C7
ENCODING 21191
SWIDTH 925 0
DWIDTH 9 0
BBX 7 8 1 -1
BITMAP
7E
18
FE
FE
FE
FE
22
C6
ENDCHAR
STARTCHAR 52C9
ENCODING 21193
SWIDTH 925 0
DWIDTH 9 0
BBX 8 9 1 -1
BITMAP
44
64
AE
F5
D6
FA
76
E1
BE
ENDCHAR
STARTCHAR 52CD
ENCODING 21197
SWIDTH 925 0
DWIDTH 9 0
BBX 8 9 1 -1
BITMAP
44
F4
0E
F5
95
F5
D9
DA
4E
ENDCHAR
STARTCHAR 52D2
ENCODING 21202
SWIDTH 925 0
DWIDTH 9 0
BBX 7 9 1 -1
BITMAP
A4
F4
FE
46
EA
EA
FA
4A
56
ENDCHAR
STARTCHAR 52D5
ENCODING 21205
SWIDTH 925 0
DWIDTH 9 0
BBX 8 9 1 -1
BITMAP
34
E4
FE
F5
F5
F5
F9
7A
CE
ENDCHAR
STARTCHAR 52D6
ENCODING 21206
SWIDTH 925 0
DWIDTH 9 0
BBX 8 9 1 -1
BITMAP
F4
94
FF
F5
E5
E5
99
E9
96
ENDCHAR
STARTCHAR 52D8
ENCODING 21208
SWIDTH 925 0
DWIDTH 9 0
BBX 8 9 1 -1
BITMAP
94
F4
FF
95
F5
FD
F9
F9
8E
ENDCHAR
STARTCHAR 52D9
ENCODING 21209
SWIDTH 925 0
DWIDTH 9 0
BBX 8 9 1 -1
BITMAP
E8
2F
5A
E4
5F
FE
C9
49
D6
ENDCHAR
STARTCHAR 52DB
ENCODING 21211
SWIDTH 925 0
DWIDTH 9 0
BBX 7 9 1 -1
BITMAP
F4
F4
0E
F6
F6
F6
FA
AA
96
ENDCHAR
STARTCHAR 52DD
ENCODING 21213
SWIDTH 925 0
DWIDTH 9 0
BBX 8 9 1 -1
BITMAP
DA
DA
AF
FF
DA
BF
CA
D2
56
ENDCHAR
STARTCHAR 52DE
ENCODING 21214
SWIDTH 925 0
DWIDTH 9 0
BBX 8 9 1 -1
BITMAP
DD
EE
66
88
FE
FE
22
62
8C
ENDCHAR
STARTCHAR 52DF
ENCODING 21215
SWIDTH 925 0
DWIDTH 9 0
BBX 8 9 1 -1
BITMAP
FF
28
7E
7E
7E
FF
FF
24
CC
ENDCHAR
STARTCHAR 52E2
ENCODING 21218
SWIDTH 925 0
DWIDTH 9 0
BBX 8 9 1 -1
BITMAP
44
EE
F6
CA
FF
C9
FE
22
CE
ENDCHAR
STARTCHAR 52E3
ENCODING 21219
SWIDTH 925 0
DWIDTH 9 0
BBX 7 9 1 -1
BITMAP
44
F4
FE
06
F6
96
FA
FA
B6
ENDCHAR
STARTCHAR 52E4
ENCODING 21220
SWIDTH 925 0
DWIDTH 9 0
BBX 8 9 1 -1
BITMAP
A4
F4
EE
F5
F5
F5
E9
7A
D6
ENDCHAR
STARTCHAR 52F3
ENCODING 21235
SWIDTH 925 0
DWIDTH 9 0
BBX 8 9 1 -1
BITMAP
F4
FC
FE
B5
F5
F5
F5
EA
EE
ENDCHAR
STARTCHAR 52F5
ENCODING 21237
SWIDTH 925 0
DWIDTH 9 0
BBX 9 9 0 -1
BITMAP
7E00
6A00
7B00
7A80
7A80
5280
7A80
7A80
AD00
ENDCHAR
STARTCHAR 52F8
ENCODING 21240
SWIDTH 925 0
DWIDTH 9 0
BBX 7 9 1 -1
BITMAP
A4
F4
FE
F6
26
F6
FA
AA
F6
ENDCHAR
STARTCHAR 52FA
ENCODING 21242
SWIDTH 925 0
DWIDTH 9 0
BBX 7 9 1 -1
BITMAP
20
40
7E
82
82
7A
02
02
06
ENDCHAR
STARTCHAR 52FB
ENCODING 21243
SWIDTH 925 0
DWIDTH 9 0
BBX 7 9 1 -1
BITMAP
40
7E
42
82
FA
02
7A
02
0E
ENDCHAR
STARTCHAR 52FE
ENCODING 21246
SWIDTH 925 0
DWIDTH 9 0
BBX 7 9 1 -1
BITMAP
40
7E
42
A2
B2
4A
FA
06
0E
ENDCHAR
STARTCHAR 52FF
ENCODING 21247
SWIDTH 925 0
DWIDTH 9 0
BBX 7 9 1 -1
BITMAP
40
7E
56
AA
AA
4A
92
22
26
ENDCHAR
ENDFONT
